G75*
%MOIN*%
%OFA0B0*%
%FSLAX25Y25*%
%IPPOS*%
%LPD*%
%AMOC8*
5,1,8,0,0,1.08239X$1,22.5*
%
%ADD10C,0.05600*%
%ADD11C,0.06400*%
%ADD12C,0.07400*%
%ADD13OC8,0.06400*%
%ADD14R,0.06500X0.06500*%
%ADD15C,0.06500*%
%ADD16R,0.07400X0.07400*%
%ADD17C,0.01000*%
%ADD18C,0.04000*%
D10*
X0055700Y0048500D02*
X0061300Y0048500D01*
X0065700Y0038500D02*
X0071300Y0038500D01*
X0075700Y0048500D02*
X0081300Y0048500D01*
X0071300Y0073500D02*
X0065700Y0073500D01*
X0061300Y0083500D02*
X0055700Y0083500D01*
X0075700Y0083500D02*
X0081300Y0083500D01*
X0071300Y0108500D02*
X0065700Y0108500D01*
X0061300Y0118500D02*
X0055700Y0118500D01*
X0075700Y0118500D02*
X0081300Y0118500D01*
X0093500Y0125700D02*
X0093500Y0131300D01*
X0103500Y0131300D02*
X0103500Y0125700D01*
X0113500Y0125700D02*
X0113500Y0131300D01*
X0123500Y0131300D02*
X0123500Y0125700D01*
X0133500Y0125700D02*
X0133500Y0131300D01*
X0143500Y0131300D02*
X0143500Y0125700D01*
X0153500Y0125700D02*
X0153500Y0131300D01*
X0153500Y0155700D02*
X0153500Y0161300D01*
X0143500Y0161300D02*
X0143500Y0155700D01*
X0133500Y0155700D02*
X0133500Y0161300D01*
X0123500Y0161300D02*
X0123500Y0155700D01*
X0113500Y0155700D02*
X0113500Y0161300D01*
X0103500Y0161300D02*
X0103500Y0155700D01*
X0093500Y0155700D02*
X0093500Y0161300D01*
X0081300Y0153500D02*
X0075700Y0153500D01*
X0071300Y0143500D02*
X0065700Y0143500D01*
X0061300Y0153500D02*
X0055700Y0153500D01*
D11*
X0036000Y0149200D02*
X0036000Y0142800D01*
X0026000Y0142800D02*
X0026000Y0149200D01*
X0016000Y0149200D02*
X0016000Y0142800D01*
X0016000Y0114200D02*
X0016000Y0107800D01*
X0026000Y0107800D02*
X0026000Y0114200D01*
X0036000Y0114200D02*
X0036000Y0107800D01*
X0036000Y0079200D02*
X0036000Y0072800D01*
X0026000Y0072800D02*
X0026000Y0079200D01*
X0016000Y0079200D02*
X0016000Y0072800D01*
X0016000Y0044200D02*
X0016000Y0037800D01*
X0026000Y0037800D02*
X0026000Y0044200D01*
X0036000Y0044200D02*
X0036000Y0037800D01*
X0165300Y0033500D02*
X0171700Y0033500D01*
X0171700Y0043500D02*
X0165300Y0043500D01*
X0165300Y0053500D02*
X0171700Y0053500D01*
X0171700Y0063500D02*
X0165300Y0063500D01*
D12*
X0173500Y0086000D03*
X0173500Y0096000D03*
X0173500Y0106000D03*
X0173500Y0116000D03*
X0173500Y0126000D03*
X0173500Y0136000D03*
X0173500Y0146000D03*
X0173500Y0156000D03*
X0078500Y0133500D03*
X0048500Y0133500D03*
X0048500Y0098500D03*
X0078500Y0098500D03*
X0078500Y0063500D03*
X0096000Y0058500D03*
X0096000Y0048500D03*
X0078500Y0028500D03*
X0048500Y0028500D03*
X0048500Y0063500D03*
X0131000Y0058500D03*
X0131000Y0048500D03*
D13*
X0133500Y0081000D03*
X0123500Y0081000D03*
X0113500Y0081000D03*
X0113500Y0091000D03*
X0123500Y0091000D03*
X0133500Y0091000D03*
X0133500Y0101000D03*
X0123500Y0101000D03*
X0113500Y0101000D03*
X0113500Y0111000D03*
X0123500Y0111000D03*
X0133500Y0111000D03*
D14*
X0196000Y0156000D03*
X0196000Y0063500D03*
D15*
X0196000Y0053500D03*
X0196000Y0043500D03*
X0196000Y0033500D03*
X0146000Y0033500D03*
X0146000Y0043500D03*
X0146000Y0053500D03*
X0146000Y0063500D03*
X0111000Y0063500D03*
X0111000Y0053500D03*
X0111000Y0043500D03*
X0111000Y0033500D03*
X0196000Y0086000D03*
X0196000Y0096000D03*
X0196000Y0106000D03*
X0196000Y0116000D03*
X0196000Y0126000D03*
X0196000Y0136000D03*
X0196000Y0146000D03*
D16*
X0131000Y0038500D03*
X0096000Y0038500D03*
D17*
X0006000Y0006000D02*
X0226000Y0006000D01*
X0226000Y0186000D01*
X0006000Y0186000D01*
X0006000Y0006000D01*
X0006000Y0006991D02*
X0226000Y0006991D01*
X0226000Y0007990D02*
X0006000Y0007990D01*
X0006000Y0008988D02*
X0226000Y0008988D01*
X0226000Y0009987D02*
X0006000Y0009987D01*
X0006000Y0010985D02*
X0014818Y0010985D01*
X0015507Y0010700D02*
X0017893Y0010700D01*
X0020099Y0011613D01*
X0021787Y0013301D01*
X0022700Y0015507D01*
X0022700Y0017893D01*
X0021787Y0020099D01*
X0020099Y0021787D01*
X0017893Y0022700D01*
X0015507Y0022700D01*
X0013301Y0021787D01*
X0011613Y0020099D01*
X0010700Y0017893D01*
X0010700Y0015507D01*
X0011613Y0013301D01*
X0013301Y0011613D01*
X0015507Y0010700D01*
X0012931Y0011984D02*
X0006000Y0011984D01*
X0006000Y0012982D02*
X0011933Y0012982D01*
X0011332Y0013981D02*
X0006000Y0013981D01*
X0006000Y0014979D02*
X0010918Y0014979D01*
X0010700Y0015978D02*
X0006000Y0015978D01*
X0006000Y0016976D02*
X0010700Y0016976D01*
X0010734Y0017975D02*
X0006000Y0017975D01*
X0006000Y0018973D02*
X0011147Y0018973D01*
X0011561Y0019972D02*
X0006000Y0019972D01*
X0006000Y0020970D02*
X0012485Y0020970D01*
X0013741Y0021969D02*
X0006000Y0021969D01*
X0006000Y0022967D02*
X0226000Y0022967D01*
X0226000Y0021969D02*
X0216559Y0021969D01*
X0216999Y0021787D02*
X0214793Y0022700D01*
X0212407Y0022700D01*
X0210201Y0021787D01*
X0208513Y0020099D01*
X0207600Y0017893D01*
X0207600Y0015507D01*
X0208513Y0013301D01*
X0210201Y0011613D01*
X0212407Y0010700D01*
X0214793Y0010700D01*
X0216999Y0011613D01*
X0218687Y0013301D01*
X0219600Y0015507D01*
X0219600Y0017893D01*
X0218687Y0020099D01*
X0216999Y0021787D01*
X0217815Y0020970D02*
X0226000Y0020970D01*
X0226000Y0019972D02*
X0218739Y0019972D01*
X0219153Y0018973D02*
X0226000Y0018973D01*
X0226000Y0017975D02*
X0219566Y0017975D01*
X0219600Y0016976D02*
X0226000Y0016976D01*
X0226000Y0015978D02*
X0219600Y0015978D01*
X0219382Y0014979D02*
X0226000Y0014979D01*
X0226000Y0013981D02*
X0218968Y0013981D01*
X0218367Y0012982D02*
X0226000Y0012982D01*
X0226000Y0011984D02*
X0217369Y0011984D01*
X0215482Y0010985D02*
X0226000Y0010985D01*
X0226000Y0023966D02*
X0081055Y0023966D01*
X0081225Y0024053D02*
X0081888Y0024534D01*
X0082466Y0025112D01*
X0082947Y0025775D01*
X0083319Y0026504D01*
X0083572Y0027282D01*
X0083700Y0028091D01*
X0083700Y0028114D01*
X0078886Y0028114D01*
X0078886Y0028886D01*
X0083700Y0028886D01*
X0083700Y0028909D01*
X0083572Y0029718D01*
X0083319Y0030496D01*
X0082947Y0031225D01*
X0082466Y0031888D01*
X0081888Y0032466D01*
X0081225Y0032947D01*
X0080496Y0033319D01*
X0079718Y0033572D01*
X0078909Y0033700D01*
X0078886Y0033700D01*
X0078886Y0028886D01*
X0078114Y0028886D01*
X0078114Y0033700D01*
X0078091Y0033700D01*
X0077282Y0033572D01*
X0076504Y0033319D01*
X0075775Y0032947D01*
X0075112Y0032466D01*
X0074534Y0031888D01*
X0074053Y0031225D01*
X0073681Y0030496D01*
X0073428Y0029718D01*
X0073300Y0028909D01*
X0073300Y0028886D01*
X0078114Y0028886D01*
X0078114Y0028114D01*
X0078886Y0028114D01*
X0078886Y0023300D01*
X0078909Y0023300D01*
X0079718Y0023428D01*
X0080496Y0023681D01*
X0081225Y0024053D01*
X0082318Y0024964D02*
X0226000Y0024964D01*
X0226000Y0025963D02*
X0083043Y0025963D01*
X0083468Y0026961D02*
X0226000Y0026961D01*
X0226000Y0027960D02*
X0083679Y0027960D01*
X0083692Y0028958D02*
X0109552Y0028958D01*
X0110055Y0028750D02*
X0111945Y0028750D01*
X0113691Y0029473D01*
X0115027Y0030809D01*
X0115750Y0032555D01*
X0115750Y0034445D01*
X0115027Y0036191D01*
X0113691Y0037527D01*
X0111945Y0038250D01*
X0110055Y0038250D01*
X0108309Y0037527D01*
X0106973Y0036191D01*
X0106250Y0034445D01*
X0106250Y0032555D01*
X0106973Y0030809D01*
X0108309Y0029473D01*
X0110055Y0028750D01*
X0112448Y0028958D02*
X0144552Y0028958D01*
X0145055Y0028750D02*
X0146945Y0028750D01*
X0148691Y0029473D01*
X0150027Y0030809D01*
X0150750Y0032555D01*
X0150750Y0034445D01*
X0150027Y0036191D01*
X0148691Y0037527D01*
X0146945Y0038250D01*
X0145055Y0038250D01*
X0143309Y0037527D01*
X0141973Y0036191D01*
X0141250Y0034445D01*
X0141250Y0032555D01*
X0141973Y0030809D01*
X0143309Y0029473D01*
X0145055Y0028750D01*
X0142826Y0029957D02*
X0114174Y0029957D01*
X0115087Y0030955D02*
X0141913Y0030955D01*
X0141499Y0031954D02*
X0115501Y0031954D01*
X0115750Y0032952D02*
X0141250Y0032952D01*
X0141250Y0033951D02*
X0135972Y0033951D01*
X0136200Y0034179D02*
X0136200Y0042821D01*
X0135321Y0043700D01*
X0133033Y0043700D01*
X0133725Y0044053D01*
X0134388Y0044534D01*
X0134966Y0045112D01*
X0135447Y0045775D01*
X0135819Y0046504D01*
X0136072Y0047282D01*
X0136188Y0048016D01*
X0131484Y0048016D01*
X0131484Y0048984D01*
X0136188Y0048984D01*
X0136072Y0049718D01*
X0135819Y0050496D01*
X0135447Y0051225D01*
X0134966Y0051888D01*
X0134388Y0052466D01*
X0133725Y0052947D01*
X0132996Y0053319D01*
X0132483Y0053486D01*
X0133946Y0054092D01*
X0135408Y0055554D01*
X0136200Y0057466D01*
X0136200Y0059534D01*
X0135408Y0061446D01*
X0133946Y0062908D01*
X0141285Y0062908D01*
X0141250Y0063126D02*
X0141367Y0062388D01*
X0141598Y0061677D01*
X0141937Y0061010D01*
X0142377Y0060406D01*
X0142906Y0059877D01*
X0143510Y0059437D01*
X0144177Y0059098D01*
X0144888Y0058867D01*
X0145626Y0058750D01*
X0145811Y0058750D01*
X0145811Y0063311D01*
X0141250Y0063311D01*
X0141250Y0063126D01*
X0141250Y0063689D02*
X0145811Y0063689D01*
X0145811Y0068250D01*
X0145626Y0068250D01*
X0144888Y0068133D01*
X0144177Y0067902D01*
X0143510Y0067563D01*
X0142906Y0067123D01*
X0142377Y0066594D01*
X0141937Y0065990D01*
X0141598Y0065323D01*
X0141367Y0064612D01*
X0141250Y0063874D01*
X0141250Y0063689D01*
X0141255Y0063906D02*
X0115745Y0063906D01*
X0115750Y0063874D02*
X0115633Y0064612D01*
X0115402Y0065323D01*
X0115063Y0065990D01*
X0114623Y0066594D01*
X0114094Y0067123D01*
X0113490Y0067563D01*
X0112823Y0067902D01*
X0112112Y0068133D01*
X0111374Y0068250D01*
X0111189Y0068250D01*
X0111189Y0063689D01*
X0110811Y0063689D01*
X0110811Y0068250D01*
X0110626Y0068250D01*
X0109888Y0068133D01*
X0109177Y0067902D01*
X0108510Y0067563D01*
X0107906Y0067123D01*
X0107377Y0066594D01*
X0106937Y0065990D01*
X0106598Y0065323D01*
X0106367Y0064612D01*
X0106250Y0063874D01*
X0106250Y0063689D01*
X0110811Y0063689D01*
X0110811Y0063311D01*
X0106250Y0063311D01*
X0106250Y0063126D01*
X0106367Y0062388D01*
X0106598Y0061677D01*
X0106937Y0061010D01*
X0107377Y0060406D01*
X0107906Y0059877D01*
X0108510Y0059437D01*
X0109177Y0059098D01*
X0109888Y0058867D01*
X0110626Y0058750D01*
X0110811Y0058750D01*
X0110811Y0063311D01*
X0111189Y0063311D01*
X0111189Y0063689D01*
X0115750Y0063689D01*
X0115750Y0063874D01*
X0115750Y0063311D02*
X0111189Y0063311D01*
X0111189Y0058750D01*
X0111374Y0058750D01*
X0112112Y0058867D01*
X0112823Y0059098D01*
X0113490Y0059437D01*
X0114094Y0059877D01*
X0114623Y0060406D01*
X0115063Y0061010D01*
X0115402Y0061677D01*
X0115633Y0062388D01*
X0115750Y0063126D01*
X0115750Y0063311D01*
X0115715Y0062908D02*
X0128054Y0062908D01*
X0126592Y0061446D01*
X0125800Y0059534D01*
X0125800Y0057466D01*
X0126592Y0055554D01*
X0128054Y0054092D01*
X0129517Y0053486D01*
X0129004Y0053319D01*
X0128275Y0052947D01*
X0127612Y0052466D01*
X0127034Y0051888D01*
X0126553Y0051225D01*
X0126181Y0050496D01*
X0125928Y0049718D01*
X0125812Y0048984D01*
X0130516Y0048984D01*
X0130516Y0048016D01*
X0125812Y0048016D01*
X0125928Y0047282D01*
X0126181Y0046504D01*
X0126553Y0045775D01*
X0127034Y0045112D01*
X0127612Y0044534D01*
X0128275Y0044053D01*
X0128967Y0043700D01*
X0126679Y0043700D01*
X0125800Y0042821D01*
X0125800Y0034179D01*
X0126679Y0033300D01*
X0135321Y0033300D01*
X0136200Y0034179D01*
X0136200Y0034949D02*
X0141459Y0034949D01*
X0141873Y0035948D02*
X0136200Y0035948D01*
X0136200Y0036946D02*
X0142729Y0036946D01*
X0144319Y0037945D02*
X0136200Y0037945D01*
X0136200Y0038943D02*
X0144652Y0038943D01*
X0144888Y0038867D02*
X0145626Y0038750D01*
X0145811Y0038750D01*
X0145811Y0043311D01*
X0141250Y0043311D01*
X0141250Y0043126D01*
X0141367Y0042388D01*
X0141598Y0041677D01*
X0141937Y0041010D01*
X0142377Y0040406D01*
X0142906Y0039877D01*
X0143510Y0039437D01*
X0144177Y0039098D01*
X0144888Y0038867D01*
X0145811Y0038943D02*
X0146189Y0038943D01*
X0146189Y0038750D02*
X0146374Y0038750D01*
X0147112Y0038867D01*
X0147823Y0039098D01*
X0148490Y0039437D01*
X0149094Y0039877D01*
X0149623Y0040406D01*
X0150063Y0041010D01*
X0150402Y0041677D01*
X0150633Y0042388D01*
X0150750Y0043126D01*
X0150750Y0043311D01*
X0146189Y0043311D01*
X0146189Y0043689D01*
X0145811Y0043689D01*
X0145811Y0048250D01*
X0145626Y0048250D01*
X0144888Y0048133D01*
X0144177Y0047902D01*
X0143510Y0047563D01*
X0142906Y0047123D01*
X0142377Y0046594D01*
X0141937Y0045990D01*
X0141598Y0045323D01*
X0141367Y0044612D01*
X0141250Y0043874D01*
X0141250Y0043689D01*
X0145811Y0043689D01*
X0145811Y0043311D01*
X0146189Y0043311D01*
X0146189Y0038750D01*
X0147348Y0038943D02*
X0164019Y0038943D01*
X0164365Y0038800D02*
X0162638Y0039516D01*
X0161316Y0040838D01*
X0160600Y0042565D01*
X0160600Y0044435D01*
X0161316Y0046162D01*
X0162638Y0047484D01*
X0164365Y0048200D01*
X0172635Y0048200D01*
X0174362Y0047484D01*
X0175684Y0046162D01*
X0176400Y0044435D01*
X0176400Y0042565D01*
X0175684Y0040838D01*
X0174362Y0039516D01*
X0172635Y0038800D01*
X0164365Y0038800D01*
X0164199Y0038084D02*
X0164930Y0038200D01*
X0168000Y0038200D01*
X0168000Y0034000D01*
X0169000Y0034000D01*
X0169000Y0038200D01*
X0172070Y0038200D01*
X0172801Y0038084D01*
X0173504Y0037856D01*
X0174163Y0037520D01*
X0174762Y0037085D01*
X0175285Y0036562D01*
X0175720Y0035963D01*
X0176056Y0035304D01*
X0176284Y0034601D01*
X0176379Y0034000D01*
X0169000Y0034000D01*
X0169000Y0033000D01*
X0176379Y0033000D01*
X0176284Y0032399D01*
X0176056Y0031696D01*
X0175720Y0031037D01*
X0175285Y0030438D01*
X0174762Y0029915D01*
X0174163Y0029480D01*
X0173504Y0029144D01*
X0172801Y0028916D01*
X0172070Y0028800D01*
X0169000Y0028800D01*
X0169000Y0033000D01*
X0168000Y0033000D01*
X0168000Y0028800D01*
X0164930Y0028800D01*
X0164199Y0028916D01*
X0163496Y0029144D01*
X0162837Y0029480D01*
X0162238Y0029915D01*
X0161715Y0030438D01*
X0161280Y0031037D01*
X0160944Y0031696D01*
X0160716Y0032399D01*
X0160621Y0033000D01*
X0168000Y0033000D01*
X0168000Y0034000D01*
X0160621Y0034000D01*
X0160716Y0034601D01*
X0160944Y0035304D01*
X0161280Y0035963D01*
X0161715Y0036562D01*
X0162238Y0037085D01*
X0162837Y0037520D01*
X0163496Y0037856D01*
X0164199Y0038084D01*
X0163771Y0037945D02*
X0147681Y0037945D01*
X0149271Y0036946D02*
X0162100Y0036946D01*
X0161272Y0035948D02*
X0150127Y0035948D01*
X0150541Y0034949D02*
X0160829Y0034949D01*
X0160628Y0032952D02*
X0150750Y0032952D01*
X0150750Y0033951D02*
X0168000Y0033951D01*
X0168000Y0034949D02*
X0169000Y0034949D01*
X0169000Y0033951D02*
X0191262Y0033951D01*
X0191250Y0033875D02*
X0195625Y0033875D01*
X0195625Y0038250D01*
X0194888Y0038133D01*
X0194177Y0037902D01*
X0193510Y0037563D01*
X0192906Y0037123D01*
X0192377Y0036594D01*
X0191937Y0035990D01*
X0191598Y0035323D01*
X0191367Y0034612D01*
X0191250Y0033875D01*
X0191250Y0033125D02*
X0191367Y0032388D01*
X0191598Y0031677D01*
X0191937Y0031010D01*
X0192377Y0030406D01*
X0192906Y0029877D01*
X0193510Y0029437D01*
X0194177Y0029098D01*
X0194888Y0028867D01*
X0195625Y0028750D01*
X0195625Y0033125D01*
X0196375Y0033125D01*
X0196375Y0033875D01*
X0200750Y0033875D01*
X0200633Y0034612D01*
X0200402Y0035323D01*
X0200063Y0035990D01*
X0199623Y0036594D01*
X0199094Y0037123D01*
X0198490Y0037563D01*
X0197823Y0037902D01*
X0197112Y0038133D01*
X0196375Y0038250D01*
X0196375Y0033875D01*
X0195625Y0033875D01*
X0195625Y0033125D01*
X0191250Y0033125D01*
X0191278Y0032952D02*
X0176372Y0032952D01*
X0176139Y0031954D02*
X0191508Y0031954D01*
X0191977Y0030955D02*
X0175661Y0030955D01*
X0174804Y0029957D02*
X0192826Y0029957D01*
X0194607Y0028958D02*
X0172932Y0028958D01*
X0169000Y0028958D02*
X0168000Y0028958D01*
X0168000Y0029957D02*
X0169000Y0029957D01*
X0169000Y0030955D02*
X0168000Y0030955D01*
X0168000Y0031954D02*
X0169000Y0031954D01*
X0169000Y0032952D02*
X0168000Y0032952D01*
X0168000Y0035948D02*
X0169000Y0035948D01*
X0169000Y0036946D02*
X0168000Y0036946D01*
X0168000Y0037945D02*
X0169000Y0037945D01*
X0172981Y0038943D02*
X0194588Y0038943D01*
X0195055Y0038750D02*
X0196945Y0038750D01*
X0198691Y0039473D01*
X0200027Y0040809D01*
X0200750Y0042555D01*
X0200750Y0044445D01*
X0200027Y0046191D01*
X0198691Y0047527D01*
X0196945Y0048250D01*
X0195055Y0048250D01*
X0193309Y0047527D01*
X0191973Y0046191D01*
X0191250Y0044445D01*
X0191250Y0042555D01*
X0191973Y0040809D01*
X0193309Y0039473D01*
X0195055Y0038750D01*
X0195625Y0037945D02*
X0196375Y0037945D01*
X0196375Y0036946D02*
X0195625Y0036946D01*
X0195625Y0035948D02*
X0196375Y0035948D01*
X0196375Y0034949D02*
X0195625Y0034949D01*
X0195625Y0033951D02*
X0196375Y0033951D01*
X0196375Y0033125D02*
X0200750Y0033125D01*
X0200633Y0032388D01*
X0200402Y0031677D01*
X0200063Y0031010D01*
X0199623Y0030406D01*
X0199094Y0029877D01*
X0198490Y0029437D01*
X0197823Y0029098D01*
X0197112Y0028867D01*
X0196375Y0028750D01*
X0196375Y0033125D01*
X0196375Y0032952D02*
X0195625Y0032952D01*
X0195625Y0031954D02*
X0196375Y0031954D01*
X0196375Y0030955D02*
X0195625Y0030955D01*
X0195625Y0029957D02*
X0196375Y0029957D01*
X0196375Y0028958D02*
X0195625Y0028958D01*
X0197393Y0028958D02*
X0226000Y0028958D01*
X0226000Y0029957D02*
X0199174Y0029957D01*
X0200023Y0030955D02*
X0226000Y0030955D01*
X0226000Y0031954D02*
X0200492Y0031954D01*
X0200722Y0032952D02*
X0226000Y0032952D01*
X0226000Y0033951D02*
X0200738Y0033951D01*
X0200523Y0034949D02*
X0226000Y0034949D01*
X0226000Y0035948D02*
X0200084Y0035948D01*
X0199271Y0036946D02*
X0226000Y0036946D01*
X0226000Y0037945D02*
X0197691Y0037945D01*
X0197412Y0038943D02*
X0226000Y0038943D01*
X0226000Y0039942D02*
X0199159Y0039942D01*
X0200081Y0040940D02*
X0226000Y0040940D01*
X0226000Y0041939D02*
X0200495Y0041939D01*
X0200750Y0042937D02*
X0226000Y0042937D01*
X0226000Y0043936D02*
X0200750Y0043936D01*
X0200547Y0044934D02*
X0226000Y0044934D01*
X0226000Y0045933D02*
X0200134Y0045933D01*
X0199286Y0046932D02*
X0226000Y0046932D01*
X0226000Y0047930D02*
X0197717Y0047930D01*
X0197302Y0048929D02*
X0226000Y0048929D01*
X0226000Y0049927D02*
X0199145Y0049927D01*
X0199094Y0049877D02*
X0199623Y0050406D01*
X0200063Y0051010D01*
X0200402Y0051677D01*
X0200633Y0052388D01*
X0200750Y0053125D01*
X0196375Y0053125D01*
X0196375Y0053875D01*
X0200750Y0053875D01*
X0200633Y0054612D01*
X0200402Y0055323D01*
X0200063Y0055990D01*
X0199623Y0056594D01*
X0199094Y0057123D01*
X0198490Y0057563D01*
X0197823Y0057902D01*
X0197112Y0058133D01*
X0196375Y0058250D01*
X0196375Y0053875D01*
X0195625Y0053875D01*
X0195625Y0058250D01*
X0194888Y0058133D01*
X0194177Y0057902D01*
X0193510Y0057563D01*
X0192906Y0057123D01*
X0192377Y0056594D01*
X0191937Y0055990D01*
X0191598Y0055323D01*
X0191367Y0054612D01*
X0191250Y0053875D01*
X0195625Y0053875D01*
X0195625Y0053125D01*
X0196375Y0053125D01*
X0196375Y0048750D01*
X0197112Y0048867D01*
X0197823Y0049098D01*
X0198490Y0049437D01*
X0199094Y0049877D01*
X0200001Y0050926D02*
X0226000Y0050926D01*
X0226000Y0051924D02*
X0200482Y0051924D01*
X0200718Y0052923D02*
X0226000Y0052923D01*
X0226000Y0053921D02*
X0200742Y0053921D01*
X0200533Y0054920D02*
X0226000Y0054920D01*
X0226000Y0055918D02*
X0200099Y0055918D01*
X0199301Y0056917D02*
X0226000Y0056917D01*
X0226000Y0057915D02*
X0197783Y0057915D01*
X0196375Y0057915D02*
X0195625Y0057915D01*
X0195625Y0056917D02*
X0196375Y0056917D01*
X0196375Y0055918D02*
X0195625Y0055918D01*
X0195625Y0054920D02*
X0196375Y0054920D01*
X0196375Y0053921D02*
X0195625Y0053921D01*
X0195625Y0053125D02*
X0191250Y0053125D01*
X0191367Y0052388D01*
X0191598Y0051677D01*
X0191937Y0051010D01*
X0192377Y0050406D01*
X0192906Y0049877D01*
X0193510Y0049437D01*
X0194177Y0049098D01*
X0194888Y0048867D01*
X0195625Y0048750D01*
X0195625Y0053125D01*
X0195625Y0052923D02*
X0196375Y0052923D01*
X0196375Y0051924D02*
X0195625Y0051924D01*
X0195625Y0050926D02*
X0196375Y0050926D01*
X0196375Y0049927D02*
X0195625Y0049927D01*
X0195625Y0048929D02*
X0196375Y0048929D01*
X0194698Y0048929D02*
X0172840Y0048929D01*
X0172801Y0048916D02*
X0173504Y0049144D01*
X0174163Y0049480D01*
X0174762Y0049915D01*
X0175285Y0050438D01*
X0175720Y0051037D01*
X0176056Y0051696D01*
X0176284Y0052399D01*
X0176379Y0053000D01*
X0169000Y0053000D01*
X0169000Y0054000D01*
X0168000Y0054000D01*
X0168000Y0058200D01*
X0164930Y0058200D01*
X0164199Y0058084D01*
X0163496Y0057856D01*
X0162837Y0057520D01*
X0162238Y0057085D01*
X0161715Y0056562D01*
X0161280Y0055963D01*
X0160944Y0055304D01*
X0160716Y0054601D01*
X0160621Y0054000D01*
X0168000Y0054000D01*
X0168000Y0053000D01*
X0169000Y0053000D01*
X0169000Y0048800D01*
X0172070Y0048800D01*
X0172801Y0048916D01*
X0173287Y0047930D02*
X0194283Y0047930D01*
X0192714Y0046932D02*
X0174915Y0046932D01*
X0175779Y0045933D02*
X0191866Y0045933D01*
X0191453Y0044934D02*
X0176193Y0044934D01*
X0176400Y0043936D02*
X0191250Y0043936D01*
X0191250Y0042937D02*
X0176400Y0042937D01*
X0176141Y0041939D02*
X0191505Y0041939D01*
X0191919Y0040940D02*
X0175727Y0040940D01*
X0174789Y0039942D02*
X0192841Y0039942D01*
X0194309Y0037945D02*
X0173229Y0037945D01*
X0174900Y0036946D02*
X0192729Y0036946D01*
X0191916Y0035948D02*
X0175728Y0035948D01*
X0176171Y0034949D02*
X0191477Y0034949D01*
X0192855Y0049927D02*
X0174774Y0049927D01*
X0175639Y0050926D02*
X0191999Y0050926D01*
X0191518Y0051924D02*
X0176130Y0051924D01*
X0176367Y0052923D02*
X0191282Y0052923D01*
X0191257Y0053921D02*
X0169000Y0053921D01*
X0169000Y0054000D02*
X0176379Y0054000D01*
X0176284Y0054601D01*
X0176056Y0055304D01*
X0175720Y0055963D01*
X0175285Y0056562D01*
X0174762Y0057085D01*
X0174163Y0057520D01*
X0173504Y0057856D01*
X0172801Y0058084D01*
X0172070Y0058200D01*
X0169000Y0058200D01*
X0169000Y0054000D01*
X0169000Y0054920D02*
X0168000Y0054920D01*
X0168000Y0055918D02*
X0169000Y0055918D01*
X0169000Y0056917D02*
X0168000Y0056917D01*
X0168000Y0057915D02*
X0169000Y0057915D01*
X0172635Y0058800D02*
X0174362Y0059516D01*
X0175684Y0060838D01*
X0176400Y0062565D01*
X0176400Y0064435D01*
X0175684Y0066162D01*
X0174362Y0067484D01*
X0172635Y0068200D01*
X0164365Y0068200D01*
X0162638Y0067484D01*
X0161316Y0066162D01*
X0160600Y0064435D01*
X0160600Y0062565D01*
X0161316Y0060838D01*
X0162638Y0059516D01*
X0164365Y0058800D01*
X0172635Y0058800D01*
X0172909Y0058914D02*
X0191965Y0058914D01*
X0192129Y0058750D02*
X0199871Y0058750D01*
X0200750Y0059629D01*
X0200750Y0067371D01*
X0199871Y0068250D01*
X0192129Y0068250D01*
X0191250Y0067371D01*
X0191250Y0059629D01*
X0192129Y0058750D01*
X0191250Y0059912D02*
X0174759Y0059912D01*
X0175715Y0060911D02*
X0191250Y0060911D01*
X0191250Y0061909D02*
X0176128Y0061909D01*
X0176400Y0062908D02*
X0191250Y0062908D01*
X0191250Y0063906D02*
X0176400Y0063906D01*
X0176205Y0064905D02*
X0191250Y0064905D01*
X0191250Y0065903D02*
X0175792Y0065903D01*
X0174945Y0066902D02*
X0191250Y0066902D01*
X0191779Y0067900D02*
X0173359Y0067900D01*
X0163641Y0067900D02*
X0147827Y0067900D01*
X0147823Y0067902D02*
X0147112Y0068133D01*
X0146374Y0068250D01*
X0146189Y0068250D01*
X0146189Y0063689D01*
X0145811Y0063689D01*
X0145811Y0063311D01*
X0146189Y0063311D01*
X0146189Y0063689D01*
X0150750Y0063689D01*
X0150750Y0063874D01*
X0150633Y0064612D01*
X0150402Y0065323D01*
X0150063Y0065990D01*
X0149623Y0066594D01*
X0149094Y0067123D01*
X0148490Y0067563D01*
X0147823Y0067902D01*
X0146189Y0067900D02*
X0145811Y0067900D01*
X0145811Y0066902D02*
X0146189Y0066902D01*
X0146189Y0065903D02*
X0145811Y0065903D01*
X0145811Y0064905D02*
X0146189Y0064905D01*
X0146189Y0063906D02*
X0145811Y0063906D01*
X0146189Y0063311D02*
X0150750Y0063311D01*
X0150750Y0063126D01*
X0150633Y0062388D01*
X0150402Y0061677D01*
X0150063Y0061010D01*
X0149623Y0060406D01*
X0149094Y0059877D01*
X0148490Y0059437D01*
X0147823Y0059098D01*
X0147112Y0058867D01*
X0146374Y0058750D01*
X0146189Y0058750D01*
X0146189Y0063311D01*
X0146189Y0062908D02*
X0145811Y0062908D01*
X0145811Y0061909D02*
X0146189Y0061909D01*
X0146189Y0060911D02*
X0145811Y0060911D01*
X0145811Y0059912D02*
X0146189Y0059912D01*
X0146189Y0058914D02*
X0145811Y0058914D01*
X0145055Y0058250D02*
X0146945Y0058250D01*
X0148691Y0057527D01*
X0150027Y0056191D01*
X0150750Y0054445D01*
X0150750Y0052555D01*
X0150027Y0050809D01*
X0148691Y0049473D01*
X0146945Y0048750D01*
X0145055Y0048750D01*
X0143309Y0049473D01*
X0141973Y0050809D01*
X0141250Y0052555D01*
X0141250Y0054445D01*
X0141973Y0056191D01*
X0143309Y0057527D01*
X0145055Y0058250D01*
X0144744Y0058914D02*
X0136200Y0058914D01*
X0136200Y0057915D02*
X0144247Y0057915D01*
X0142699Y0056917D02*
X0135973Y0056917D01*
X0135559Y0055918D02*
X0141860Y0055918D01*
X0141447Y0054920D02*
X0134774Y0054920D01*
X0133534Y0053921D02*
X0141250Y0053921D01*
X0141250Y0052923D02*
X0133760Y0052923D01*
X0134930Y0051924D02*
X0141511Y0051924D01*
X0141925Y0050926D02*
X0135600Y0050926D01*
X0136004Y0049927D02*
X0142855Y0049927D01*
X0144624Y0048929D02*
X0131484Y0048929D01*
X0130516Y0048929D02*
X0112376Y0048929D01*
X0111945Y0048750D02*
X0113691Y0049473D01*
X0115027Y0050809D01*
X0115750Y0052555D01*
X0115750Y0054445D01*
X0115027Y0056191D01*
X0113691Y0057527D01*
X0111945Y0058250D01*
X0110055Y0058250D01*
X0108309Y0057527D01*
X0106973Y0056191D01*
X0106250Y0054445D01*
X0106250Y0052555D01*
X0106973Y0050809D01*
X0108309Y0049473D01*
X0110055Y0048750D01*
X0111945Y0048750D01*
X0112112Y0048133D02*
X0111374Y0048250D01*
X0111189Y0048250D01*
X0111189Y0043689D01*
X0110811Y0043689D01*
X0110811Y0048250D01*
X0110626Y0048250D01*
X0109888Y0048133D01*
X0109177Y0047902D01*
X0108510Y0047563D01*
X0107906Y0047123D01*
X0107377Y0046594D01*
X0106937Y0045990D01*
X0106598Y0045323D01*
X0106367Y0044612D01*
X0106250Y0043874D01*
X0106250Y0043689D01*
X0110811Y0043689D01*
X0110811Y0043311D01*
X0106250Y0043311D01*
X0106250Y0043126D01*
X0106367Y0042388D01*
X0106598Y0041677D01*
X0106937Y0041010D01*
X0107377Y0040406D01*
X0107906Y0039877D01*
X0108510Y0039437D01*
X0109177Y0039098D01*
X0109888Y0038867D01*
X0110626Y0038750D01*
X0110811Y0038750D01*
X0110811Y0043311D01*
X0111189Y0043311D01*
X0111189Y0043689D01*
X0115750Y0043689D01*
X0115750Y0043874D01*
X0115633Y0044612D01*
X0115402Y0045323D01*
X0115063Y0045990D01*
X0114623Y0046594D01*
X0114094Y0047123D01*
X0113490Y0047563D01*
X0112823Y0047902D01*
X0112112Y0048133D01*
X0112737Y0047930D02*
X0125825Y0047930D01*
X0126042Y0046932D02*
X0114286Y0046932D01*
X0115091Y0045933D02*
X0126472Y0045933D01*
X0127212Y0044934D02*
X0115528Y0044934D01*
X0115740Y0043936D02*
X0128503Y0043936D01*
X0125916Y0042937D02*
X0115720Y0042937D01*
X0115750Y0043126D02*
X0115750Y0043311D01*
X0111189Y0043311D01*
X0111189Y0038750D01*
X0111374Y0038750D01*
X0112112Y0038867D01*
X0112823Y0039098D01*
X0113490Y0039437D01*
X0114094Y0039877D01*
X0114623Y0040406D01*
X0115063Y0041010D01*
X0115402Y0041677D01*
X0115633Y0042388D01*
X0115750Y0043126D01*
X0115487Y0041939D02*
X0125800Y0041939D01*
X0125800Y0040940D02*
X0115012Y0040940D01*
X0114159Y0039942D02*
X0125800Y0039942D01*
X0125800Y0038943D02*
X0112348Y0038943D01*
X0112681Y0037945D02*
X0125800Y0037945D01*
X0125800Y0036946D02*
X0114271Y0036946D01*
X0115127Y0035948D02*
X0125800Y0035948D01*
X0125800Y0034949D02*
X0115541Y0034949D01*
X0115750Y0033951D02*
X0126028Y0033951D01*
X0136200Y0039942D02*
X0142841Y0039942D01*
X0141988Y0040940D02*
X0136200Y0040940D01*
X0136200Y0041939D02*
X0141513Y0041939D01*
X0141280Y0042937D02*
X0136084Y0042937D01*
X0134788Y0044934D02*
X0141472Y0044934D01*
X0141260Y0043936D02*
X0133497Y0043936D01*
X0135528Y0045933D02*
X0141909Y0045933D01*
X0142714Y0046932D02*
X0135958Y0046932D01*
X0136175Y0047930D02*
X0144263Y0047930D01*
X0145811Y0047930D02*
X0146189Y0047930D01*
X0146189Y0048250D02*
X0146189Y0043689D01*
X0150750Y0043689D01*
X0150750Y0043874D01*
X0150633Y0044612D01*
X0150402Y0045323D01*
X0150063Y0045990D01*
X0149623Y0046594D01*
X0149094Y0047123D01*
X0148490Y0047563D01*
X0147823Y0047902D01*
X0147112Y0048133D01*
X0146374Y0048250D01*
X0146189Y0048250D01*
X0146189Y0046932D02*
X0145811Y0046932D01*
X0145811Y0045933D02*
X0146189Y0045933D01*
X0146189Y0044934D02*
X0145811Y0044934D01*
X0145811Y0043936D02*
X0146189Y0043936D01*
X0146189Y0042937D02*
X0145811Y0042937D01*
X0145811Y0041939D02*
X0146189Y0041939D01*
X0146189Y0040940D02*
X0145811Y0040940D01*
X0145811Y0039942D02*
X0146189Y0039942D01*
X0149159Y0039942D02*
X0162211Y0039942D01*
X0161273Y0040940D02*
X0150012Y0040940D01*
X0150487Y0041939D02*
X0160859Y0041939D01*
X0160600Y0042937D02*
X0150720Y0042937D01*
X0150740Y0043936D02*
X0160600Y0043936D01*
X0160807Y0044934D02*
X0150528Y0044934D01*
X0150091Y0045933D02*
X0161221Y0045933D01*
X0162085Y0046932D02*
X0149286Y0046932D01*
X0147737Y0047930D02*
X0163713Y0047930D01*
X0164160Y0048929D02*
X0147376Y0048929D01*
X0149145Y0049927D02*
X0162226Y0049927D01*
X0162238Y0049915D02*
X0162837Y0049480D01*
X0163496Y0049144D01*
X0164199Y0048916D01*
X0164930Y0048800D01*
X0168000Y0048800D01*
X0168000Y0053000D01*
X0160621Y0053000D01*
X0160716Y0052399D01*
X0160944Y0051696D01*
X0161280Y0051037D01*
X0161715Y0050438D01*
X0162238Y0049915D01*
X0161361Y0050926D02*
X0150075Y0050926D01*
X0150489Y0051924D02*
X0160870Y0051924D01*
X0160633Y0052923D02*
X0150750Y0052923D01*
X0150750Y0053921D02*
X0168000Y0053921D01*
X0168000Y0052923D02*
X0169000Y0052923D01*
X0169000Y0051924D02*
X0168000Y0051924D01*
X0168000Y0050926D02*
X0169000Y0050926D01*
X0169000Y0049927D02*
X0168000Y0049927D01*
X0168000Y0048929D02*
X0169000Y0048929D01*
X0176181Y0054920D02*
X0191467Y0054920D01*
X0191901Y0055918D02*
X0175743Y0055918D01*
X0174930Y0056917D02*
X0192699Y0056917D01*
X0194217Y0057915D02*
X0173321Y0057915D01*
X0164091Y0058914D02*
X0147256Y0058914D01*
X0147753Y0057915D02*
X0163679Y0057915D01*
X0162070Y0056917D02*
X0149301Y0056917D01*
X0150140Y0055918D02*
X0161257Y0055918D01*
X0160819Y0054920D02*
X0150553Y0054920D01*
X0149130Y0059912D02*
X0162241Y0059912D01*
X0161285Y0060911D02*
X0149990Y0060911D01*
X0150478Y0061909D02*
X0160872Y0061909D01*
X0160600Y0062908D02*
X0150715Y0062908D01*
X0150745Y0063906D02*
X0160600Y0063906D01*
X0160795Y0064905D02*
X0150538Y0064905D01*
X0150107Y0065903D02*
X0161208Y0065903D01*
X0162055Y0066902D02*
X0149316Y0066902D01*
X0144173Y0067900D02*
X0112827Y0067900D01*
X0111189Y0067900D02*
X0110811Y0067900D01*
X0110811Y0066902D02*
X0111189Y0066902D01*
X0111189Y0065903D02*
X0110811Y0065903D01*
X0110811Y0064905D02*
X0111189Y0064905D01*
X0111189Y0063906D02*
X0110811Y0063906D01*
X0110811Y0062908D02*
X0111189Y0062908D01*
X0111189Y0061909D02*
X0110811Y0061909D01*
X0110811Y0060911D02*
X0111189Y0060911D01*
X0111189Y0059912D02*
X0110811Y0059912D01*
X0110811Y0058914D02*
X0111189Y0058914D01*
X0112256Y0058914D02*
X0125800Y0058914D01*
X0125800Y0057915D02*
X0112753Y0057915D01*
X0114301Y0056917D02*
X0126027Y0056917D01*
X0126441Y0055918D02*
X0115140Y0055918D01*
X0115553Y0054920D02*
X0127226Y0054920D01*
X0128466Y0053921D02*
X0115750Y0053921D01*
X0115750Y0052923D02*
X0128240Y0052923D01*
X0127070Y0051924D02*
X0115489Y0051924D01*
X0115075Y0050926D02*
X0126400Y0050926D01*
X0125996Y0049927D02*
X0114145Y0049927D01*
X0111189Y0047930D02*
X0110811Y0047930D01*
X0110811Y0046932D02*
X0111189Y0046932D01*
X0111189Y0045933D02*
X0110811Y0045933D01*
X0110811Y0044934D02*
X0111189Y0044934D01*
X0111189Y0043936D02*
X0110811Y0043936D01*
X0110811Y0042937D02*
X0111189Y0042937D01*
X0111189Y0041939D02*
X0110811Y0041939D01*
X0110811Y0040940D02*
X0111189Y0040940D01*
X0111189Y0039942D02*
X0110811Y0039942D01*
X0110811Y0038943D02*
X0111189Y0038943D01*
X0109652Y0038943D02*
X0101200Y0038943D01*
X0101200Y0037945D02*
X0109319Y0037945D01*
X0107729Y0036946D02*
X0101200Y0036946D01*
X0101200Y0035948D02*
X0106873Y0035948D01*
X0106459Y0034949D02*
X0101200Y0034949D01*
X0101200Y0034179D02*
X0101200Y0042821D01*
X0100321Y0043700D01*
X0098033Y0043700D01*
X0098725Y0044053D01*
X0099388Y0044534D01*
X0099966Y0045112D01*
X0100447Y0045775D01*
X0100819Y0046504D01*
X0101072Y0047282D01*
X0101188Y0048016D01*
X0096484Y0048016D01*
X0096484Y0048984D01*
X0101188Y0048984D01*
X0101072Y0049718D01*
X0100819Y0050496D01*
X0100447Y0051225D01*
X0099966Y0051888D01*
X0099388Y0052466D01*
X0098725Y0052947D01*
X0097996Y0053319D01*
X0097483Y0053486D01*
X0098946Y0054092D01*
X0100408Y0055554D01*
X0101200Y0057466D01*
X0101200Y0059534D01*
X0100408Y0061446D01*
X0098946Y0062908D01*
X0106285Y0062908D01*
X0106255Y0063906D02*
X0092735Y0063906D01*
X0092828Y0064000D02*
X0098828Y0064000D01*
X0111341Y0076512D01*
X0111553Y0076300D01*
X0115447Y0076300D01*
X0118200Y0079053D01*
X0118200Y0082947D01*
X0115447Y0085700D01*
X0111553Y0085700D01*
X0108800Y0082947D01*
X0108800Y0079628D01*
X0097172Y0068000D01*
X0091172Y0068000D01*
X0080172Y0057000D01*
X0072172Y0057000D01*
X0068172Y0053000D01*
X0067000Y0051828D01*
X0067000Y0042800D01*
X0064845Y0042800D01*
X0063264Y0042145D01*
X0062055Y0040936D01*
X0061400Y0039355D01*
X0061400Y0037645D01*
X0062055Y0036064D01*
X0063264Y0034855D01*
X0064845Y0034200D01*
X0072155Y0034200D01*
X0073736Y0034855D01*
X0074945Y0036064D01*
X0075600Y0037645D01*
X0075600Y0039355D01*
X0074945Y0040936D01*
X0073736Y0042145D01*
X0072155Y0042800D01*
X0071000Y0042800D01*
X0071000Y0050172D01*
X0073828Y0053000D01*
X0081828Y0053000D01*
X0083000Y0054172D01*
X0092828Y0064000D01*
X0093054Y0062908D02*
X0091592Y0061446D01*
X0090800Y0059534D01*
X0090800Y0057466D01*
X0091592Y0055554D01*
X0093054Y0054092D01*
X0094517Y0053486D01*
X0094004Y0053319D01*
X0093275Y0052947D01*
X0092612Y0052466D01*
X0092034Y0051888D01*
X0091553Y0051225D01*
X0091181Y0050496D01*
X0090928Y0049718D01*
X0090812Y0048984D01*
X0095516Y0048984D01*
X0095516Y0048016D01*
X0090812Y0048016D01*
X0090928Y0047282D01*
X0091181Y0046504D01*
X0091553Y0045775D01*
X0092034Y0045112D01*
X0092612Y0044534D01*
X0093275Y0044053D01*
X0093967Y0043700D01*
X0091679Y0043700D01*
X0090800Y0042821D01*
X0090800Y0034179D01*
X0091679Y0033300D01*
X0100321Y0033300D01*
X0101200Y0034179D01*
X0100972Y0033951D02*
X0106250Y0033951D01*
X0106250Y0032952D02*
X0081216Y0032952D01*
X0082400Y0031954D02*
X0106499Y0031954D01*
X0106913Y0030955D02*
X0083085Y0030955D01*
X0083494Y0029957D02*
X0107826Y0029957D01*
X0107841Y0039942D02*
X0101200Y0039942D01*
X0101200Y0040940D02*
X0106988Y0040940D01*
X0106513Y0041939D02*
X0101200Y0041939D01*
X0101084Y0042937D02*
X0106280Y0042937D01*
X0106260Y0043936D02*
X0098497Y0043936D01*
X0099788Y0044934D02*
X0106472Y0044934D01*
X0106909Y0045933D02*
X0100528Y0045933D01*
X0100958Y0046932D02*
X0107714Y0046932D01*
X0109263Y0047930D02*
X0101175Y0047930D01*
X0101004Y0049927D02*
X0107855Y0049927D01*
X0106925Y0050926D02*
X0100600Y0050926D01*
X0099930Y0051924D02*
X0106511Y0051924D01*
X0106250Y0052923D02*
X0098760Y0052923D01*
X0098534Y0053921D02*
X0106250Y0053921D01*
X0106447Y0054920D02*
X0099774Y0054920D01*
X0100559Y0055918D02*
X0106860Y0055918D01*
X0107699Y0056917D02*
X0100973Y0056917D01*
X0101200Y0057915D02*
X0109247Y0057915D01*
X0109744Y0058914D02*
X0101200Y0058914D01*
X0101043Y0059912D02*
X0107870Y0059912D01*
X0107010Y0060911D02*
X0100630Y0060911D01*
X0099945Y0061909D02*
X0106522Y0061909D01*
X0106462Y0064905D02*
X0099733Y0064905D01*
X0100732Y0065903D02*
X0106893Y0065903D01*
X0107684Y0066902D02*
X0101730Y0066902D01*
X0102729Y0067900D02*
X0109173Y0067900D01*
X0105724Y0070896D02*
X0226000Y0070896D01*
X0226000Y0071894D02*
X0106723Y0071894D01*
X0107721Y0072893D02*
X0226000Y0072893D01*
X0226000Y0073891D02*
X0108720Y0073891D01*
X0109718Y0074890D02*
X0226000Y0074890D01*
X0226000Y0075888D02*
X0110717Y0075888D01*
X0108055Y0078884D02*
X0103712Y0078884D01*
X0102714Y0077885D02*
X0107057Y0077885D01*
X0106058Y0076887D02*
X0101715Y0076887D01*
X0101000Y0076172D02*
X0111341Y0086512D01*
X0111553Y0086300D01*
X0115447Y0086300D01*
X0118200Y0089053D01*
X0118200Y0092947D01*
X0115447Y0095700D01*
X0111553Y0095700D01*
X0108800Y0092947D01*
X0108800Y0089628D01*
X0098172Y0079000D01*
X0074172Y0079000D01*
X0072732Y0077561D01*
X0072155Y0077800D01*
X0064845Y0077800D01*
X0063264Y0077145D01*
X0062055Y0075936D01*
X0061400Y0074355D01*
X0061400Y0072645D01*
X0062055Y0071064D01*
X0063264Y0069855D01*
X0064845Y0069200D01*
X0072155Y0069200D01*
X0073736Y0069855D01*
X0074945Y0071064D01*
X0075600Y0072645D01*
X0075600Y0074355D01*
X0075478Y0074650D01*
X0075828Y0075000D01*
X0099828Y0075000D01*
X0101000Y0076172D01*
X0100717Y0075888D02*
X0105060Y0075888D01*
X0104061Y0074890D02*
X0075718Y0074890D01*
X0075600Y0073891D02*
X0103063Y0073891D01*
X0102064Y0072893D02*
X0075600Y0072893D01*
X0075289Y0071894D02*
X0101066Y0071894D01*
X0100067Y0070896D02*
X0074777Y0070896D01*
X0073778Y0069897D02*
X0099069Y0069897D01*
X0098070Y0068899D02*
X0038746Y0068899D01*
X0038662Y0068816D02*
X0039984Y0070138D01*
X0040700Y0071865D01*
X0040700Y0080135D01*
X0039984Y0081862D01*
X0038662Y0083184D01*
X0036935Y0083900D01*
X0035065Y0083900D01*
X0033338Y0083184D01*
X0032016Y0081862D01*
X0031300Y0080135D01*
X0031300Y0071865D01*
X0032016Y0070138D01*
X0033338Y0068816D01*
X0035065Y0068100D01*
X0036935Y0068100D01*
X0038662Y0068816D01*
X0039744Y0069897D02*
X0063222Y0069897D01*
X0062223Y0070896D02*
X0040298Y0070896D01*
X0040700Y0071894D02*
X0061711Y0071894D01*
X0061400Y0072893D02*
X0040700Y0072893D01*
X0040700Y0073891D02*
X0061400Y0073891D01*
X0061621Y0074890D02*
X0040700Y0074890D01*
X0040700Y0075888D02*
X0062035Y0075888D01*
X0063006Y0076887D02*
X0040700Y0076887D01*
X0040700Y0077885D02*
X0073057Y0077885D01*
X0074055Y0078884D02*
X0040700Y0078884D01*
X0040700Y0079882D02*
X0053364Y0079882D01*
X0053446Y0079822D02*
X0054049Y0079515D01*
X0054693Y0079306D01*
X0055362Y0079200D01*
X0058200Y0079200D01*
X0058200Y0083200D01*
X0058800Y0083200D01*
X0058800Y0083800D01*
X0058200Y0083800D01*
X0058200Y0087800D01*
X0055362Y0087800D01*
X0054693Y0087694D01*
X0054049Y0087485D01*
X0053446Y0087178D01*
X0052899Y0086780D01*
X0052420Y0086301D01*
X0052022Y0085754D01*
X0051715Y0085151D01*
X0051506Y0084507D01*
X0051400Y0083838D01*
X0051400Y0083800D01*
X0058200Y0083800D01*
X0058200Y0083200D01*
X0051400Y0083200D01*
X0051400Y0083162D01*
X0051506Y0082493D01*
X0051715Y0081849D01*
X0052022Y0081246D01*
X0052420Y0080699D01*
X0052899Y0080220D01*
X0053446Y0079822D01*
X0052288Y0080881D02*
X0040391Y0080881D01*
X0039967Y0081879D02*
X0051705Y0081879D01*
X0051445Y0082878D02*
X0038969Y0082878D01*
X0036992Y0083876D02*
X0051406Y0083876D01*
X0051625Y0084875D02*
X0006000Y0084875D01*
X0006000Y0085873D02*
X0052109Y0085873D01*
X0053026Y0086872D02*
X0006000Y0086872D01*
X0006000Y0087870D02*
X0107042Y0087870D01*
X0106044Y0086872D02*
X0084009Y0086872D01*
X0083736Y0087145D02*
X0082155Y0087800D01*
X0074845Y0087800D01*
X0073264Y0087145D01*
X0072055Y0085936D01*
X0071400Y0084355D01*
X0071400Y0082645D01*
X0072055Y0081064D01*
X0073264Y0079855D01*
X0074845Y0079200D01*
X0082155Y0079200D01*
X0083736Y0079855D01*
X0084945Y0081064D01*
X0085600Y0082645D01*
X0085600Y0084355D01*
X0084945Y0085936D01*
X0083736Y0087145D01*
X0084971Y0085873D02*
X0105045Y0085873D01*
X0104047Y0084875D02*
X0085385Y0084875D01*
X0085600Y0083876D02*
X0103048Y0083876D01*
X0102050Y0082878D02*
X0085600Y0082878D01*
X0085283Y0081879D02*
X0101051Y0081879D01*
X0100052Y0080881D02*
X0084762Y0080881D01*
X0083764Y0079882D02*
X0099054Y0079882D01*
X0099000Y0077000D02*
X0075000Y0077000D01*
X0072000Y0074000D01*
X0069000Y0074000D01*
X0068500Y0073500D01*
X0073236Y0079882D02*
X0063636Y0079882D01*
X0063554Y0079822D02*
X0064101Y0080220D01*
X0064580Y0080699D01*
X0064978Y0081246D01*
X0065285Y0081849D01*
X0065494Y0082493D01*
X0065600Y0083162D01*
X0065600Y0083200D01*
X0058800Y0083200D01*
X0058800Y0079200D01*
X0061638Y0079200D01*
X0062307Y0079306D01*
X0062951Y0079515D01*
X0063554Y0079822D01*
X0064712Y0080881D02*
X0072238Y0080881D01*
X0071717Y0081879D02*
X0065295Y0081879D01*
X0065555Y0082878D02*
X0071400Y0082878D01*
X0071400Y0083876D02*
X0065594Y0083876D01*
X0065600Y0083838D02*
X0065494Y0084507D01*
X0065285Y0085151D01*
X0064978Y0085754D01*
X0064580Y0086301D01*
X0064101Y0086780D01*
X0063554Y0087178D01*
X0062951Y0087485D01*
X0062307Y0087694D01*
X0061638Y0087800D01*
X0058800Y0087800D01*
X0058800Y0083800D01*
X0065600Y0083800D01*
X0065600Y0083838D01*
X0065375Y0084875D02*
X0071615Y0084875D01*
X0072029Y0085873D02*
X0064891Y0085873D01*
X0063974Y0086872D02*
X0072991Y0086872D01*
X0076504Y0093681D02*
X0077282Y0093428D01*
X0078091Y0093300D01*
X0078114Y0093300D01*
X0078114Y0098114D01*
X0078886Y0098114D01*
X0078886Y0098886D01*
X0083700Y0098886D01*
X0083700Y0098909D01*
X0083572Y0099718D01*
X0083319Y0100496D01*
X0082947Y0101225D01*
X0082466Y0101888D01*
X0081888Y0102466D01*
X0081225Y0102947D01*
X0080496Y0103319D01*
X0079718Y0103572D01*
X0078909Y0103700D01*
X0078886Y0103700D01*
X0078886Y0098886D01*
X0078114Y0098886D01*
X0078114Y0103700D01*
X0078091Y0103700D01*
X0077282Y0103572D01*
X0076504Y0103319D01*
X0075775Y0102947D01*
X0075112Y0102466D01*
X0074534Y0101888D01*
X0074053Y0101225D01*
X0073681Y0100496D01*
X0073428Y0099718D01*
X0073300Y0098909D01*
X0073300Y0098886D01*
X0078114Y0098886D01*
X0078114Y0098114D01*
X0073300Y0098114D01*
X0073300Y0098091D01*
X0073428Y0097282D01*
X0073681Y0096504D01*
X0074053Y0095775D01*
X0074534Y0095112D01*
X0075112Y0094534D01*
X0075775Y0094053D01*
X0076504Y0093681D01*
X0076149Y0093862D02*
X0050890Y0093862D01*
X0051446Y0094092D02*
X0052908Y0095554D01*
X0053700Y0097466D01*
X0053700Y0099534D01*
X0052908Y0101446D01*
X0051446Y0102908D01*
X0049534Y0103700D01*
X0047466Y0103700D01*
X0045554Y0102908D01*
X0044092Y0101446D01*
X0043300Y0099534D01*
X0043300Y0097466D01*
X0044092Y0095554D01*
X0045554Y0094092D01*
X0047466Y0093300D01*
X0049534Y0093300D01*
X0051446Y0094092D01*
X0052214Y0094860D02*
X0074786Y0094860D01*
X0074010Y0095859D02*
X0053034Y0095859D01*
X0053448Y0096857D02*
X0073566Y0096857D01*
X0073337Y0097856D02*
X0053700Y0097856D01*
X0053700Y0098854D02*
X0078114Y0098854D01*
X0078886Y0098854D02*
X0108999Y0098854D01*
X0108800Y0099053D02*
X0111553Y0096300D01*
X0115447Y0096300D01*
X0118200Y0099053D01*
X0118200Y0102947D01*
X0115447Y0105700D01*
X0111553Y0105700D01*
X0111341Y0105488D01*
X0110000Y0106828D01*
X0108828Y0108000D01*
X0076828Y0108000D01*
X0076000Y0108828D01*
X0075600Y0109228D01*
X0075600Y0109355D01*
X0074945Y0110936D01*
X0073736Y0112145D01*
X0072155Y0112800D01*
X0064845Y0112800D01*
X0063264Y0112145D01*
X0062055Y0110936D01*
X0061400Y0109355D01*
X0061400Y0107645D01*
X0062055Y0106064D01*
X0063264Y0104855D01*
X0064845Y0104200D01*
X0072155Y0104200D01*
X0073736Y0104855D01*
X0074026Y0105145D01*
X0075172Y0104000D01*
X0107172Y0104000D01*
X0108800Y0102372D01*
X0108800Y0099053D01*
X0108800Y0099853D02*
X0083528Y0099853D01*
X0083138Y0100851D02*
X0108800Y0100851D01*
X0108800Y0101850D02*
X0082494Y0101850D01*
X0081362Y0102848D02*
X0108323Y0102848D01*
X0107325Y0103847D02*
X0038693Y0103847D01*
X0038662Y0103816D02*
X0039984Y0105138D01*
X0040700Y0106865D01*
X0040700Y0115135D01*
X0039984Y0116862D01*
X0038662Y0118184D01*
X0036935Y0118900D01*
X0035065Y0118900D01*
X0033338Y0118184D01*
X0032016Y0116862D01*
X0031300Y0115135D01*
X0031300Y0106865D01*
X0032016Y0105138D01*
X0033338Y0103816D01*
X0035065Y0103100D01*
X0036935Y0103100D01*
X0038662Y0103816D01*
X0039692Y0104845D02*
X0063287Y0104845D01*
X0062275Y0105844D02*
X0040277Y0105844D01*
X0040691Y0106842D02*
X0061732Y0106842D01*
X0061400Y0107841D02*
X0040700Y0107841D01*
X0040700Y0108839D02*
X0061400Y0108839D01*
X0061600Y0109838D02*
X0040700Y0109838D01*
X0040700Y0110836D02*
X0062013Y0110836D01*
X0062954Y0111835D02*
X0040700Y0111835D01*
X0040700Y0112833D02*
X0108800Y0112833D01*
X0108800Y0112947D02*
X0108800Y0109053D01*
X0111553Y0106300D01*
X0115447Y0106300D01*
X0118200Y0109053D01*
X0118200Y0112372D01*
X0120000Y0114172D01*
X0120000Y0121828D01*
X0118828Y0123000D01*
X0117561Y0124267D01*
X0117800Y0124845D01*
X0117800Y0132155D01*
X0117145Y0133736D01*
X0115936Y0134945D01*
X0114355Y0135600D01*
X0112645Y0135600D01*
X0112350Y0135478D01*
X0106000Y0141828D01*
X0104828Y0143000D01*
X0076828Y0143000D01*
X0076000Y0143828D01*
X0075600Y0144228D01*
X0075600Y0144355D01*
X0074945Y0145936D01*
X0073736Y0147145D01*
X0072155Y0147800D01*
X0064845Y0147800D01*
X0063264Y0147145D01*
X0062055Y0145936D01*
X0061400Y0144355D01*
X0061400Y0142645D01*
X0062055Y0141064D01*
X0063264Y0139855D01*
X0064845Y0139200D01*
X0072155Y0139200D01*
X0073736Y0139855D01*
X0074026Y0140145D01*
X0075172Y0139000D01*
X0103172Y0139000D01*
X0109439Y0132732D01*
X0109200Y0132155D01*
X0109200Y0124845D01*
X0109855Y0123264D01*
X0111064Y0122055D01*
X0112645Y0121400D01*
X0114355Y0121400D01*
X0114650Y0121522D01*
X0116000Y0120172D01*
X0116000Y0115828D01*
X0115659Y0115488D01*
X0115447Y0115700D01*
X0111553Y0115700D01*
X0108800Y0112947D01*
X0108800Y0111835D02*
X0074046Y0111835D01*
X0074987Y0110836D02*
X0108800Y0110836D01*
X0108800Y0109838D02*
X0075400Y0109838D01*
X0075989Y0108839D02*
X0109014Y0108839D01*
X0108988Y0107841D02*
X0110012Y0107841D01*
X0109986Y0106842D02*
X0111011Y0106842D01*
X0110985Y0105844D02*
X0156015Y0105844D01*
X0157014Y0106842D02*
X0135989Y0106842D01*
X0135447Y0106300D02*
X0138200Y0109053D01*
X0138200Y0112947D01*
X0135447Y0115700D01*
X0131553Y0115700D01*
X0128800Y0112947D01*
X0128800Y0109053D01*
X0131553Y0106300D01*
X0135447Y0106300D01*
X0135447Y0105700D02*
X0131553Y0105700D01*
X0128800Y0102947D01*
X0128800Y0099053D01*
X0131553Y0096300D01*
X0135447Y0096300D01*
X0138200Y0099053D01*
X0138200Y0102947D01*
X0135447Y0105700D01*
X0136302Y0104845D02*
X0155017Y0104845D01*
X0154018Y0103847D02*
X0137300Y0103847D01*
X0138200Y0102848D02*
X0153020Y0102848D01*
X0152021Y0101850D02*
X0138200Y0101850D01*
X0138200Y0100851D02*
X0151023Y0100851D01*
X0150024Y0099853D02*
X0138200Y0099853D01*
X0138001Y0098854D02*
X0149026Y0098854D01*
X0148027Y0097856D02*
X0137002Y0097856D01*
X0136004Y0096857D02*
X0147029Y0096857D01*
X0146030Y0095859D02*
X0082990Y0095859D01*
X0082947Y0095775D02*
X0083319Y0096504D01*
X0083572Y0097282D01*
X0083700Y0098091D01*
X0083700Y0098114D01*
X0078886Y0098114D01*
X0078886Y0093300D01*
X0078909Y0093300D01*
X0079718Y0093428D01*
X0080496Y0093681D01*
X0081225Y0094053D01*
X0081888Y0094534D01*
X0082466Y0095112D01*
X0082947Y0095775D01*
X0082214Y0094860D02*
X0110713Y0094860D01*
X0109715Y0093862D02*
X0080851Y0093862D01*
X0078886Y0093862D02*
X0078114Y0093862D01*
X0078114Y0094860D02*
X0078886Y0094860D01*
X0078886Y0095859D02*
X0078114Y0095859D01*
X0078114Y0096857D02*
X0078886Y0096857D01*
X0078886Y0097856D02*
X0078114Y0097856D01*
X0078114Y0099853D02*
X0078886Y0099853D01*
X0078886Y0100851D02*
X0078114Y0100851D01*
X0078114Y0101850D02*
X0078886Y0101850D01*
X0078886Y0102848D02*
X0078114Y0102848D01*
X0075638Y0102848D02*
X0051506Y0102848D01*
X0052504Y0101850D02*
X0074506Y0101850D01*
X0073862Y0100851D02*
X0053155Y0100851D01*
X0053568Y0099853D02*
X0073472Y0099853D01*
X0073713Y0104845D02*
X0074326Y0104845D01*
X0076000Y0106000D02*
X0074000Y0108000D01*
X0069000Y0108000D01*
X0068500Y0108500D01*
X0076000Y0106000D02*
X0108000Y0106000D01*
X0113000Y0101000D01*
X0113500Y0101000D01*
X0117002Y0097856D02*
X0119998Y0097856D01*
X0118999Y0098854D02*
X0118001Y0098854D01*
X0118800Y0099053D02*
X0121553Y0096300D01*
X0125447Y0096300D01*
X0128200Y0099053D01*
X0128200Y0102947D01*
X0125447Y0105700D01*
X0121553Y0105700D01*
X0118800Y0102947D01*
X0118800Y0099053D01*
X0118800Y0099853D02*
X0118200Y0099853D01*
X0118200Y0100851D02*
X0118800Y0100851D01*
X0118800Y0101850D02*
X0118200Y0101850D01*
X0118200Y0102848D02*
X0118800Y0102848D01*
X0119700Y0103847D02*
X0117300Y0103847D01*
X0116302Y0104845D02*
X0120698Y0104845D01*
X0121553Y0106300D02*
X0125447Y0106300D01*
X0128200Y0109053D01*
X0128200Y0112372D01*
X0128828Y0113000D01*
X0130000Y0114172D01*
X0130000Y0123119D01*
X0131064Y0122055D01*
X0132645Y0121400D01*
X0134355Y0121400D01*
X0135936Y0122055D01*
X0137145Y0123264D01*
X0137800Y0124845D01*
X0137800Y0132155D01*
X0137145Y0133736D01*
X0135936Y0134945D01*
X0134355Y0135600D01*
X0132645Y0135600D01*
X0132483Y0135533D01*
X0132967Y0136017D01*
X0133500Y0137304D01*
X0133500Y0138696D01*
X0132967Y0139983D01*
X0131983Y0140967D01*
X0130696Y0141500D01*
X0129304Y0141500D01*
X0128017Y0140967D01*
X0127033Y0139983D01*
X0126500Y0138696D01*
X0126500Y0137328D01*
X0125000Y0135828D01*
X0125000Y0135333D01*
X0124355Y0135600D01*
X0122645Y0135600D01*
X0121064Y0134945D01*
X0119855Y0133736D01*
X0119200Y0132155D01*
X0119200Y0124845D01*
X0119855Y0123264D01*
X0121064Y0122055D01*
X0122645Y0121400D01*
X0124355Y0121400D01*
X0125936Y0122055D01*
X0126000Y0122119D01*
X0126000Y0115828D01*
X0125659Y0115488D01*
X0125447Y0115700D01*
X0121553Y0115700D01*
X0118800Y0112947D01*
X0118800Y0109053D01*
X0121553Y0106300D01*
X0121011Y0106842D02*
X0115989Y0106842D01*
X0116987Y0107841D02*
X0120012Y0107841D01*
X0119014Y0108839D02*
X0117986Y0108839D01*
X0118200Y0109838D02*
X0118800Y0109838D01*
X0118800Y0110836D02*
X0118200Y0110836D01*
X0118200Y0111835D02*
X0118800Y0111835D01*
X0118800Y0112833D02*
X0118662Y0112833D01*
X0119660Y0113832D02*
X0119685Y0113832D01*
X0120000Y0114830D02*
X0120684Y0114830D01*
X0120000Y0115829D02*
X0126000Y0115829D01*
X0126000Y0116827D02*
X0120000Y0116827D01*
X0120000Y0117826D02*
X0126000Y0117826D01*
X0126000Y0118824D02*
X0120000Y0118824D01*
X0120000Y0119823D02*
X0126000Y0119823D01*
X0126000Y0120821D02*
X0120000Y0120821D01*
X0120000Y0121820D02*
X0121631Y0121820D01*
X0120300Y0122818D02*
X0119010Y0122818D01*
X0119626Y0123817D02*
X0118012Y0123817D01*
X0117788Y0124815D02*
X0119212Y0124815D01*
X0119200Y0125814D02*
X0117800Y0125814D01*
X0117800Y0126812D02*
X0119200Y0126812D01*
X0119200Y0127811D02*
X0117800Y0127811D01*
X0117800Y0128809D02*
X0119200Y0128809D01*
X0119200Y0129808D02*
X0117800Y0129808D01*
X0117800Y0130806D02*
X0119200Y0130806D01*
X0119200Y0131805D02*
X0117800Y0131805D01*
X0117532Y0132803D02*
X0119468Y0132803D01*
X0119921Y0133802D02*
X0117079Y0133802D01*
X0116081Y0134801D02*
X0120919Y0134801D01*
X0125000Y0135799D02*
X0112029Y0135799D01*
X0111031Y0136798D02*
X0125969Y0136798D01*
X0126500Y0137796D02*
X0110032Y0137796D01*
X0109034Y0138795D02*
X0126541Y0138795D01*
X0126954Y0139793D02*
X0108035Y0139793D01*
X0107037Y0140792D02*
X0127842Y0140792D01*
X0130000Y0138000D02*
X0127000Y0135000D01*
X0127000Y0134000D01*
X0128000Y0133000D01*
X0128000Y0115000D01*
X0124000Y0111000D01*
X0123500Y0111000D01*
X0128200Y0110836D02*
X0128800Y0110836D01*
X0128800Y0109838D02*
X0128200Y0109838D01*
X0127986Y0108839D02*
X0129014Y0108839D01*
X0130012Y0107841D02*
X0126987Y0107841D01*
X0125989Y0106842D02*
X0131011Y0106842D01*
X0130698Y0104845D02*
X0126302Y0104845D01*
X0127300Y0103847D02*
X0129700Y0103847D01*
X0128800Y0102848D02*
X0128200Y0102848D01*
X0128200Y0101850D02*
X0128800Y0101850D01*
X0128800Y0100851D02*
X0128200Y0100851D01*
X0128200Y0099853D02*
X0128800Y0099853D01*
X0128999Y0098854D02*
X0128001Y0098854D01*
X0127002Y0097856D02*
X0129998Y0097856D01*
X0130996Y0096857D02*
X0126004Y0096857D01*
X0125447Y0095700D02*
X0121553Y0095700D01*
X0118800Y0092947D01*
X0118800Y0089053D01*
X0121553Y0086300D01*
X0125447Y0086300D01*
X0128200Y0089053D01*
X0128200Y0092947D01*
X0125447Y0095700D01*
X0126287Y0094860D02*
X0130713Y0094860D01*
X0131553Y0095700D02*
X0128800Y0092947D01*
X0128800Y0089053D01*
X0131553Y0086300D01*
X0135447Y0086300D01*
X0138200Y0089053D01*
X0138200Y0092947D01*
X0135447Y0095700D01*
X0131553Y0095700D01*
X0129715Y0093862D02*
X0127285Y0093862D01*
X0128200Y0092863D02*
X0128800Y0092863D01*
X0128800Y0091865D02*
X0128200Y0091865D01*
X0128200Y0090866D02*
X0128800Y0090866D01*
X0128800Y0089868D02*
X0128200Y0089868D01*
X0128016Y0088869D02*
X0128984Y0088869D01*
X0129983Y0087870D02*
X0127017Y0087870D01*
X0126019Y0086872D02*
X0130981Y0086872D01*
X0131553Y0085700D02*
X0128800Y0082947D01*
X0128800Y0079053D01*
X0131553Y0076300D01*
X0135447Y0076300D01*
X0138200Y0079053D01*
X0138200Y0082372D01*
X0156685Y0100857D01*
X0157033Y0100017D01*
X0158017Y0099033D01*
X0159304Y0098500D01*
X0160696Y0098500D01*
X0161983Y0099033D01*
X0162967Y0100017D01*
X0163500Y0101304D01*
X0163500Y0102696D01*
X0162967Y0103983D01*
X0162889Y0104061D01*
X0164000Y0105172D01*
X0164000Y0147828D01*
X0157561Y0154267D01*
X0157800Y0154845D01*
X0157800Y0162155D01*
X0157145Y0163736D01*
X0155936Y0164945D01*
X0154355Y0165600D01*
X0152645Y0165600D01*
X0151064Y0164945D01*
X0149855Y0163736D01*
X0149200Y0162155D01*
X0149200Y0154845D01*
X0149855Y0153264D01*
X0151064Y0152055D01*
X0152645Y0151400D01*
X0154355Y0151400D01*
X0154650Y0151522D01*
X0160000Y0146172D01*
X0160000Y0136828D01*
X0147000Y0149828D01*
X0145828Y0151000D01*
X0110828Y0151000D01*
X0107561Y0154267D01*
X0107800Y0154845D01*
X0107800Y0162155D01*
X0107145Y0163736D01*
X0105936Y0164945D01*
X0104355Y0165600D01*
X0102645Y0165600D01*
X0101064Y0164945D01*
X0099855Y0163736D01*
X0099200Y0162155D01*
X0099200Y0154845D01*
X0099855Y0153264D01*
X0101064Y0152055D01*
X0102645Y0151400D01*
X0104355Y0151400D01*
X0104650Y0151522D01*
X0109172Y0147000D01*
X0144172Y0147000D01*
X0158000Y0133172D01*
X0158000Y0107828D01*
X0135659Y0085488D01*
X0135447Y0085700D01*
X0131553Y0085700D01*
X0130728Y0084875D02*
X0126272Y0084875D01*
X0125447Y0085700D02*
X0121553Y0085700D01*
X0118800Y0082947D01*
X0118800Y0079053D01*
X0121553Y0076300D01*
X0125447Y0076300D01*
X0128200Y0079053D01*
X0128200Y0082947D01*
X0125447Y0085700D01*
X0127270Y0083876D02*
X0129730Y0083876D01*
X0128800Y0082878D02*
X0128200Y0082878D01*
X0128200Y0081879D02*
X0128800Y0081879D01*
X0128800Y0080881D02*
X0128200Y0080881D01*
X0128200Y0079882D02*
X0128800Y0079882D01*
X0128969Y0078884D02*
X0128031Y0078884D01*
X0127032Y0077885D02*
X0129968Y0077885D01*
X0130966Y0076887D02*
X0126034Y0076887D01*
X0120966Y0076887D02*
X0116034Y0076887D01*
X0117032Y0077885D02*
X0119968Y0077885D01*
X0118969Y0078884D02*
X0118031Y0078884D01*
X0118200Y0079882D02*
X0118800Y0079882D01*
X0118800Y0080881D02*
X0118200Y0080881D01*
X0118200Y0081879D02*
X0118800Y0081879D01*
X0118800Y0082878D02*
X0118200Y0082878D01*
X0117270Y0083876D02*
X0119730Y0083876D01*
X0120728Y0084875D02*
X0116272Y0084875D01*
X0116019Y0086872D02*
X0120981Y0086872D01*
X0119983Y0087870D02*
X0117017Y0087870D01*
X0118016Y0088869D02*
X0118984Y0088869D01*
X0118800Y0089868D02*
X0118200Y0089868D01*
X0118200Y0090866D02*
X0118800Y0090866D01*
X0118800Y0091865D02*
X0118200Y0091865D01*
X0118200Y0092863D02*
X0118800Y0092863D01*
X0119715Y0093862D02*
X0117285Y0093862D01*
X0116287Y0094860D02*
X0120713Y0094860D01*
X0120996Y0096857D02*
X0116004Y0096857D01*
X0110996Y0096857D02*
X0083434Y0096857D01*
X0083663Y0097856D02*
X0109998Y0097856D01*
X0108800Y0092863D02*
X0006000Y0092863D01*
X0006000Y0091865D02*
X0108800Y0091865D01*
X0108800Y0090866D02*
X0006000Y0090866D01*
X0006000Y0089868D02*
X0108800Y0089868D01*
X0108041Y0088869D02*
X0006000Y0088869D01*
X0006000Y0083876D02*
X0015008Y0083876D01*
X0015065Y0083900D02*
X0013338Y0083184D01*
X0012016Y0081862D01*
X0011300Y0080135D01*
X0011300Y0071865D01*
X0012016Y0070138D01*
X0013338Y0068816D01*
X0015065Y0068100D01*
X0016935Y0068100D01*
X0018662Y0068816D01*
X0019984Y0070138D01*
X0020700Y0071865D01*
X0020700Y0080135D01*
X0019984Y0081862D01*
X0018662Y0083184D01*
X0016935Y0083900D01*
X0015065Y0083900D01*
X0016992Y0083876D02*
X0025008Y0083876D01*
X0025065Y0083900D02*
X0023338Y0083184D01*
X0022016Y0081862D01*
X0021300Y0080135D01*
X0021300Y0071865D01*
X0022016Y0070138D01*
X0023338Y0068816D01*
X0025065Y0068100D01*
X0026935Y0068100D01*
X0028662Y0068816D01*
X0029984Y0070138D01*
X0030700Y0071865D01*
X0030700Y0080135D01*
X0029984Y0081862D01*
X0028662Y0083184D01*
X0026935Y0083900D01*
X0025065Y0083900D01*
X0026992Y0083876D02*
X0035008Y0083876D01*
X0033031Y0082878D02*
X0028969Y0082878D01*
X0029967Y0081879D02*
X0032033Y0081879D01*
X0031609Y0080881D02*
X0030391Y0080881D01*
X0030700Y0079882D02*
X0031300Y0079882D01*
X0031300Y0078884D02*
X0030700Y0078884D01*
X0030700Y0077885D02*
X0031300Y0077885D01*
X0031300Y0076887D02*
X0030700Y0076887D01*
X0030700Y0075888D02*
X0031300Y0075888D01*
X0031300Y0074890D02*
X0030700Y0074890D01*
X0030700Y0073891D02*
X0031300Y0073891D01*
X0031300Y0072893D02*
X0030700Y0072893D01*
X0030700Y0071894D02*
X0031300Y0071894D01*
X0031701Y0070896D02*
X0030298Y0070896D01*
X0029744Y0069897D02*
X0032256Y0069897D01*
X0033254Y0068899D02*
X0028746Y0068899D01*
X0023254Y0068899D02*
X0018746Y0068899D01*
X0019744Y0069897D02*
X0022256Y0069897D01*
X0021701Y0070896D02*
X0020298Y0070896D01*
X0020700Y0071894D02*
X0021300Y0071894D01*
X0021300Y0072893D02*
X0020700Y0072893D01*
X0020700Y0073891D02*
X0021300Y0073891D01*
X0021300Y0074890D02*
X0020700Y0074890D01*
X0020700Y0075888D02*
X0021300Y0075888D01*
X0021300Y0076887D02*
X0020700Y0076887D01*
X0020700Y0077885D02*
X0021300Y0077885D01*
X0021300Y0078884D02*
X0020700Y0078884D01*
X0020700Y0079882D02*
X0021300Y0079882D01*
X0021609Y0080881D02*
X0020391Y0080881D01*
X0019967Y0081879D02*
X0022033Y0081879D01*
X0023031Y0082878D02*
X0018969Y0082878D01*
X0013031Y0082878D02*
X0006000Y0082878D01*
X0006000Y0081879D02*
X0012033Y0081879D01*
X0011609Y0080881D02*
X0006000Y0080881D01*
X0006000Y0079882D02*
X0011300Y0079882D01*
X0011300Y0078884D02*
X0006000Y0078884D01*
X0006000Y0077885D02*
X0011300Y0077885D01*
X0011300Y0076887D02*
X0006000Y0076887D01*
X0006000Y0075888D02*
X0011300Y0075888D01*
X0011300Y0074890D02*
X0006000Y0074890D01*
X0006000Y0073891D02*
X0011300Y0073891D01*
X0011300Y0072893D02*
X0006000Y0072893D01*
X0006000Y0071894D02*
X0011300Y0071894D01*
X0011701Y0070896D02*
X0006000Y0070896D01*
X0006000Y0069897D02*
X0012256Y0069897D01*
X0013254Y0068899D02*
X0006000Y0068899D01*
X0006000Y0067900D02*
X0045546Y0067900D01*
X0045554Y0067908D02*
X0044092Y0066446D01*
X0043300Y0064534D01*
X0043300Y0062466D01*
X0044092Y0060554D01*
X0045554Y0059092D01*
X0047466Y0058300D01*
X0049534Y0058300D01*
X0051446Y0059092D01*
X0052908Y0060554D01*
X0053700Y0062466D01*
X0053700Y0064534D01*
X0052908Y0066446D01*
X0051446Y0067908D01*
X0049534Y0068700D01*
X0047466Y0068700D01*
X0045554Y0067908D01*
X0044548Y0066902D02*
X0006000Y0066902D01*
X0006000Y0065903D02*
X0043867Y0065903D01*
X0043453Y0064905D02*
X0006000Y0064905D01*
X0006000Y0063906D02*
X0043300Y0063906D01*
X0043300Y0062908D02*
X0006000Y0062908D01*
X0006000Y0061909D02*
X0043530Y0061909D01*
X0043944Y0060911D02*
X0006000Y0060911D01*
X0006000Y0059912D02*
X0044734Y0059912D01*
X0045984Y0058914D02*
X0006000Y0058914D01*
X0006000Y0057915D02*
X0081087Y0057915D01*
X0080496Y0058681D02*
X0081225Y0059053D01*
X0081888Y0059534D01*
X0082466Y0060112D01*
X0082947Y0060775D01*
X0083319Y0061504D01*
X0083572Y0062282D01*
X0083700Y0063091D01*
X0083700Y0063114D01*
X0078886Y0063114D01*
X0078886Y0063886D01*
X0083700Y0063886D01*
X0083700Y0063909D01*
X0083572Y0064718D01*
X0083319Y0065496D01*
X0082947Y0066225D01*
X0082466Y0066888D01*
X0081888Y0067466D01*
X0081225Y0067947D01*
X0080496Y0068319D01*
X0079718Y0068572D01*
X0078909Y0068700D01*
X0078886Y0068700D01*
X0078886Y0063886D01*
X0078114Y0063886D01*
X0078114Y0068700D01*
X0078091Y0068700D01*
X0077282Y0068572D01*
X0076504Y0068319D01*
X0075775Y0067947D01*
X0075112Y0067466D01*
X0074534Y0066888D01*
X0074053Y0066225D01*
X0073681Y0065496D01*
X0073428Y0064718D01*
X0073300Y0063909D01*
X0073300Y0063886D01*
X0078114Y0063886D01*
X0078114Y0063114D01*
X0078886Y0063114D01*
X0078886Y0058300D01*
X0078909Y0058300D01*
X0079718Y0058428D01*
X0080496Y0058681D01*
X0080953Y0058914D02*
X0082085Y0058914D01*
X0082266Y0059912D02*
X0083084Y0059912D01*
X0083017Y0060911D02*
X0084082Y0060911D01*
X0083451Y0061909D02*
X0085081Y0061909D01*
X0086079Y0062908D02*
X0083671Y0062908D01*
X0083700Y0063906D02*
X0087078Y0063906D01*
X0088076Y0064905D02*
X0083511Y0064905D01*
X0083112Y0065903D02*
X0089075Y0065903D01*
X0090073Y0066902D02*
X0082452Y0066902D01*
X0081290Y0067900D02*
X0091072Y0067900D01*
X0092000Y0066000D02*
X0081000Y0055000D01*
X0073000Y0055000D01*
X0069000Y0051000D01*
X0069000Y0039000D01*
X0068500Y0038500D01*
X0067000Y0042937D02*
X0040700Y0042937D01*
X0040700Y0041939D02*
X0063058Y0041939D01*
X0062059Y0040940D02*
X0040700Y0040940D01*
X0040700Y0039942D02*
X0061643Y0039942D01*
X0061400Y0038943D02*
X0040700Y0038943D01*
X0040700Y0037945D02*
X0061400Y0037945D01*
X0061689Y0036946D02*
X0040700Y0036946D01*
X0040700Y0036865D02*
X0040700Y0045135D01*
X0039984Y0046862D01*
X0038662Y0048184D01*
X0036935Y0048900D01*
X0035065Y0048900D01*
X0033338Y0048184D01*
X0032016Y0046862D01*
X0031300Y0045135D01*
X0031300Y0036865D01*
X0032016Y0035138D01*
X0033338Y0033816D01*
X0035065Y0033100D01*
X0036935Y0033100D01*
X0038662Y0033816D01*
X0039984Y0035138D01*
X0040700Y0036865D01*
X0040320Y0035948D02*
X0062171Y0035948D01*
X0063169Y0034949D02*
X0039796Y0034949D01*
X0038798Y0033951D02*
X0091028Y0033951D01*
X0090800Y0034949D02*
X0073830Y0034949D01*
X0074829Y0035948D02*
X0090800Y0035948D01*
X0090800Y0036946D02*
X0075311Y0036946D01*
X0075600Y0037945D02*
X0090800Y0037945D01*
X0090800Y0038943D02*
X0075600Y0038943D01*
X0075357Y0039942D02*
X0090800Y0039942D01*
X0090800Y0040940D02*
X0074941Y0040940D01*
X0073942Y0041939D02*
X0090800Y0041939D01*
X0090916Y0042937D02*
X0071000Y0042937D01*
X0071000Y0043936D02*
X0093503Y0043936D01*
X0092212Y0044934D02*
X0083816Y0044934D01*
X0083736Y0044855D02*
X0084945Y0046064D01*
X0085600Y0047645D01*
X0085600Y0049355D01*
X0084945Y0050936D01*
X0083736Y0052145D01*
X0082155Y0052800D01*
X0074845Y0052800D01*
X0073264Y0052145D01*
X0072055Y0050936D01*
X0071400Y0049355D01*
X0071400Y0047645D01*
X0072055Y0046064D01*
X0073264Y0044855D01*
X0074845Y0044200D01*
X0082155Y0044200D01*
X0083736Y0044855D01*
X0084814Y0045933D02*
X0091472Y0045933D01*
X0091042Y0046932D02*
X0085305Y0046932D01*
X0085600Y0047930D02*
X0090825Y0047930D01*
X0090996Y0049927D02*
X0085363Y0049927D01*
X0085600Y0048929D02*
X0095516Y0048929D01*
X0096484Y0048929D02*
X0109624Y0048929D01*
X0114130Y0059912D02*
X0125957Y0059912D01*
X0126370Y0060911D02*
X0114990Y0060911D01*
X0115478Y0061909D02*
X0127055Y0061909D01*
X0128054Y0062908D02*
X0129966Y0063700D01*
X0132034Y0063700D01*
X0133946Y0062908D01*
X0134945Y0061909D02*
X0141522Y0061909D01*
X0142010Y0060911D02*
X0135630Y0060911D01*
X0136043Y0059912D02*
X0142870Y0059912D01*
X0141462Y0064905D02*
X0115538Y0064905D01*
X0115107Y0065903D02*
X0141893Y0065903D01*
X0142684Y0066902D02*
X0114316Y0066902D01*
X0104726Y0069897D02*
X0226000Y0069897D01*
X0226000Y0068899D02*
X0103727Y0068899D01*
X0098000Y0066000D02*
X0092000Y0066000D01*
X0091736Y0062908D02*
X0093054Y0062908D01*
X0094966Y0063700D01*
X0097034Y0063700D01*
X0098946Y0062908D01*
X0098000Y0066000D02*
X0113000Y0081000D01*
X0113500Y0081000D01*
X0108800Y0080881D02*
X0105709Y0080881D01*
X0104711Y0079882D02*
X0108800Y0079882D01*
X0108800Y0081879D02*
X0106708Y0081879D01*
X0107706Y0082878D02*
X0108800Y0082878D01*
X0108705Y0083876D02*
X0109730Y0083876D01*
X0109703Y0084875D02*
X0110728Y0084875D01*
X0110702Y0085873D02*
X0136045Y0085873D01*
X0136019Y0086872D02*
X0137044Y0086872D01*
X0137017Y0087870D02*
X0138042Y0087870D01*
X0138016Y0088869D02*
X0139041Y0088869D01*
X0138200Y0089868D02*
X0140039Y0089868D01*
X0141038Y0090866D02*
X0138200Y0090866D01*
X0138200Y0091865D02*
X0142036Y0091865D01*
X0143035Y0092863D02*
X0138200Y0092863D01*
X0137285Y0093862D02*
X0144033Y0093862D01*
X0145032Y0094860D02*
X0136287Y0094860D01*
X0143699Y0087870D02*
X0168646Y0087870D01*
X0168300Y0087034D02*
X0169092Y0088946D01*
X0170554Y0090408D01*
X0172017Y0091014D01*
X0171504Y0091181D01*
X0170775Y0091553D01*
X0170112Y0092034D01*
X0169534Y0092612D01*
X0169053Y0093275D01*
X0168681Y0094004D01*
X0168428Y0094782D01*
X0168314Y0095500D01*
X0173000Y0095500D01*
X0173000Y0096500D01*
X0168314Y0096500D01*
X0168428Y0097218D01*
X0168681Y0097996D01*
X0169053Y0098725D01*
X0169534Y0099388D01*
X0170112Y0099966D01*
X0170775Y0100447D01*
X0171504Y0100819D01*
X0172017Y0100986D01*
X0170554Y0101592D01*
X0169092Y0103054D01*
X0168300Y0104966D01*
X0168300Y0107034D01*
X0169092Y0108946D01*
X0170554Y0110408D01*
X0172017Y0111014D01*
X0171504Y0111181D01*
X0170775Y0111553D01*
X0170112Y0112034D01*
X0169534Y0112612D01*
X0169053Y0113275D01*
X0168681Y0114004D01*
X0168428Y0114782D01*
X0168314Y0115500D01*
X0173000Y0115500D01*
X0173000Y0116500D01*
X0168314Y0116500D01*
X0168428Y0117218D01*
X0168681Y0117996D01*
X0169053Y0118725D01*
X0169534Y0119388D01*
X0170112Y0119966D01*
X0170775Y0120447D01*
X0171504Y0120819D01*
X0172017Y0120986D01*
X0170554Y0121592D01*
X0169092Y0123054D01*
X0168300Y0124966D01*
X0168300Y0127034D01*
X0169092Y0128946D01*
X0170554Y0130408D01*
X0172017Y0131014D01*
X0171504Y0131181D01*
X0170775Y0131553D01*
X0170112Y0132034D01*
X0169534Y0132612D01*
X0169053Y0133275D01*
X0168681Y0134004D01*
X0168428Y0134782D01*
X0168314Y0135500D01*
X0173000Y0135500D01*
X0173000Y0136500D01*
X0168314Y0136500D01*
X0168428Y0137218D01*
X0168681Y0137996D01*
X0169053Y0138725D01*
X0169534Y0139388D01*
X0170112Y0139966D01*
X0170775Y0140447D01*
X0171504Y0140819D01*
X0172017Y0140986D01*
X0170554Y0141592D01*
X0169092Y0143054D01*
X0168300Y0144966D01*
X0168300Y0147034D01*
X0169092Y0148946D01*
X0170554Y0150408D01*
X0172017Y0151014D01*
X0171504Y0151181D01*
X0170775Y0151553D01*
X0170112Y0152034D01*
X0169534Y0152612D01*
X0169053Y0153275D01*
X0168681Y0154004D01*
X0168428Y0154782D01*
X0168314Y0155500D01*
X0173000Y0155500D01*
X0173000Y0156500D01*
X0173000Y0161186D01*
X0172282Y0161072D01*
X0171504Y0160819D01*
X0170775Y0160447D01*
X0170112Y0159966D01*
X0169534Y0159388D01*
X0169053Y0158725D01*
X0168681Y0157996D01*
X0168428Y0157218D01*
X0168314Y0156500D01*
X0173000Y0156500D01*
X0174000Y0156500D01*
X0174000Y0161186D01*
X0174718Y0161072D01*
X0175496Y0160819D01*
X0176225Y0160447D01*
X0176888Y0159966D01*
X0177466Y0159388D01*
X0177947Y0158725D01*
X0178319Y0157996D01*
X0178572Y0157218D01*
X0178686Y0156500D01*
X0174000Y0156500D01*
X0174000Y0155500D01*
X0178686Y0155500D01*
X0178572Y0154782D01*
X0178319Y0154004D01*
X0177947Y0153275D01*
X0177466Y0152612D01*
X0176888Y0152034D01*
X0176225Y0151553D01*
X0175496Y0151181D01*
X0174983Y0151014D01*
X0176446Y0150408D01*
X0177908Y0148946D01*
X0178700Y0147034D01*
X0178700Y0144966D01*
X0177908Y0143054D01*
X0176446Y0141592D01*
X0174983Y0140986D01*
X0175496Y0140819D01*
X0176225Y0140447D01*
X0176888Y0139966D01*
X0177466Y0139388D01*
X0177947Y0138725D01*
X0178319Y0137996D01*
X0178572Y0137218D01*
X0178686Y0136500D01*
X0174000Y0136500D01*
X0174000Y0135500D01*
X0178686Y0135500D01*
X0178572Y0134782D01*
X0178319Y0134004D01*
X0177947Y0133275D01*
X0177466Y0132612D01*
X0176888Y0132034D01*
X0176225Y0131553D01*
X0175496Y0131181D01*
X0174983Y0131014D01*
X0176446Y0130408D01*
X0177908Y0128946D01*
X0178700Y0127034D01*
X0178700Y0124966D01*
X0177908Y0123054D01*
X0176446Y0121592D01*
X0174983Y0120986D01*
X0175496Y0120819D01*
X0176225Y0120447D01*
X0176888Y0119966D01*
X0177466Y0119388D01*
X0177947Y0118725D01*
X0178319Y0117996D01*
X0178572Y0117218D01*
X0178686Y0116500D01*
X0174000Y0116500D01*
X0174000Y0115500D01*
X0178686Y0115500D01*
X0178572Y0114782D01*
X0178319Y0114004D01*
X0177947Y0113275D01*
X0177466Y0112612D01*
X0176888Y0112034D01*
X0176225Y0111553D01*
X0175496Y0111181D01*
X0174983Y0111014D01*
X0176446Y0110408D01*
X0177908Y0108946D01*
X0178700Y0107034D01*
X0178700Y0104966D01*
X0177908Y0103054D01*
X0176446Y0101592D01*
X0174983Y0100986D01*
X0175496Y0100819D01*
X0176225Y0100447D01*
X0176888Y0099966D01*
X0177466Y0099388D01*
X0177947Y0098725D01*
X0178319Y0097996D01*
X0178572Y0097218D01*
X0178686Y0096500D01*
X0174000Y0096500D01*
X0174000Y0095500D01*
X0178686Y0095500D01*
X0178572Y0094782D01*
X0178319Y0094004D01*
X0177947Y0093275D01*
X0177466Y0092612D01*
X0176888Y0092034D01*
X0176225Y0091553D01*
X0175496Y0091181D01*
X0174983Y0091014D01*
X0176446Y0090408D01*
X0177908Y0088946D01*
X0178700Y0087034D01*
X0178700Y0084966D01*
X0177908Y0083054D01*
X0176446Y0081592D01*
X0174534Y0080800D01*
X0172466Y0080800D01*
X0170554Y0081592D01*
X0169092Y0083054D01*
X0168300Y0084966D01*
X0168300Y0087034D01*
X0168300Y0086872D02*
X0142700Y0086872D01*
X0141702Y0085873D02*
X0168300Y0085873D01*
X0168338Y0084875D02*
X0140703Y0084875D01*
X0139705Y0083876D02*
X0168751Y0083876D01*
X0169268Y0082878D02*
X0138706Y0082878D01*
X0138200Y0081879D02*
X0170267Y0081879D01*
X0172270Y0080881D02*
X0138200Y0080881D01*
X0138200Y0079882D02*
X0226000Y0079882D01*
X0226000Y0078884D02*
X0138031Y0078884D01*
X0137032Y0077885D02*
X0226000Y0077885D01*
X0226000Y0076887D02*
X0136034Y0076887D01*
X0134000Y0081000D02*
X0133500Y0081000D01*
X0134000Y0081000D02*
X0160000Y0107000D01*
X0160000Y0134000D01*
X0145000Y0149000D01*
X0110000Y0149000D01*
X0104000Y0155000D01*
X0104000Y0158000D01*
X0103500Y0158500D01*
X0099200Y0158765D02*
X0097800Y0158765D01*
X0097800Y0159763D02*
X0099200Y0159763D01*
X0099200Y0160762D02*
X0097800Y0160762D01*
X0097800Y0161760D02*
X0099200Y0161760D01*
X0099450Y0162759D02*
X0097550Y0162759D01*
X0097800Y0162155D02*
X0097145Y0163736D01*
X0095936Y0164945D01*
X0094355Y0165600D01*
X0092645Y0165600D01*
X0091064Y0164945D01*
X0089855Y0163736D01*
X0089200Y0162155D01*
X0089200Y0154845D01*
X0089855Y0153264D01*
X0091064Y0152055D01*
X0092645Y0151400D01*
X0094355Y0151400D01*
X0095936Y0152055D01*
X0097145Y0153264D01*
X0097800Y0154845D01*
X0097800Y0162155D01*
X0097124Y0163757D02*
X0099876Y0163757D01*
X0100875Y0164756D02*
X0096125Y0164756D01*
X0090875Y0164756D02*
X0006000Y0164756D01*
X0006000Y0165754D02*
X0226000Y0165754D01*
X0226000Y0164756D02*
X0156125Y0164756D01*
X0157124Y0163757D02*
X0226000Y0163757D01*
X0226000Y0162759D02*
X0157550Y0162759D01*
X0157800Y0161760D02*
X0226000Y0161760D01*
X0226000Y0160762D02*
X0175608Y0160762D01*
X0174000Y0160762D02*
X0173000Y0160762D01*
X0173000Y0159763D02*
X0174000Y0159763D01*
X0174000Y0158765D02*
X0173000Y0158765D01*
X0173000Y0157766D02*
X0174000Y0157766D01*
X0174000Y0156768D02*
X0173000Y0156768D01*
X0173000Y0155769D02*
X0157800Y0155769D01*
X0157769Y0154771D02*
X0168432Y0154771D01*
X0168799Y0153772D02*
X0158056Y0153772D01*
X0159055Y0152774D02*
X0169416Y0152774D01*
X0170468Y0151775D02*
X0160053Y0151775D01*
X0161052Y0150777D02*
X0171444Y0150777D01*
X0169924Y0149778D02*
X0162050Y0149778D01*
X0163049Y0148780D02*
X0169023Y0148780D01*
X0168609Y0147781D02*
X0164000Y0147781D01*
X0164000Y0146783D02*
X0168300Y0146783D01*
X0168300Y0145784D02*
X0164000Y0145784D01*
X0164000Y0144786D02*
X0168375Y0144786D01*
X0168788Y0143787D02*
X0164000Y0143787D01*
X0164000Y0142789D02*
X0169357Y0142789D01*
X0170356Y0141790D02*
X0164000Y0141790D01*
X0164000Y0140792D02*
X0171450Y0140792D01*
X0169939Y0139793D02*
X0164000Y0139793D01*
X0164000Y0138795D02*
X0169103Y0138795D01*
X0168616Y0137796D02*
X0164000Y0137796D01*
X0164000Y0136798D02*
X0168362Y0136798D01*
X0168425Y0134801D02*
X0164000Y0134801D01*
X0164000Y0135799D02*
X0173000Y0135799D01*
X0174000Y0135799D02*
X0195625Y0135799D01*
X0195625Y0135625D02*
X0191250Y0135625D01*
X0191367Y0134888D01*
X0191598Y0134177D01*
X0191937Y0133510D01*
X0192377Y0132906D01*
X0192906Y0132377D01*
X0193510Y0131937D01*
X0194177Y0131598D01*
X0194888Y0131367D01*
X0195625Y0131250D01*
X0195625Y0135625D01*
X0196375Y0135625D01*
X0196375Y0136375D01*
X0200750Y0136375D01*
X0200633Y0137112D01*
X0200402Y0137823D01*
X0200063Y0138490D01*
X0199623Y0139094D01*
X0199094Y0139623D01*
X0198490Y0140063D01*
X0197823Y0140402D01*
X0197112Y0140633D01*
X0196375Y0140750D01*
X0196375Y0136375D01*
X0195625Y0136375D01*
X0195625Y0140750D01*
X0194888Y0140633D01*
X0194177Y0140402D01*
X0193510Y0140063D01*
X0192906Y0139623D01*
X0192377Y0139094D01*
X0191937Y0138490D01*
X0191598Y0137823D01*
X0191367Y0137112D01*
X0191250Y0136375D01*
X0195625Y0136375D01*
X0195625Y0135625D01*
X0196375Y0135625D02*
X0196375Y0131250D01*
X0197112Y0131367D01*
X0197823Y0131598D01*
X0198490Y0131937D01*
X0199094Y0132377D01*
X0199623Y0132906D01*
X0200063Y0133510D01*
X0200402Y0134177D01*
X0200633Y0134888D01*
X0200750Y0135625D01*
X0196375Y0135625D01*
X0196375Y0135799D02*
X0226000Y0135799D01*
X0226000Y0134801D02*
X0200605Y0134801D01*
X0200211Y0133802D02*
X0226000Y0133802D01*
X0226000Y0132803D02*
X0199521Y0132803D01*
X0198230Y0131805D02*
X0226000Y0131805D01*
X0226000Y0130806D02*
X0175484Y0130806D01*
X0176573Y0131805D02*
X0193770Y0131805D01*
X0192479Y0132803D02*
X0177605Y0132803D01*
X0178216Y0133802D02*
X0191789Y0133802D01*
X0191395Y0134801D02*
X0178575Y0134801D01*
X0178638Y0136798D02*
X0191317Y0136798D01*
X0191589Y0137796D02*
X0178384Y0137796D01*
X0177897Y0138795D02*
X0192159Y0138795D01*
X0193140Y0139793D02*
X0177061Y0139793D01*
X0175550Y0140792D02*
X0226000Y0140792D01*
X0226000Y0141790D02*
X0198249Y0141790D01*
X0198691Y0141973D02*
X0200027Y0143309D01*
X0200750Y0145055D01*
X0200750Y0146945D01*
X0200027Y0148691D01*
X0198691Y0150027D01*
X0196945Y0150750D01*
X0195055Y0150750D01*
X0193309Y0150027D01*
X0191973Y0148691D01*
X0191250Y0146945D01*
X0191250Y0145055D01*
X0191973Y0143309D01*
X0193309Y0141973D01*
X0195055Y0141250D01*
X0196945Y0141250D01*
X0198691Y0141973D01*
X0199506Y0142789D02*
X0226000Y0142789D01*
X0226000Y0143787D02*
X0200225Y0143787D01*
X0200638Y0144786D02*
X0226000Y0144786D01*
X0226000Y0145784D02*
X0200750Y0145784D01*
X0200750Y0146783D02*
X0226000Y0146783D01*
X0226000Y0147781D02*
X0200404Y0147781D01*
X0199938Y0148780D02*
X0226000Y0148780D01*
X0226000Y0149778D02*
X0198939Y0149778D01*
X0199447Y0151250D02*
X0196375Y0151250D01*
X0196375Y0155625D01*
X0196375Y0156375D01*
X0200750Y0156375D01*
X0200750Y0159447D01*
X0200648Y0159829D01*
X0200450Y0160171D01*
X0200171Y0160450D01*
X0199829Y0160648D01*
X0199447Y0160750D01*
X0196375Y0160750D01*
X0196375Y0156375D01*
X0195625Y0156375D01*
X0195625Y0160750D01*
X0192553Y0160750D01*
X0192171Y0160648D01*
X0191829Y0160450D01*
X0191550Y0160171D01*
X0191352Y0159829D01*
X0191250Y0159447D01*
X0191250Y0156375D01*
X0195625Y0156375D01*
X0195625Y0155625D01*
X0196375Y0155625D01*
X0200750Y0155625D01*
X0200750Y0152553D01*
X0200648Y0152171D01*
X0200450Y0151829D01*
X0200171Y0151550D01*
X0199829Y0151352D01*
X0199447Y0151250D01*
X0200397Y0151775D02*
X0226000Y0151775D01*
X0226000Y0150777D02*
X0175556Y0150777D01*
X0176532Y0151775D02*
X0191603Y0151775D01*
X0191550Y0151829D02*
X0191829Y0151550D01*
X0192171Y0151352D01*
X0192553Y0151250D01*
X0195625Y0151250D01*
X0195625Y0155625D01*
X0191250Y0155625D01*
X0191250Y0152553D01*
X0191352Y0152171D01*
X0191550Y0151829D01*
X0191250Y0152774D02*
X0177584Y0152774D01*
X0178201Y0153772D02*
X0191250Y0153772D01*
X0191250Y0154771D02*
X0178568Y0154771D01*
X0178643Y0156768D02*
X0191250Y0156768D01*
X0191250Y0157766D02*
X0178394Y0157766D01*
X0177919Y0158765D02*
X0191250Y0158765D01*
X0191335Y0159763D02*
X0177091Y0159763D01*
X0174000Y0155769D02*
X0195625Y0155769D01*
X0196375Y0155769D02*
X0226000Y0155769D01*
X0226000Y0154771D02*
X0200750Y0154771D01*
X0200750Y0153772D02*
X0226000Y0153772D01*
X0226000Y0152774D02*
X0200750Y0152774D01*
X0196375Y0152774D02*
X0195625Y0152774D01*
X0195625Y0153772D02*
X0196375Y0153772D01*
X0196375Y0154771D02*
X0195625Y0154771D01*
X0195625Y0156768D02*
X0196375Y0156768D01*
X0196375Y0157766D02*
X0195625Y0157766D01*
X0195625Y0158765D02*
X0196375Y0158765D01*
X0196375Y0159763D02*
X0195625Y0159763D01*
X0200665Y0159763D02*
X0226000Y0159763D01*
X0226000Y0158765D02*
X0200750Y0158765D01*
X0200750Y0157766D02*
X0226000Y0157766D01*
X0226000Y0156768D02*
X0200750Y0156768D01*
X0196375Y0151775D02*
X0195625Y0151775D01*
X0193061Y0149778D02*
X0177076Y0149778D01*
X0177977Y0148780D02*
X0192062Y0148780D01*
X0191596Y0147781D02*
X0178391Y0147781D01*
X0178700Y0146783D02*
X0191250Y0146783D01*
X0191250Y0145784D02*
X0178700Y0145784D01*
X0178625Y0144786D02*
X0191362Y0144786D01*
X0191775Y0143787D02*
X0178212Y0143787D01*
X0177643Y0142789D02*
X0192494Y0142789D01*
X0193751Y0141790D02*
X0176644Y0141790D01*
X0168784Y0133802D02*
X0164000Y0133802D01*
X0164000Y0132803D02*
X0169395Y0132803D01*
X0170427Y0131805D02*
X0164000Y0131805D01*
X0164000Y0130806D02*
X0171516Y0130806D01*
X0169954Y0129808D02*
X0164000Y0129808D01*
X0164000Y0128809D02*
X0169035Y0128809D01*
X0168622Y0127811D02*
X0164000Y0127811D01*
X0164000Y0126812D02*
X0168300Y0126812D01*
X0168300Y0125814D02*
X0164000Y0125814D01*
X0164000Y0124815D02*
X0168362Y0124815D01*
X0168776Y0123817D02*
X0164000Y0123817D01*
X0164000Y0122818D02*
X0169328Y0122818D01*
X0170326Y0121820D02*
X0164000Y0121820D01*
X0164000Y0120821D02*
X0171511Y0120821D01*
X0169969Y0119823D02*
X0164000Y0119823D01*
X0164000Y0118824D02*
X0169124Y0118824D01*
X0168626Y0117826D02*
X0164000Y0117826D01*
X0164000Y0116827D02*
X0168366Y0116827D01*
X0168420Y0114830D02*
X0164000Y0114830D01*
X0164000Y0113832D02*
X0168769Y0113832D01*
X0169373Y0112833D02*
X0164000Y0112833D01*
X0164000Y0111835D02*
X0170386Y0111835D01*
X0171588Y0110836D02*
X0164000Y0110836D01*
X0164000Y0109838D02*
X0169984Y0109838D01*
X0169048Y0108839D02*
X0164000Y0108839D01*
X0164000Y0107841D02*
X0168634Y0107841D01*
X0168300Y0106842D02*
X0164000Y0106842D01*
X0164000Y0105844D02*
X0168300Y0105844D01*
X0168350Y0104845D02*
X0163674Y0104845D01*
X0163023Y0103847D02*
X0168763Y0103847D01*
X0169298Y0102848D02*
X0163437Y0102848D01*
X0163500Y0101850D02*
X0170296Y0101850D01*
X0171603Y0100851D02*
X0163312Y0100851D01*
X0162802Y0099853D02*
X0169999Y0099853D01*
X0169146Y0098854D02*
X0161551Y0098854D01*
X0158449Y0098854D02*
X0154683Y0098854D01*
X0155681Y0099853D02*
X0157198Y0099853D01*
X0156688Y0100851D02*
X0156680Y0100851D01*
X0160000Y0102000D02*
X0160000Y0104000D01*
X0162000Y0106000D01*
X0162000Y0147000D01*
X0154000Y0155000D01*
X0154000Y0158000D01*
X0153500Y0158500D01*
X0157800Y0158765D02*
X0169081Y0158765D01*
X0168606Y0157766D02*
X0157800Y0157766D01*
X0157800Y0156768D02*
X0168357Y0156768D01*
X0169909Y0159763D02*
X0157800Y0159763D01*
X0157800Y0160762D02*
X0171392Y0160762D01*
X0158390Y0147781D02*
X0149047Y0147781D01*
X0148049Y0148780D02*
X0157392Y0148780D01*
X0156393Y0149778D02*
X0147050Y0149778D01*
X0146052Y0150777D02*
X0155395Y0150777D01*
X0151739Y0151775D02*
X0145261Y0151775D01*
X0145936Y0152055D02*
X0147145Y0153264D01*
X0147800Y0154845D01*
X0147800Y0162155D01*
X0147145Y0163736D01*
X0145936Y0164945D01*
X0144355Y0165600D01*
X0142645Y0165600D01*
X0141064Y0164945D01*
X0139855Y0163736D01*
X0139200Y0162155D01*
X0139200Y0154845D01*
X0139855Y0153264D01*
X0141064Y0152055D01*
X0142645Y0151400D01*
X0144355Y0151400D01*
X0145936Y0152055D01*
X0146655Y0152774D02*
X0150345Y0152774D01*
X0149644Y0153772D02*
X0147356Y0153772D01*
X0147769Y0154771D02*
X0149231Y0154771D01*
X0149200Y0155769D02*
X0147800Y0155769D01*
X0147800Y0156768D02*
X0149200Y0156768D01*
X0149200Y0157766D02*
X0147800Y0157766D01*
X0147800Y0158765D02*
X0149200Y0158765D01*
X0149200Y0159763D02*
X0147800Y0159763D01*
X0147800Y0160762D02*
X0149200Y0160762D01*
X0149200Y0161760D02*
X0147800Y0161760D01*
X0147550Y0162759D02*
X0149450Y0162759D01*
X0149876Y0163757D02*
X0147124Y0163757D01*
X0146125Y0164756D02*
X0150875Y0164756D01*
X0140875Y0164756D02*
X0136125Y0164756D01*
X0135936Y0164945D02*
X0134355Y0165600D01*
X0132645Y0165600D01*
X0131064Y0164945D01*
X0129855Y0163736D01*
X0129200Y0162155D01*
X0129200Y0154845D01*
X0129855Y0153264D01*
X0131064Y0152055D01*
X0132645Y0151400D01*
X0134355Y0151400D01*
X0135936Y0152055D01*
X0137145Y0153264D01*
X0137800Y0154845D01*
X0137800Y0162155D01*
X0137145Y0163736D01*
X0135936Y0164945D01*
X0137124Y0163757D02*
X0139876Y0163757D01*
X0139450Y0162759D02*
X0137550Y0162759D01*
X0137800Y0161760D02*
X0139200Y0161760D01*
X0139200Y0160762D02*
X0137800Y0160762D01*
X0137800Y0159763D02*
X0139200Y0159763D01*
X0139200Y0158765D02*
X0137800Y0158765D01*
X0137800Y0157766D02*
X0139200Y0157766D01*
X0139200Y0156768D02*
X0137800Y0156768D01*
X0137800Y0155769D02*
X0139200Y0155769D01*
X0139231Y0154771D02*
X0137769Y0154771D01*
X0137356Y0153772D02*
X0139644Y0153772D01*
X0140345Y0152774D02*
X0136655Y0152774D01*
X0135261Y0151775D02*
X0141739Y0151775D01*
X0144389Y0146783D02*
X0074098Y0146783D01*
X0075008Y0145784D02*
X0145387Y0145784D01*
X0146386Y0144786D02*
X0075422Y0144786D01*
X0076041Y0143787D02*
X0147384Y0143787D01*
X0148383Y0142789D02*
X0105040Y0142789D01*
X0106038Y0141790D02*
X0149381Y0141790D01*
X0150380Y0140792D02*
X0132158Y0140792D01*
X0133046Y0139793D02*
X0151378Y0139793D01*
X0152377Y0138795D02*
X0133459Y0138795D01*
X0133500Y0137796D02*
X0153376Y0137796D01*
X0154374Y0136798D02*
X0133290Y0136798D01*
X0132749Y0135799D02*
X0155373Y0135799D01*
X0155936Y0134945D02*
X0154355Y0135600D01*
X0152645Y0135600D01*
X0151064Y0134945D01*
X0149855Y0133736D01*
X0149200Y0132155D01*
X0149200Y0124845D01*
X0149855Y0123264D01*
X0151064Y0122055D01*
X0152645Y0121400D01*
X0154355Y0121400D01*
X0155936Y0122055D01*
X0157145Y0123264D01*
X0157800Y0124845D01*
X0157800Y0132155D01*
X0157145Y0133736D01*
X0155936Y0134945D01*
X0156081Y0134801D02*
X0156371Y0134801D01*
X0157079Y0133802D02*
X0157370Y0133802D01*
X0157532Y0132803D02*
X0158000Y0132803D01*
X0158000Y0131805D02*
X0157800Y0131805D01*
X0157800Y0130806D02*
X0158000Y0130806D01*
X0158000Y0129808D02*
X0157800Y0129808D01*
X0157800Y0128809D02*
X0158000Y0128809D01*
X0158000Y0127811D02*
X0157800Y0127811D01*
X0157800Y0126812D02*
X0158000Y0126812D01*
X0158000Y0125814D02*
X0157800Y0125814D01*
X0157788Y0124815D02*
X0158000Y0124815D01*
X0158000Y0123817D02*
X0157374Y0123817D01*
X0158000Y0122818D02*
X0156699Y0122818D01*
X0158000Y0121820D02*
X0155369Y0121820D01*
X0158000Y0120821D02*
X0130000Y0120821D01*
X0130000Y0119823D02*
X0158000Y0119823D01*
X0158000Y0118824D02*
X0130000Y0118824D01*
X0130000Y0117826D02*
X0158000Y0117826D01*
X0158000Y0116827D02*
X0130000Y0116827D01*
X0130000Y0115829D02*
X0158000Y0115829D01*
X0158000Y0114830D02*
X0136316Y0114830D01*
X0137315Y0113832D02*
X0158000Y0113832D01*
X0158000Y0112833D02*
X0138200Y0112833D01*
X0138200Y0111835D02*
X0158000Y0111835D01*
X0158000Y0110836D02*
X0138200Y0110836D01*
X0138200Y0109838D02*
X0158000Y0109838D01*
X0158000Y0108839D02*
X0137986Y0108839D01*
X0136988Y0107841D02*
X0158000Y0107841D01*
X0164000Y0115829D02*
X0173000Y0115829D01*
X0174000Y0115829D02*
X0195625Y0115829D01*
X0195625Y0115625D02*
X0191250Y0115625D01*
X0191367Y0114888D01*
X0191598Y0114177D01*
X0191937Y0113510D01*
X0192377Y0112906D01*
X0192906Y0112377D01*
X0193510Y0111937D01*
X0194177Y0111598D01*
X0194888Y0111367D01*
X0195625Y0111250D01*
X0195625Y0115625D01*
X0196375Y0115625D01*
X0196375Y0116375D01*
X0200750Y0116375D01*
X0200633Y0117112D01*
X0200402Y0117823D01*
X0200063Y0118490D01*
X0199623Y0119094D01*
X0199094Y0119623D01*
X0198490Y0120063D01*
X0197823Y0120402D01*
X0197112Y0120633D01*
X0196375Y0120750D01*
X0196375Y0116375D01*
X0195625Y0116375D01*
X0195625Y0120750D01*
X0194888Y0120633D01*
X0194177Y0120402D01*
X0193510Y0120063D01*
X0192906Y0119623D01*
X0192377Y0119094D01*
X0191937Y0118490D01*
X0191598Y0117823D01*
X0191367Y0117112D01*
X0191250Y0116375D01*
X0195625Y0116375D01*
X0195625Y0115625D01*
X0196375Y0115625D02*
X0196375Y0111250D01*
X0197112Y0111367D01*
X0197823Y0111598D01*
X0198490Y0111937D01*
X0199094Y0112377D01*
X0199623Y0112906D01*
X0200063Y0113510D01*
X0200402Y0114177D01*
X0200633Y0114888D01*
X0200750Y0115625D01*
X0196375Y0115625D01*
X0196375Y0115829D02*
X0226000Y0115829D01*
X0226000Y0116827D02*
X0200678Y0116827D01*
X0200401Y0117826D02*
X0226000Y0117826D01*
X0226000Y0118824D02*
X0199819Y0118824D01*
X0198819Y0119823D02*
X0226000Y0119823D01*
X0226000Y0120821D02*
X0175489Y0120821D01*
X0176674Y0121820D02*
X0193679Y0121820D01*
X0193309Y0121973D02*
X0195055Y0121250D01*
X0196945Y0121250D01*
X0198691Y0121973D01*
X0200027Y0123309D01*
X0200750Y0125055D01*
X0200750Y0126945D01*
X0200027Y0128691D01*
X0198691Y0130027D01*
X0196945Y0130750D01*
X0195055Y0130750D01*
X0193309Y0130027D01*
X0191973Y0128691D01*
X0191250Y0126945D01*
X0191250Y0125055D01*
X0191973Y0123309D01*
X0193309Y0121973D01*
X0192464Y0122818D02*
X0177672Y0122818D01*
X0178224Y0123817D02*
X0191763Y0123817D01*
X0191349Y0124815D02*
X0178638Y0124815D01*
X0178700Y0125814D02*
X0191250Y0125814D01*
X0191250Y0126812D02*
X0178700Y0126812D01*
X0178378Y0127811D02*
X0191609Y0127811D01*
X0192092Y0128809D02*
X0177965Y0128809D01*
X0177046Y0129808D02*
X0193090Y0129808D01*
X0195625Y0131805D02*
X0196375Y0131805D01*
X0196375Y0132803D02*
X0195625Y0132803D01*
X0195625Y0133802D02*
X0196375Y0133802D01*
X0196375Y0134801D02*
X0195625Y0134801D01*
X0195625Y0136798D02*
X0196375Y0136798D01*
X0196375Y0137796D02*
X0195625Y0137796D01*
X0195625Y0138795D02*
X0196375Y0138795D01*
X0196375Y0139793D02*
X0195625Y0139793D01*
X0198860Y0139793D02*
X0226000Y0139793D01*
X0226000Y0138795D02*
X0199841Y0138795D01*
X0200411Y0137796D02*
X0226000Y0137796D01*
X0226000Y0136798D02*
X0200683Y0136798D01*
X0198910Y0129808D02*
X0226000Y0129808D01*
X0226000Y0128809D02*
X0199908Y0128809D01*
X0200391Y0127811D02*
X0226000Y0127811D01*
X0226000Y0126812D02*
X0200750Y0126812D01*
X0200750Y0125814D02*
X0226000Y0125814D01*
X0226000Y0124815D02*
X0200651Y0124815D01*
X0200237Y0123817D02*
X0226000Y0123817D01*
X0226000Y0122818D02*
X0199536Y0122818D01*
X0198321Y0121820D02*
X0226000Y0121820D01*
X0226000Y0114830D02*
X0200614Y0114830D01*
X0200226Y0113832D02*
X0226000Y0113832D01*
X0226000Y0112833D02*
X0199551Y0112833D01*
X0198288Y0111835D02*
X0226000Y0111835D01*
X0226000Y0110836D02*
X0175412Y0110836D01*
X0176614Y0111835D02*
X0193712Y0111835D01*
X0192449Y0112833D02*
X0177627Y0112833D01*
X0178231Y0113832D02*
X0191774Y0113832D01*
X0191386Y0114830D02*
X0178580Y0114830D01*
X0178634Y0116827D02*
X0191322Y0116827D01*
X0191599Y0117826D02*
X0178374Y0117826D01*
X0177876Y0118824D02*
X0192181Y0118824D01*
X0193181Y0119823D02*
X0177031Y0119823D01*
X0177016Y0109838D02*
X0193120Y0109838D01*
X0193309Y0110027D02*
X0191973Y0108691D01*
X0191250Y0106945D01*
X0191250Y0105055D01*
X0191973Y0103309D01*
X0193309Y0101973D01*
X0195055Y0101250D01*
X0196945Y0101250D01*
X0198691Y0101973D01*
X0200027Y0103309D01*
X0200750Y0105055D01*
X0200750Y0106945D01*
X0200027Y0108691D01*
X0198691Y0110027D01*
X0196945Y0110750D01*
X0195055Y0110750D01*
X0193309Y0110027D01*
X0192122Y0108839D02*
X0177952Y0108839D01*
X0178366Y0107841D02*
X0191621Y0107841D01*
X0191250Y0106842D02*
X0178700Y0106842D01*
X0178700Y0105844D02*
X0191250Y0105844D01*
X0191337Y0104845D02*
X0178650Y0104845D01*
X0178236Y0103847D02*
X0191751Y0103847D01*
X0192434Y0102848D02*
X0177702Y0102848D01*
X0176704Y0101850D02*
X0193607Y0101850D01*
X0194177Y0100402D02*
X0193510Y0100063D01*
X0192906Y0099623D01*
X0192377Y0099094D01*
X0191937Y0098490D01*
X0191598Y0097823D01*
X0191367Y0097112D01*
X0191250Y0096375D01*
X0195625Y0096375D01*
X0195625Y0100750D01*
X0194888Y0100633D01*
X0194177Y0100402D01*
X0193222Y0099853D02*
X0177001Y0099853D01*
X0177854Y0098854D02*
X0192202Y0098854D01*
X0191614Y0097856D02*
X0178365Y0097856D01*
X0178629Y0096857D02*
X0191327Y0096857D01*
X0191250Y0095625D02*
X0191367Y0094888D01*
X0191598Y0094177D01*
X0191937Y0093510D01*
X0192377Y0092906D01*
X0192906Y0092377D01*
X0193510Y0091937D01*
X0194177Y0091598D01*
X0194888Y0091367D01*
X0195625Y0091250D01*
X0195625Y0095625D01*
X0196375Y0095625D01*
X0196375Y0096375D01*
X0200750Y0096375D01*
X0200633Y0097112D01*
X0200402Y0097823D01*
X0200063Y0098490D01*
X0199623Y0099094D01*
X0199094Y0099623D01*
X0198490Y0100063D01*
X0197823Y0100402D01*
X0197112Y0100633D01*
X0196375Y0100750D01*
X0196375Y0096375D01*
X0195625Y0096375D01*
X0195625Y0095625D01*
X0191250Y0095625D01*
X0191376Y0094860D02*
X0178584Y0094860D01*
X0178246Y0093862D02*
X0191759Y0093862D01*
X0192419Y0092863D02*
X0177648Y0092863D01*
X0176655Y0091865D02*
X0193654Y0091865D01*
X0195055Y0090750D02*
X0193309Y0090027D01*
X0191973Y0088691D01*
X0191250Y0086945D01*
X0191250Y0085055D01*
X0191973Y0083309D01*
X0193309Y0081973D01*
X0195055Y0081250D01*
X0196945Y0081250D01*
X0198691Y0081973D01*
X0200027Y0083309D01*
X0200750Y0085055D01*
X0200750Y0086945D01*
X0200027Y0088691D01*
X0198691Y0090027D01*
X0196945Y0090750D01*
X0195055Y0090750D01*
X0195625Y0091865D02*
X0196375Y0091865D01*
X0196375Y0091250D02*
X0197112Y0091367D01*
X0197823Y0091598D01*
X0198490Y0091937D01*
X0199094Y0092377D01*
X0199623Y0092906D01*
X0200063Y0093510D01*
X0200402Y0094177D01*
X0200633Y0094888D01*
X0200750Y0095625D01*
X0196375Y0095625D01*
X0196375Y0091250D01*
X0196375Y0092863D02*
X0195625Y0092863D01*
X0195625Y0093862D02*
X0196375Y0093862D01*
X0196375Y0094860D02*
X0195625Y0094860D01*
X0195625Y0095859D02*
X0174000Y0095859D01*
X0173000Y0095859D02*
X0151687Y0095859D01*
X0152685Y0096857D02*
X0168371Y0096857D01*
X0168635Y0097856D02*
X0153684Y0097856D01*
X0150688Y0094860D02*
X0168416Y0094860D01*
X0168753Y0093862D02*
X0149690Y0093862D01*
X0148691Y0092863D02*
X0169352Y0092863D01*
X0170345Y0091865D02*
X0147693Y0091865D01*
X0146694Y0090866D02*
X0171659Y0090866D01*
X0170014Y0089868D02*
X0145696Y0089868D01*
X0144697Y0088869D02*
X0169060Y0088869D01*
X0175341Y0090866D02*
X0226000Y0090866D01*
X0226000Y0089868D02*
X0198850Y0089868D01*
X0199848Y0088869D02*
X0226000Y0088869D01*
X0226000Y0087870D02*
X0200367Y0087870D01*
X0200750Y0086872D02*
X0226000Y0086872D01*
X0226000Y0085873D02*
X0200750Y0085873D01*
X0200675Y0084875D02*
X0226000Y0084875D01*
X0226000Y0083876D02*
X0200262Y0083876D01*
X0199595Y0082878D02*
X0226000Y0082878D01*
X0226000Y0081879D02*
X0198464Y0081879D01*
X0193536Y0081879D02*
X0176733Y0081879D01*
X0177732Y0082878D02*
X0192405Y0082878D01*
X0191738Y0083876D02*
X0178249Y0083876D01*
X0178662Y0084875D02*
X0191325Y0084875D01*
X0191250Y0085873D02*
X0178700Y0085873D01*
X0178700Y0086872D02*
X0191250Y0086872D01*
X0191633Y0087870D02*
X0178354Y0087870D01*
X0177940Y0088869D02*
X0192151Y0088869D01*
X0193150Y0089868D02*
X0176986Y0089868D01*
X0174730Y0080881D02*
X0226000Y0080881D01*
X0226000Y0091865D02*
X0198346Y0091865D01*
X0199581Y0092863D02*
X0226000Y0092863D01*
X0226000Y0093862D02*
X0200241Y0093862D01*
X0200624Y0094860D02*
X0226000Y0094860D01*
X0226000Y0095859D02*
X0196375Y0095859D01*
X0196375Y0096857D02*
X0195625Y0096857D01*
X0195625Y0097856D02*
X0196375Y0097856D01*
X0196375Y0098854D02*
X0195625Y0098854D01*
X0195625Y0099853D02*
X0196375Y0099853D01*
X0198778Y0099853D02*
X0226000Y0099853D01*
X0226000Y0100851D02*
X0175397Y0100851D01*
X0195625Y0111835D02*
X0196375Y0111835D01*
X0196375Y0112833D02*
X0195625Y0112833D01*
X0195625Y0113832D02*
X0196375Y0113832D01*
X0196375Y0114830D02*
X0195625Y0114830D01*
X0195625Y0116827D02*
X0196375Y0116827D01*
X0196375Y0117826D02*
X0195625Y0117826D01*
X0195625Y0118824D02*
X0196375Y0118824D01*
X0196375Y0119823D02*
X0195625Y0119823D01*
X0198880Y0109838D02*
X0226000Y0109838D01*
X0226000Y0108839D02*
X0199878Y0108839D01*
X0200379Y0107841D02*
X0226000Y0107841D01*
X0226000Y0106842D02*
X0200750Y0106842D01*
X0200750Y0105844D02*
X0226000Y0105844D01*
X0226000Y0104845D02*
X0200663Y0104845D01*
X0200249Y0103847D02*
X0226000Y0103847D01*
X0226000Y0102848D02*
X0199566Y0102848D01*
X0198392Y0101850D02*
X0226000Y0101850D01*
X0226000Y0098854D02*
X0199798Y0098854D01*
X0200386Y0097856D02*
X0226000Y0097856D01*
X0226000Y0096857D02*
X0200673Y0096857D01*
X0200221Y0067900D02*
X0226000Y0067900D01*
X0226000Y0066902D02*
X0200750Y0066902D01*
X0200750Y0065903D02*
X0226000Y0065903D01*
X0226000Y0064905D02*
X0200750Y0064905D01*
X0200750Y0063906D02*
X0226000Y0063906D01*
X0226000Y0062908D02*
X0200750Y0062908D01*
X0200750Y0061909D02*
X0226000Y0061909D01*
X0226000Y0060911D02*
X0200750Y0060911D01*
X0200750Y0059912D02*
X0226000Y0059912D01*
X0226000Y0058914D02*
X0200035Y0058914D01*
X0164068Y0028958D02*
X0147448Y0028958D01*
X0149174Y0029957D02*
X0162196Y0029957D01*
X0161339Y0030955D02*
X0150087Y0030955D01*
X0150501Y0031954D02*
X0160860Y0031954D01*
X0207634Y0017975D02*
X0022666Y0017975D01*
X0022700Y0016976D02*
X0207600Y0016976D01*
X0207600Y0015978D02*
X0022700Y0015978D01*
X0022482Y0014979D02*
X0207818Y0014979D01*
X0208232Y0013981D02*
X0022068Y0013981D01*
X0021467Y0012982D02*
X0208833Y0012982D01*
X0209831Y0011984D02*
X0020469Y0011984D01*
X0018582Y0010985D02*
X0211718Y0010985D01*
X0208047Y0018973D02*
X0022253Y0018973D01*
X0021839Y0019972D02*
X0208461Y0019972D01*
X0209385Y0020970D02*
X0020915Y0020970D01*
X0019659Y0021969D02*
X0210641Y0021969D01*
X0113500Y0091000D02*
X0113000Y0091000D01*
X0099000Y0077000D01*
X0092055Y0061909D02*
X0090738Y0061909D01*
X0091370Y0060911D02*
X0089739Y0060911D01*
X0088741Y0059912D02*
X0090957Y0059912D01*
X0090800Y0058914D02*
X0087742Y0058914D01*
X0086744Y0057915D02*
X0090800Y0057915D01*
X0091027Y0056917D02*
X0085745Y0056917D01*
X0084747Y0055918D02*
X0091441Y0055918D01*
X0092226Y0054920D02*
X0083748Y0054920D01*
X0083000Y0054172D02*
X0083000Y0054172D01*
X0082750Y0053921D02*
X0093466Y0053921D01*
X0093240Y0052923D02*
X0073751Y0052923D01*
X0073043Y0051924D02*
X0072752Y0051924D01*
X0072050Y0050926D02*
X0071754Y0050926D01*
X0071637Y0049927D02*
X0071000Y0049927D01*
X0071000Y0048929D02*
X0071400Y0048929D01*
X0071400Y0047930D02*
X0071000Y0047930D01*
X0071000Y0046932D02*
X0071695Y0046932D01*
X0072186Y0045933D02*
X0071000Y0045933D01*
X0071000Y0044934D02*
X0073184Y0044934D01*
X0067000Y0044934D02*
X0063708Y0044934D01*
X0063554Y0044822D02*
X0064101Y0045220D01*
X0064580Y0045699D01*
X0064978Y0046246D01*
X0065285Y0046849D01*
X0065494Y0047493D01*
X0065600Y0048162D01*
X0065600Y0048200D01*
X0058800Y0048200D01*
X0058800Y0048800D01*
X0058200Y0048800D01*
X0058200Y0052800D01*
X0055362Y0052800D01*
X0054693Y0052694D01*
X0054049Y0052485D01*
X0053446Y0052178D01*
X0052899Y0051780D01*
X0052420Y0051301D01*
X0052022Y0050754D01*
X0051715Y0050151D01*
X0051506Y0049507D01*
X0051400Y0048838D01*
X0051400Y0048800D01*
X0058200Y0048800D01*
X0058200Y0048200D01*
X0058800Y0048200D01*
X0058800Y0044200D01*
X0061638Y0044200D01*
X0062307Y0044306D01*
X0062951Y0044515D01*
X0063554Y0044822D01*
X0064750Y0045933D02*
X0067000Y0045933D01*
X0067000Y0046932D02*
X0065312Y0046932D01*
X0065563Y0047930D02*
X0067000Y0047930D01*
X0067000Y0048929D02*
X0065586Y0048929D01*
X0065600Y0048838D02*
X0065494Y0049507D01*
X0065285Y0050151D01*
X0064978Y0050754D01*
X0064580Y0051301D01*
X0064101Y0051780D01*
X0063554Y0052178D01*
X0062951Y0052485D01*
X0062307Y0052694D01*
X0061638Y0052800D01*
X0058800Y0052800D01*
X0058800Y0048800D01*
X0065600Y0048800D01*
X0065600Y0048838D01*
X0065358Y0049927D02*
X0067000Y0049927D01*
X0067000Y0050926D02*
X0064853Y0050926D01*
X0063903Y0051924D02*
X0067096Y0051924D01*
X0068094Y0052923D02*
X0006000Y0052923D01*
X0006000Y0053921D02*
X0069093Y0053921D01*
X0070091Y0054920D02*
X0006000Y0054920D01*
X0006000Y0055918D02*
X0071090Y0055918D01*
X0072088Y0056917D02*
X0006000Y0056917D01*
X0006000Y0051924D02*
X0053097Y0051924D01*
X0052147Y0050926D02*
X0006000Y0050926D01*
X0006000Y0049927D02*
X0051642Y0049927D01*
X0051414Y0048929D02*
X0006000Y0048929D01*
X0006000Y0047930D02*
X0013083Y0047930D01*
X0013338Y0048184D02*
X0012016Y0046862D01*
X0011300Y0045135D01*
X0011300Y0036865D01*
X0012016Y0035138D01*
X0013338Y0033816D01*
X0015065Y0033100D01*
X0016935Y0033100D01*
X0018662Y0033816D01*
X0019984Y0035138D01*
X0020700Y0036865D01*
X0020700Y0045135D01*
X0019984Y0046862D01*
X0018662Y0048184D01*
X0016935Y0048900D01*
X0015065Y0048900D01*
X0013338Y0048184D01*
X0012085Y0046932D02*
X0006000Y0046932D01*
X0006000Y0045933D02*
X0011631Y0045933D01*
X0011300Y0044934D02*
X0006000Y0044934D01*
X0006000Y0043936D02*
X0011300Y0043936D01*
X0011300Y0042937D02*
X0006000Y0042937D01*
X0006000Y0041939D02*
X0011300Y0041939D01*
X0011300Y0040940D02*
X0006000Y0040940D01*
X0006000Y0039942D02*
X0011300Y0039942D01*
X0011300Y0038943D02*
X0006000Y0038943D01*
X0006000Y0037945D02*
X0011300Y0037945D01*
X0011300Y0036946D02*
X0006000Y0036946D01*
X0006000Y0035948D02*
X0011680Y0035948D01*
X0012204Y0034949D02*
X0006000Y0034949D01*
X0006000Y0033951D02*
X0013202Y0033951D01*
X0018798Y0033951D02*
X0023202Y0033951D01*
X0023338Y0033816D02*
X0025065Y0033100D01*
X0026935Y0033100D01*
X0028662Y0033816D01*
X0029984Y0035138D01*
X0030700Y0036865D01*
X0030700Y0045135D01*
X0029984Y0046862D01*
X0028662Y0048184D01*
X0026935Y0048900D01*
X0025065Y0048900D01*
X0023338Y0048184D01*
X0022016Y0046862D01*
X0021300Y0045135D01*
X0021300Y0036865D01*
X0022016Y0035138D01*
X0023338Y0033816D01*
X0022204Y0034949D02*
X0019796Y0034949D01*
X0020320Y0035948D02*
X0021680Y0035948D01*
X0021300Y0036946D02*
X0020700Y0036946D01*
X0020700Y0037945D02*
X0021300Y0037945D01*
X0021300Y0038943D02*
X0020700Y0038943D01*
X0020700Y0039942D02*
X0021300Y0039942D01*
X0021300Y0040940D02*
X0020700Y0040940D01*
X0020700Y0041939D02*
X0021300Y0041939D01*
X0021300Y0042937D02*
X0020700Y0042937D01*
X0020700Y0043936D02*
X0021300Y0043936D01*
X0021300Y0044934D02*
X0020700Y0044934D01*
X0020369Y0045933D02*
X0021631Y0045933D01*
X0022085Y0046932D02*
X0019915Y0046932D01*
X0018917Y0047930D02*
X0023083Y0047930D01*
X0028917Y0047930D02*
X0033083Y0047930D01*
X0032085Y0046932D02*
X0029915Y0046932D01*
X0030369Y0045933D02*
X0031631Y0045933D01*
X0031300Y0044934D02*
X0030700Y0044934D01*
X0030700Y0043936D02*
X0031300Y0043936D01*
X0031300Y0042937D02*
X0030700Y0042937D01*
X0030700Y0041939D02*
X0031300Y0041939D01*
X0031300Y0040940D02*
X0030700Y0040940D01*
X0030700Y0039942D02*
X0031300Y0039942D01*
X0031300Y0038943D02*
X0030700Y0038943D01*
X0030700Y0037945D02*
X0031300Y0037945D01*
X0031300Y0036946D02*
X0030700Y0036946D01*
X0030320Y0035948D02*
X0031680Y0035948D01*
X0032204Y0034949D02*
X0029796Y0034949D01*
X0028798Y0033951D02*
X0033202Y0033951D01*
X0043300Y0029534D02*
X0043300Y0027466D01*
X0044092Y0025554D01*
X0045554Y0024092D01*
X0047466Y0023300D01*
X0049534Y0023300D01*
X0051446Y0024092D01*
X0052908Y0025554D01*
X0053700Y0027466D01*
X0053700Y0029534D01*
X0052908Y0031446D01*
X0051446Y0032908D01*
X0049534Y0033700D01*
X0047466Y0033700D01*
X0045554Y0032908D01*
X0044092Y0031446D01*
X0043300Y0029534D01*
X0043475Y0029957D02*
X0006000Y0029957D01*
X0006000Y0030955D02*
X0043889Y0030955D01*
X0044600Y0031954D02*
X0006000Y0031954D01*
X0006000Y0032952D02*
X0045661Y0032952D01*
X0043300Y0028958D02*
X0006000Y0028958D01*
X0006000Y0027960D02*
X0043300Y0027960D01*
X0043509Y0026961D02*
X0006000Y0026961D01*
X0006000Y0025963D02*
X0043922Y0025963D01*
X0044682Y0024964D02*
X0006000Y0024964D01*
X0006000Y0023966D02*
X0045858Y0023966D01*
X0051142Y0023966D02*
X0075945Y0023966D01*
X0075775Y0024053D02*
X0076504Y0023681D01*
X0077282Y0023428D01*
X0078091Y0023300D01*
X0078114Y0023300D01*
X0078114Y0028114D01*
X0073300Y0028114D01*
X0073300Y0028091D01*
X0073428Y0027282D01*
X0073681Y0026504D01*
X0074053Y0025775D01*
X0074534Y0025112D01*
X0075112Y0024534D01*
X0075775Y0024053D01*
X0074682Y0024964D02*
X0052318Y0024964D01*
X0053077Y0025963D02*
X0073957Y0025963D01*
X0073532Y0026961D02*
X0053491Y0026961D01*
X0053700Y0027960D02*
X0073321Y0027960D01*
X0073308Y0028958D02*
X0053700Y0028958D01*
X0053525Y0029957D02*
X0073506Y0029957D01*
X0073915Y0030955D02*
X0053111Y0030955D01*
X0052400Y0031954D02*
X0074600Y0031954D01*
X0075784Y0032952D02*
X0051339Y0032952D01*
X0054693Y0044306D02*
X0055362Y0044200D01*
X0058200Y0044200D01*
X0058200Y0048200D01*
X0051400Y0048200D01*
X0051400Y0048162D01*
X0051506Y0047493D01*
X0051715Y0046849D01*
X0052022Y0046246D01*
X0052420Y0045699D01*
X0052899Y0045220D01*
X0053446Y0044822D01*
X0054049Y0044515D01*
X0054693Y0044306D01*
X0053292Y0044934D02*
X0040700Y0044934D01*
X0040700Y0043936D02*
X0067000Y0043936D01*
X0058800Y0044934D02*
X0058200Y0044934D01*
X0058200Y0045933D02*
X0058800Y0045933D01*
X0058800Y0046932D02*
X0058200Y0046932D01*
X0058200Y0047930D02*
X0058800Y0047930D01*
X0058800Y0048929D02*
X0058200Y0048929D01*
X0058200Y0049927D02*
X0058800Y0049927D01*
X0058800Y0050926D02*
X0058200Y0050926D01*
X0058200Y0051924D02*
X0058800Y0051924D01*
X0051437Y0047930D02*
X0038917Y0047930D01*
X0039915Y0046932D02*
X0051688Y0046932D01*
X0052250Y0045933D02*
X0040369Y0045933D01*
X0051016Y0058914D02*
X0076047Y0058914D01*
X0075775Y0059053D02*
X0076504Y0058681D01*
X0077282Y0058428D01*
X0078091Y0058300D01*
X0078114Y0058300D01*
X0078114Y0063114D01*
X0073300Y0063114D01*
X0073300Y0063091D01*
X0073428Y0062282D01*
X0073681Y0061504D01*
X0074053Y0060775D01*
X0074534Y0060112D01*
X0075112Y0059534D01*
X0075775Y0059053D01*
X0074734Y0059912D02*
X0052266Y0059912D01*
X0053056Y0060911D02*
X0073983Y0060911D01*
X0073549Y0061909D02*
X0053469Y0061909D01*
X0053700Y0062908D02*
X0073329Y0062908D01*
X0073300Y0063906D02*
X0053700Y0063906D01*
X0053547Y0064905D02*
X0073489Y0064905D01*
X0073888Y0065903D02*
X0053133Y0065903D01*
X0052452Y0066902D02*
X0074548Y0066902D01*
X0075710Y0067900D02*
X0051454Y0067900D01*
X0058200Y0079882D02*
X0058800Y0079882D01*
X0058800Y0080881D02*
X0058200Y0080881D01*
X0058200Y0081879D02*
X0058800Y0081879D01*
X0058800Y0082878D02*
X0058200Y0082878D01*
X0058200Y0083876D02*
X0058800Y0083876D01*
X0058800Y0084875D02*
X0058200Y0084875D01*
X0058200Y0085873D02*
X0058800Y0085873D01*
X0058800Y0086872D02*
X0058200Y0086872D01*
X0046110Y0093862D02*
X0006000Y0093862D01*
X0006000Y0094860D02*
X0044786Y0094860D01*
X0043966Y0095859D02*
X0006000Y0095859D01*
X0006000Y0096857D02*
X0043552Y0096857D01*
X0043300Y0097856D02*
X0006000Y0097856D01*
X0006000Y0098854D02*
X0043300Y0098854D01*
X0043432Y0099853D02*
X0006000Y0099853D01*
X0006000Y0100851D02*
X0043845Y0100851D01*
X0044496Y0101850D02*
X0006000Y0101850D01*
X0006000Y0102848D02*
X0045494Y0102848D01*
X0033307Y0103847D02*
X0028693Y0103847D01*
X0028662Y0103816D02*
X0029984Y0105138D01*
X0030700Y0106865D01*
X0030700Y0115135D01*
X0029984Y0116862D01*
X0028662Y0118184D01*
X0026935Y0118900D01*
X0025065Y0118900D01*
X0023338Y0118184D01*
X0022016Y0116862D01*
X0021300Y0115135D01*
X0021300Y0106865D01*
X0022016Y0105138D01*
X0023338Y0103816D01*
X0025065Y0103100D01*
X0026935Y0103100D01*
X0028662Y0103816D01*
X0029692Y0104845D02*
X0032308Y0104845D01*
X0031723Y0105844D02*
X0030277Y0105844D01*
X0030691Y0106842D02*
X0031309Y0106842D01*
X0031300Y0107841D02*
X0030700Y0107841D01*
X0030700Y0108839D02*
X0031300Y0108839D01*
X0031300Y0109838D02*
X0030700Y0109838D01*
X0030700Y0110836D02*
X0031300Y0110836D01*
X0031300Y0111835D02*
X0030700Y0111835D01*
X0030700Y0112833D02*
X0031300Y0112833D01*
X0031300Y0113832D02*
X0030700Y0113832D01*
X0030700Y0114830D02*
X0031300Y0114830D01*
X0031587Y0115829D02*
X0030413Y0115829D01*
X0029999Y0116827D02*
X0032001Y0116827D01*
X0032979Y0117826D02*
X0029021Y0117826D01*
X0027118Y0118824D02*
X0034882Y0118824D01*
X0037118Y0118824D02*
X0051400Y0118824D01*
X0051400Y0118838D02*
X0051400Y0118800D01*
X0058200Y0118800D01*
X0058200Y0122800D01*
X0055362Y0122800D01*
X0054693Y0122694D01*
X0054049Y0122485D01*
X0053446Y0122178D01*
X0052899Y0121780D01*
X0052420Y0121301D01*
X0052022Y0120754D01*
X0051715Y0120151D01*
X0051506Y0119507D01*
X0051400Y0118838D01*
X0051400Y0118200D02*
X0051400Y0118162D01*
X0051506Y0117493D01*
X0051715Y0116849D01*
X0052022Y0116246D01*
X0052420Y0115699D01*
X0052899Y0115220D01*
X0053446Y0114822D01*
X0054049Y0114515D01*
X0054693Y0114306D01*
X0055362Y0114200D01*
X0058200Y0114200D01*
X0058200Y0118200D01*
X0058800Y0118200D01*
X0058800Y0118800D01*
X0058200Y0118800D01*
X0058200Y0118200D01*
X0051400Y0118200D01*
X0051453Y0117826D02*
X0039021Y0117826D01*
X0039999Y0116827D02*
X0051726Y0116827D01*
X0052326Y0115829D02*
X0040413Y0115829D01*
X0040700Y0114830D02*
X0053435Y0114830D01*
X0058200Y0114830D02*
X0058800Y0114830D01*
X0058800Y0114200D02*
X0061638Y0114200D01*
X0062307Y0114306D01*
X0062951Y0114515D01*
X0063554Y0114822D01*
X0064101Y0115220D01*
X0064580Y0115699D01*
X0064978Y0116246D01*
X0065285Y0116849D01*
X0065494Y0117493D01*
X0065600Y0118162D01*
X0065600Y0118200D01*
X0058800Y0118200D01*
X0058800Y0114200D01*
X0058800Y0115829D02*
X0058200Y0115829D01*
X0058200Y0116827D02*
X0058800Y0116827D01*
X0058800Y0117826D02*
X0058200Y0117826D01*
X0058200Y0118824D02*
X0058800Y0118824D01*
X0058800Y0118800D02*
X0058800Y0122800D01*
X0061638Y0122800D01*
X0062307Y0122694D01*
X0062951Y0122485D01*
X0063554Y0122178D01*
X0064101Y0121780D01*
X0064580Y0121301D01*
X0064978Y0120754D01*
X0065285Y0120151D01*
X0065494Y0119507D01*
X0065600Y0118838D01*
X0065600Y0118800D01*
X0058800Y0118800D01*
X0058800Y0119823D02*
X0058200Y0119823D01*
X0058200Y0120821D02*
X0058800Y0120821D01*
X0058800Y0121820D02*
X0058200Y0121820D01*
X0064046Y0121820D02*
X0072939Y0121820D01*
X0073264Y0122145D02*
X0072055Y0120936D01*
X0071400Y0119355D01*
X0071400Y0117645D01*
X0072055Y0116064D01*
X0073264Y0114855D01*
X0074845Y0114200D01*
X0082155Y0114200D01*
X0083736Y0114855D01*
X0084945Y0116064D01*
X0085600Y0117645D01*
X0085600Y0119355D01*
X0084945Y0120936D01*
X0083736Y0122145D01*
X0082155Y0122800D01*
X0074845Y0122800D01*
X0073264Y0122145D01*
X0072007Y0120821D02*
X0064929Y0120821D01*
X0065391Y0119823D02*
X0071594Y0119823D01*
X0071400Y0118824D02*
X0065600Y0118824D01*
X0065547Y0117826D02*
X0071400Y0117826D01*
X0071739Y0116827D02*
X0065274Y0116827D01*
X0064674Y0115829D02*
X0072290Y0115829D01*
X0073323Y0114830D02*
X0063565Y0114830D01*
X0052954Y0121820D02*
X0006000Y0121820D01*
X0006000Y0122818D02*
X0090300Y0122818D01*
X0089855Y0123264D02*
X0091064Y0122055D01*
X0092645Y0121400D01*
X0094355Y0121400D01*
X0095936Y0122055D01*
X0097145Y0123264D01*
X0097800Y0124845D01*
X0097800Y0132155D01*
X0097145Y0133736D01*
X0095936Y0134945D01*
X0094355Y0135600D01*
X0092645Y0135600D01*
X0091064Y0134945D01*
X0089855Y0133736D01*
X0089200Y0132155D01*
X0089200Y0124845D01*
X0089855Y0123264D01*
X0089626Y0123817D02*
X0006000Y0123817D01*
X0006000Y0124815D02*
X0089212Y0124815D01*
X0089200Y0125814D02*
X0006000Y0125814D01*
X0006000Y0126812D02*
X0089200Y0126812D01*
X0089200Y0127811D02*
X0006000Y0127811D01*
X0006000Y0128809D02*
X0046236Y0128809D01*
X0045554Y0129092D02*
X0047466Y0128300D01*
X0049534Y0128300D01*
X0051446Y0129092D01*
X0052908Y0130554D01*
X0053700Y0132466D01*
X0053700Y0134534D01*
X0052908Y0136446D01*
X0051446Y0137908D01*
X0049534Y0138700D01*
X0047466Y0138700D01*
X0045554Y0137908D01*
X0044092Y0136446D01*
X0043300Y0134534D01*
X0043300Y0132466D01*
X0044092Y0130554D01*
X0045554Y0129092D01*
X0044838Y0129808D02*
X0006000Y0129808D01*
X0006000Y0130806D02*
X0043987Y0130806D01*
X0043574Y0131805D02*
X0006000Y0131805D01*
X0006000Y0132803D02*
X0043300Y0132803D01*
X0043300Y0133802D02*
X0006000Y0133802D01*
X0006000Y0134801D02*
X0043410Y0134801D01*
X0043824Y0135799D02*
X0006000Y0135799D01*
X0006000Y0136798D02*
X0044444Y0136798D01*
X0045442Y0137796D02*
X0006000Y0137796D01*
X0006000Y0138795D02*
X0013388Y0138795D01*
X0013338Y0138816D02*
X0015065Y0138100D01*
X0016935Y0138100D01*
X0018662Y0138816D01*
X0019984Y0140138D01*
X0020700Y0141865D01*
X0020700Y0150135D01*
X0019984Y0151862D01*
X0018662Y0153184D01*
X0016935Y0153900D01*
X0015065Y0153900D01*
X0013338Y0153184D01*
X0012016Y0151862D01*
X0011300Y0150135D01*
X0011300Y0141865D01*
X0012016Y0140138D01*
X0013338Y0138816D01*
X0012360Y0139793D02*
X0006000Y0139793D01*
X0006000Y0140792D02*
X0011745Y0140792D01*
X0011331Y0141790D02*
X0006000Y0141790D01*
X0006000Y0142789D02*
X0011300Y0142789D01*
X0011300Y0143787D02*
X0006000Y0143787D01*
X0006000Y0144786D02*
X0011300Y0144786D01*
X0011300Y0145784D02*
X0006000Y0145784D01*
X0006000Y0146783D02*
X0011300Y0146783D01*
X0011300Y0147781D02*
X0006000Y0147781D01*
X0006000Y0148780D02*
X0011300Y0148780D01*
X0011300Y0149778D02*
X0006000Y0149778D01*
X0006000Y0150777D02*
X0011566Y0150777D01*
X0011979Y0151775D02*
X0006000Y0151775D01*
X0006000Y0152774D02*
X0012927Y0152774D01*
X0014757Y0153772D02*
X0006000Y0153772D01*
X0006000Y0154771D02*
X0051592Y0154771D01*
X0051506Y0154507D02*
X0051715Y0155151D01*
X0052022Y0155754D01*
X0052420Y0156301D01*
X0052899Y0156780D01*
X0053446Y0157178D01*
X0054049Y0157485D01*
X0054693Y0157694D01*
X0055362Y0157800D01*
X0058200Y0157800D01*
X0058200Y0153800D01*
X0058800Y0153800D01*
X0058800Y0157800D01*
X0061638Y0157800D01*
X0062307Y0157694D01*
X0062951Y0157485D01*
X0063554Y0157178D01*
X0064101Y0156780D01*
X0064580Y0156301D01*
X0064978Y0155754D01*
X0065285Y0155151D01*
X0065494Y0154507D01*
X0065600Y0153838D01*
X0065600Y0153800D01*
X0058800Y0153800D01*
X0058800Y0153200D01*
X0065600Y0153200D01*
X0065600Y0153162D01*
X0065494Y0152493D01*
X0065285Y0151849D01*
X0064978Y0151246D01*
X0064580Y0150699D01*
X0064101Y0150220D01*
X0063554Y0149822D01*
X0062951Y0149515D01*
X0062307Y0149306D01*
X0061638Y0149200D01*
X0058800Y0149200D01*
X0058800Y0153200D01*
X0058200Y0153200D01*
X0058200Y0149200D01*
X0055362Y0149200D01*
X0054693Y0149306D01*
X0054049Y0149515D01*
X0053446Y0149822D01*
X0052899Y0150220D01*
X0052420Y0150699D01*
X0052022Y0151246D01*
X0051715Y0151849D01*
X0051506Y0152493D01*
X0051400Y0153162D01*
X0051400Y0153200D01*
X0058200Y0153200D01*
X0058200Y0153800D01*
X0051400Y0153800D01*
X0051400Y0153838D01*
X0051506Y0154507D01*
X0052034Y0155769D02*
X0006000Y0155769D01*
X0006000Y0156768D02*
X0052887Y0156768D01*
X0055149Y0157766D02*
X0006000Y0157766D01*
X0006000Y0158765D02*
X0089200Y0158765D01*
X0089200Y0159763D02*
X0006000Y0159763D01*
X0006000Y0160762D02*
X0089200Y0160762D01*
X0089200Y0161760D02*
X0006000Y0161760D01*
X0006000Y0162759D02*
X0089450Y0162759D01*
X0089876Y0163757D02*
X0006000Y0163757D01*
X0006000Y0166753D02*
X0226000Y0166753D01*
X0226000Y0167751D02*
X0006000Y0167751D01*
X0006000Y0168750D02*
X0014179Y0168750D01*
X0013301Y0169113D02*
X0015507Y0168200D01*
X0017893Y0168200D01*
X0020099Y0169113D01*
X0021787Y0170801D01*
X0022700Y0173007D01*
X0022700Y0175393D01*
X0021787Y0177599D01*
X0020099Y0179287D01*
X0017893Y0180200D01*
X0015507Y0180200D01*
X0013301Y0179287D01*
X0011613Y0177599D01*
X0010700Y0175393D01*
X0010700Y0173007D01*
X0011613Y0170801D01*
X0013301Y0169113D01*
X0012666Y0169748D02*
X0006000Y0169748D01*
X0006000Y0170747D02*
X0011668Y0170747D01*
X0011222Y0171745D02*
X0006000Y0171745D01*
X0006000Y0172744D02*
X0010809Y0172744D01*
X0010700Y0173742D02*
X0006000Y0173742D01*
X0006000Y0174741D02*
X0010700Y0174741D01*
X0010843Y0175739D02*
X0006000Y0175739D01*
X0006000Y0176738D02*
X0011257Y0176738D01*
X0011751Y0177737D02*
X0006000Y0177737D01*
X0006000Y0178735D02*
X0012750Y0178735D01*
X0014380Y0179734D02*
X0006000Y0179734D01*
X0006000Y0180732D02*
X0226000Y0180732D01*
X0226000Y0179734D02*
X0215920Y0179734D01*
X0216999Y0179287D02*
X0214793Y0180200D01*
X0212407Y0180200D01*
X0210201Y0179287D01*
X0208513Y0177599D01*
X0207600Y0175393D01*
X0207600Y0173007D01*
X0208513Y0170801D01*
X0210201Y0169113D01*
X0212407Y0168200D01*
X0214793Y0168200D01*
X0216999Y0169113D01*
X0218687Y0170801D01*
X0219600Y0173007D01*
X0219600Y0175393D01*
X0218687Y0177599D01*
X0216999Y0179287D01*
X0217550Y0178735D02*
X0226000Y0178735D01*
X0226000Y0177737D02*
X0218549Y0177737D01*
X0219043Y0176738D02*
X0226000Y0176738D01*
X0226000Y0175739D02*
X0219457Y0175739D01*
X0219600Y0174741D02*
X0226000Y0174741D01*
X0226000Y0173742D02*
X0219600Y0173742D01*
X0219491Y0172744D02*
X0226000Y0172744D01*
X0226000Y0171745D02*
X0219078Y0171745D01*
X0218632Y0170747D02*
X0226000Y0170747D01*
X0226000Y0169748D02*
X0217634Y0169748D01*
X0216121Y0168750D02*
X0226000Y0168750D01*
X0226000Y0181731D02*
X0006000Y0181731D01*
X0006000Y0182729D02*
X0226000Y0182729D01*
X0226000Y0183728D02*
X0006000Y0183728D01*
X0006000Y0184726D02*
X0226000Y0184726D01*
X0226000Y0185725D02*
X0006000Y0185725D01*
X0019020Y0179734D02*
X0211280Y0179734D01*
X0209650Y0178735D02*
X0020650Y0178735D01*
X0021649Y0177737D02*
X0208651Y0177737D01*
X0208157Y0176738D02*
X0022143Y0176738D01*
X0022557Y0175739D02*
X0207743Y0175739D01*
X0207600Y0174741D02*
X0022700Y0174741D01*
X0022700Y0173742D02*
X0207600Y0173742D01*
X0207709Y0172744D02*
X0022591Y0172744D01*
X0022178Y0171745D02*
X0208122Y0171745D01*
X0208568Y0170747D02*
X0021732Y0170747D01*
X0020734Y0169748D02*
X0209566Y0169748D01*
X0211079Y0168750D02*
X0019221Y0168750D01*
X0017243Y0153772D02*
X0024757Y0153772D01*
X0025065Y0153900D02*
X0023338Y0153184D01*
X0022016Y0151862D01*
X0021300Y0150135D01*
X0021300Y0141865D01*
X0022016Y0140138D01*
X0023338Y0138816D01*
X0025065Y0138100D01*
X0026935Y0138100D01*
X0028662Y0138816D01*
X0029984Y0140138D01*
X0030700Y0141865D01*
X0030700Y0150135D01*
X0029984Y0151862D01*
X0028662Y0153184D01*
X0026935Y0153900D01*
X0025065Y0153900D01*
X0027243Y0153772D02*
X0034757Y0153772D01*
X0035065Y0153900D02*
X0033338Y0153184D01*
X0032016Y0151862D01*
X0031300Y0150135D01*
X0031300Y0141865D01*
X0032016Y0140138D01*
X0033338Y0138816D01*
X0035065Y0138100D01*
X0036935Y0138100D01*
X0038662Y0138816D01*
X0039984Y0140138D01*
X0040700Y0141865D01*
X0040700Y0150135D01*
X0039984Y0151862D01*
X0038662Y0153184D01*
X0036935Y0153900D01*
X0035065Y0153900D01*
X0037243Y0153772D02*
X0058200Y0153772D01*
X0058800Y0153772D02*
X0071400Y0153772D01*
X0071400Y0154355D02*
X0071400Y0152645D01*
X0072055Y0151064D01*
X0073264Y0149855D01*
X0074845Y0149200D01*
X0082155Y0149200D01*
X0083736Y0149855D01*
X0084945Y0151064D01*
X0085600Y0152645D01*
X0085600Y0154355D01*
X0084945Y0155936D01*
X0083736Y0157145D01*
X0082155Y0157800D01*
X0074845Y0157800D01*
X0073264Y0157145D01*
X0072055Y0155936D01*
X0071400Y0154355D01*
X0071572Y0154771D02*
X0065408Y0154771D01*
X0064966Y0155769D02*
X0071986Y0155769D01*
X0072887Y0156768D02*
X0064113Y0156768D01*
X0061851Y0157766D02*
X0074763Y0157766D01*
X0071400Y0152774D02*
X0065539Y0152774D01*
X0065247Y0151775D02*
X0071760Y0151775D01*
X0072342Y0150777D02*
X0064636Y0150777D01*
X0063467Y0149778D02*
X0073449Y0149778D01*
X0072201Y0147781D02*
X0108390Y0147781D01*
X0107392Y0148780D02*
X0040700Y0148780D01*
X0040700Y0149778D02*
X0053533Y0149778D01*
X0052363Y0150777D02*
X0040434Y0150777D01*
X0040021Y0151775D02*
X0051753Y0151775D01*
X0051461Y0152774D02*
X0039073Y0152774D01*
X0040700Y0147781D02*
X0064799Y0147781D01*
X0062902Y0146783D02*
X0040700Y0146783D01*
X0040700Y0145784D02*
X0061992Y0145784D01*
X0061578Y0144786D02*
X0040700Y0144786D01*
X0040700Y0143787D02*
X0061400Y0143787D01*
X0061400Y0142789D02*
X0040700Y0142789D01*
X0040669Y0141790D02*
X0061754Y0141790D01*
X0062327Y0140792D02*
X0040255Y0140792D01*
X0039640Y0139793D02*
X0063413Y0139793D01*
X0068500Y0143500D02*
X0069000Y0143000D01*
X0074000Y0143000D01*
X0076000Y0141000D01*
X0104000Y0141000D01*
X0113000Y0132000D01*
X0113000Y0129000D01*
X0113500Y0128500D01*
X0114000Y0128000D01*
X0114000Y0125000D01*
X0118000Y0121000D01*
X0118000Y0115000D01*
X0114000Y0111000D01*
X0113500Y0111000D01*
X0109685Y0113832D02*
X0040700Y0113832D01*
X0051609Y0119823D02*
X0006000Y0119823D01*
X0006000Y0120821D02*
X0052071Y0120821D01*
X0050764Y0128809D02*
X0076252Y0128809D01*
X0076504Y0128681D02*
X0077282Y0128428D01*
X0078091Y0128300D01*
X0078114Y0128300D01*
X0078114Y0133114D01*
X0078886Y0133114D01*
X0078886Y0133886D01*
X0083700Y0133886D01*
X0083700Y0133909D01*
X0083572Y0134718D01*
X0083319Y0135496D01*
X0082947Y0136225D01*
X0082466Y0136888D01*
X0081888Y0137466D01*
X0081225Y0137947D01*
X0080496Y0138319D01*
X0079718Y0138572D01*
X0078909Y0138700D01*
X0078886Y0138700D01*
X0078886Y0133886D01*
X0078114Y0133886D01*
X0078114Y0138700D01*
X0078091Y0138700D01*
X0077282Y0138572D01*
X0076504Y0138319D01*
X0075775Y0137947D01*
X0075112Y0137466D01*
X0074534Y0136888D01*
X0074053Y0136225D01*
X0073681Y0135496D01*
X0073428Y0134718D01*
X0073300Y0133909D01*
X0073300Y0133886D01*
X0078114Y0133886D01*
X0078114Y0133114D01*
X0073300Y0133114D01*
X0073300Y0133091D01*
X0073428Y0132282D01*
X0073681Y0131504D01*
X0074053Y0130775D01*
X0074534Y0130112D01*
X0075112Y0129534D01*
X0075775Y0129053D01*
X0076504Y0128681D01*
X0078114Y0128809D02*
X0078886Y0128809D01*
X0078886Y0128300D02*
X0078909Y0128300D01*
X0079718Y0128428D01*
X0080496Y0128681D01*
X0081225Y0129053D01*
X0081888Y0129534D01*
X0082466Y0130112D01*
X0082947Y0130775D01*
X0083319Y0131504D01*
X0083572Y0132282D01*
X0083700Y0133091D01*
X0083700Y0133114D01*
X0078886Y0133114D01*
X0078886Y0128300D01*
X0078886Y0129808D02*
X0078114Y0129808D01*
X0078114Y0130806D02*
X0078886Y0130806D01*
X0078886Y0131805D02*
X0078114Y0131805D01*
X0078114Y0132803D02*
X0078886Y0132803D01*
X0078886Y0133802D02*
X0089921Y0133802D01*
X0089468Y0132803D02*
X0083654Y0132803D01*
X0083417Y0131805D02*
X0089200Y0131805D01*
X0089200Y0130806D02*
X0082964Y0130806D01*
X0082162Y0129808D02*
X0089200Y0129808D01*
X0089200Y0128809D02*
X0080748Y0128809D01*
X0078114Y0133802D02*
X0053700Y0133802D01*
X0053700Y0132803D02*
X0073345Y0132803D01*
X0073583Y0131805D02*
X0053426Y0131805D01*
X0053013Y0130806D02*
X0074036Y0130806D01*
X0074838Y0129808D02*
X0052162Y0129808D01*
X0053590Y0134801D02*
X0073455Y0134801D01*
X0073835Y0135799D02*
X0053176Y0135799D01*
X0052556Y0136798D02*
X0074468Y0136798D01*
X0075566Y0137796D02*
X0051558Y0137796D01*
X0038612Y0138795D02*
X0103377Y0138795D01*
X0104376Y0137796D02*
X0081434Y0137796D01*
X0082532Y0136798D02*
X0105374Y0136798D01*
X0106373Y0135799D02*
X0083165Y0135799D01*
X0083545Y0134801D02*
X0090919Y0134801D01*
X0096081Y0134801D02*
X0100919Y0134801D01*
X0101064Y0134945D02*
X0099855Y0133736D01*
X0099200Y0132155D01*
X0099200Y0124845D01*
X0099855Y0123264D01*
X0101064Y0122055D01*
X0102645Y0121400D01*
X0104355Y0121400D01*
X0105936Y0122055D01*
X0107145Y0123264D01*
X0107800Y0124845D01*
X0107800Y0132155D01*
X0107145Y0133736D01*
X0105936Y0134945D01*
X0104355Y0135600D01*
X0102645Y0135600D01*
X0101064Y0134945D01*
X0099921Y0133802D02*
X0097079Y0133802D01*
X0097532Y0132803D02*
X0099468Y0132803D01*
X0099200Y0131805D02*
X0097800Y0131805D01*
X0097800Y0130806D02*
X0099200Y0130806D01*
X0099200Y0129808D02*
X0097800Y0129808D01*
X0097800Y0128809D02*
X0099200Y0128809D01*
X0099200Y0127811D02*
X0097800Y0127811D01*
X0097800Y0126812D02*
X0099200Y0126812D01*
X0099200Y0125814D02*
X0097800Y0125814D01*
X0097788Y0124815D02*
X0099212Y0124815D01*
X0099626Y0123817D02*
X0097374Y0123817D01*
X0096699Y0122818D02*
X0100300Y0122818D01*
X0101631Y0121820D02*
X0095369Y0121820D01*
X0091631Y0121820D02*
X0084061Y0121820D01*
X0084993Y0120821D02*
X0115350Y0120821D01*
X0116000Y0119823D02*
X0085406Y0119823D01*
X0085600Y0118824D02*
X0116000Y0118824D01*
X0116000Y0117826D02*
X0085600Y0117826D01*
X0085261Y0116827D02*
X0116000Y0116827D01*
X0116000Y0115829D02*
X0084710Y0115829D01*
X0083677Y0114830D02*
X0110684Y0114830D01*
X0111631Y0121820D02*
X0105369Y0121820D01*
X0106699Y0122818D02*
X0110300Y0122818D01*
X0109626Y0123817D02*
X0107374Y0123817D01*
X0107788Y0124815D02*
X0109212Y0124815D01*
X0109200Y0125814D02*
X0107800Y0125814D01*
X0107800Y0126812D02*
X0109200Y0126812D01*
X0109200Y0127811D02*
X0107800Y0127811D01*
X0107800Y0128809D02*
X0109200Y0128809D01*
X0109200Y0129808D02*
X0107800Y0129808D01*
X0107800Y0130806D02*
X0109200Y0130806D01*
X0109200Y0131805D02*
X0107800Y0131805D01*
X0107532Y0132803D02*
X0109368Y0132803D01*
X0108370Y0133802D02*
X0107079Y0133802D01*
X0107371Y0134801D02*
X0106081Y0134801D01*
X0106393Y0149778D02*
X0083551Y0149778D01*
X0084658Y0150777D02*
X0105395Y0150777D01*
X0101739Y0151775D02*
X0095261Y0151775D01*
X0096655Y0152774D02*
X0100345Y0152774D01*
X0099644Y0153772D02*
X0097356Y0153772D01*
X0097769Y0154771D02*
X0099231Y0154771D01*
X0099200Y0155769D02*
X0097800Y0155769D01*
X0097800Y0156768D02*
X0099200Y0156768D01*
X0099200Y0157766D02*
X0097800Y0157766D01*
X0091739Y0151775D02*
X0085240Y0151775D01*
X0085600Y0152774D02*
X0090345Y0152774D01*
X0089644Y0153772D02*
X0085600Y0153772D01*
X0085428Y0154771D02*
X0089231Y0154771D01*
X0089200Y0155769D02*
X0085014Y0155769D01*
X0084113Y0156768D02*
X0089200Y0156768D01*
X0089200Y0157766D02*
X0082237Y0157766D01*
X0074378Y0139793D02*
X0073587Y0139793D01*
X0078114Y0137796D02*
X0078886Y0137796D01*
X0078886Y0136798D02*
X0078114Y0136798D01*
X0078114Y0135799D02*
X0078886Y0135799D01*
X0078886Y0134801D02*
X0078114Y0134801D01*
X0058800Y0149778D02*
X0058200Y0149778D01*
X0058200Y0150777D02*
X0058800Y0150777D01*
X0058800Y0151775D02*
X0058200Y0151775D01*
X0058200Y0152774D02*
X0058800Y0152774D01*
X0058800Y0154771D02*
X0058200Y0154771D01*
X0058200Y0155769D02*
X0058800Y0155769D01*
X0058800Y0156768D02*
X0058200Y0156768D01*
X0058200Y0157766D02*
X0058800Y0157766D01*
X0032927Y0152774D02*
X0029073Y0152774D01*
X0030021Y0151775D02*
X0031979Y0151775D01*
X0031566Y0150777D02*
X0030434Y0150777D01*
X0030700Y0149778D02*
X0031300Y0149778D01*
X0031300Y0148780D02*
X0030700Y0148780D01*
X0030700Y0147781D02*
X0031300Y0147781D01*
X0031300Y0146783D02*
X0030700Y0146783D01*
X0030700Y0145784D02*
X0031300Y0145784D01*
X0031300Y0144786D02*
X0030700Y0144786D01*
X0030700Y0143787D02*
X0031300Y0143787D01*
X0031300Y0142789D02*
X0030700Y0142789D01*
X0030669Y0141790D02*
X0031331Y0141790D01*
X0031745Y0140792D02*
X0030255Y0140792D01*
X0029640Y0139793D02*
X0032360Y0139793D01*
X0033388Y0138795D02*
X0028612Y0138795D01*
X0023388Y0138795D02*
X0018612Y0138795D01*
X0019640Y0139793D02*
X0022360Y0139793D01*
X0021745Y0140792D02*
X0020255Y0140792D01*
X0020669Y0141790D02*
X0021331Y0141790D01*
X0021300Y0142789D02*
X0020700Y0142789D01*
X0020700Y0143787D02*
X0021300Y0143787D01*
X0021300Y0144786D02*
X0020700Y0144786D01*
X0020700Y0145784D02*
X0021300Y0145784D01*
X0021300Y0146783D02*
X0020700Y0146783D01*
X0020700Y0147781D02*
X0021300Y0147781D01*
X0021300Y0148780D02*
X0020700Y0148780D01*
X0020700Y0149778D02*
X0021300Y0149778D01*
X0021566Y0150777D02*
X0020434Y0150777D01*
X0020021Y0151775D02*
X0021979Y0151775D01*
X0022927Y0152774D02*
X0019073Y0152774D01*
X0016935Y0118900D02*
X0015065Y0118900D01*
X0013338Y0118184D01*
X0012016Y0116862D01*
X0011300Y0115135D01*
X0011300Y0106865D01*
X0012016Y0105138D01*
X0013338Y0103816D01*
X0015065Y0103100D01*
X0016935Y0103100D01*
X0018662Y0103816D01*
X0019984Y0105138D01*
X0020700Y0106865D01*
X0020700Y0115135D01*
X0019984Y0116862D01*
X0018662Y0118184D01*
X0016935Y0118900D01*
X0017118Y0118824D02*
X0024882Y0118824D01*
X0022979Y0117826D02*
X0019021Y0117826D01*
X0019999Y0116827D02*
X0022001Y0116827D01*
X0021587Y0115829D02*
X0020413Y0115829D01*
X0020700Y0114830D02*
X0021300Y0114830D01*
X0021300Y0113832D02*
X0020700Y0113832D01*
X0020700Y0112833D02*
X0021300Y0112833D01*
X0021300Y0111835D02*
X0020700Y0111835D01*
X0020700Y0110836D02*
X0021300Y0110836D01*
X0021300Y0109838D02*
X0020700Y0109838D01*
X0020700Y0108839D02*
X0021300Y0108839D01*
X0021300Y0107841D02*
X0020700Y0107841D01*
X0020691Y0106842D02*
X0021309Y0106842D01*
X0021723Y0105844D02*
X0020277Y0105844D01*
X0019692Y0104845D02*
X0022308Y0104845D01*
X0023307Y0103847D02*
X0018693Y0103847D01*
X0013307Y0103847D02*
X0006000Y0103847D01*
X0006000Y0104845D02*
X0012308Y0104845D01*
X0011723Y0105844D02*
X0006000Y0105844D01*
X0006000Y0106842D02*
X0011309Y0106842D01*
X0011300Y0107841D02*
X0006000Y0107841D01*
X0006000Y0108839D02*
X0011300Y0108839D01*
X0011300Y0109838D02*
X0006000Y0109838D01*
X0006000Y0110836D02*
X0011300Y0110836D01*
X0011300Y0111835D02*
X0006000Y0111835D01*
X0006000Y0112833D02*
X0011300Y0112833D01*
X0011300Y0113832D02*
X0006000Y0113832D01*
X0006000Y0114830D02*
X0011300Y0114830D01*
X0011587Y0115829D02*
X0006000Y0115829D01*
X0006000Y0116827D02*
X0012001Y0116827D01*
X0012979Y0117826D02*
X0006000Y0117826D01*
X0006000Y0118824D02*
X0014882Y0118824D01*
X0078114Y0067900D02*
X0078886Y0067900D01*
X0078886Y0066902D02*
X0078114Y0066902D01*
X0078114Y0065903D02*
X0078886Y0065903D01*
X0078886Y0064905D02*
X0078114Y0064905D01*
X0078114Y0063906D02*
X0078886Y0063906D01*
X0078886Y0062908D02*
X0078114Y0062908D01*
X0078114Y0061909D02*
X0078886Y0061909D01*
X0078886Y0060911D02*
X0078114Y0060911D01*
X0078114Y0059912D02*
X0078886Y0059912D01*
X0078886Y0058914D02*
X0078114Y0058914D01*
X0083957Y0051924D02*
X0092070Y0051924D01*
X0091400Y0050926D02*
X0084950Y0050926D01*
X0078886Y0032952D02*
X0078114Y0032952D01*
X0078114Y0031954D02*
X0078886Y0031954D01*
X0078886Y0030955D02*
X0078114Y0030955D01*
X0078114Y0029957D02*
X0078886Y0029957D01*
X0078886Y0028958D02*
X0078114Y0028958D01*
X0078114Y0027960D02*
X0078886Y0027960D01*
X0078886Y0026961D02*
X0078114Y0026961D01*
X0078114Y0025963D02*
X0078886Y0025963D01*
X0078886Y0024964D02*
X0078114Y0024964D01*
X0078114Y0023966D02*
X0078886Y0023966D01*
X0128200Y0111835D02*
X0128800Y0111835D01*
X0128800Y0112833D02*
X0128662Y0112833D01*
X0129660Y0113832D02*
X0129685Y0113832D01*
X0130000Y0114830D02*
X0130684Y0114830D01*
X0130000Y0121820D02*
X0131631Y0121820D01*
X0130300Y0122818D02*
X0130000Y0122818D01*
X0126000Y0121820D02*
X0125369Y0121820D01*
X0135369Y0121820D02*
X0141631Y0121820D01*
X0141064Y0122055D02*
X0142645Y0121400D01*
X0144355Y0121400D01*
X0145936Y0122055D01*
X0147145Y0123264D01*
X0147800Y0124845D01*
X0147800Y0132155D01*
X0147145Y0133736D01*
X0145936Y0134945D01*
X0144355Y0135600D01*
X0142645Y0135600D01*
X0141064Y0134945D01*
X0139855Y0133736D01*
X0139200Y0132155D01*
X0139200Y0124845D01*
X0139855Y0123264D01*
X0141064Y0122055D01*
X0140300Y0122818D02*
X0136699Y0122818D01*
X0137374Y0123817D02*
X0139626Y0123817D01*
X0139212Y0124815D02*
X0137788Y0124815D01*
X0137800Y0125814D02*
X0139200Y0125814D01*
X0139200Y0126812D02*
X0137800Y0126812D01*
X0137800Y0127811D02*
X0139200Y0127811D01*
X0139200Y0128809D02*
X0137800Y0128809D01*
X0137800Y0129808D02*
X0139200Y0129808D01*
X0139200Y0130806D02*
X0137800Y0130806D01*
X0137800Y0131805D02*
X0139200Y0131805D01*
X0139468Y0132803D02*
X0137532Y0132803D01*
X0137079Y0133802D02*
X0139921Y0133802D01*
X0140919Y0134801D02*
X0136081Y0134801D01*
X0146081Y0134801D02*
X0150919Y0134801D01*
X0149921Y0133802D02*
X0147079Y0133802D01*
X0147532Y0132803D02*
X0149468Y0132803D01*
X0149200Y0131805D02*
X0147800Y0131805D01*
X0147800Y0130806D02*
X0149200Y0130806D01*
X0149200Y0129808D02*
X0147800Y0129808D01*
X0147800Y0128809D02*
X0149200Y0128809D01*
X0149200Y0127811D02*
X0147800Y0127811D01*
X0147800Y0126812D02*
X0149200Y0126812D01*
X0149200Y0125814D02*
X0147800Y0125814D01*
X0147788Y0124815D02*
X0149212Y0124815D01*
X0149626Y0123817D02*
X0147374Y0123817D01*
X0146699Y0122818D02*
X0150300Y0122818D01*
X0151631Y0121820D02*
X0145369Y0121820D01*
X0159032Y0137796D02*
X0160000Y0137796D01*
X0160000Y0138795D02*
X0158034Y0138795D01*
X0157035Y0139793D02*
X0160000Y0139793D01*
X0160000Y0140792D02*
X0156037Y0140792D01*
X0155038Y0141790D02*
X0160000Y0141790D01*
X0160000Y0142789D02*
X0154040Y0142789D01*
X0153041Y0143787D02*
X0160000Y0143787D01*
X0160000Y0144786D02*
X0152043Y0144786D01*
X0151044Y0145784D02*
X0160000Y0145784D01*
X0159389Y0146783D02*
X0150046Y0146783D01*
X0131739Y0151775D02*
X0125269Y0151775D01*
X0125151Y0151715D02*
X0125754Y0152022D01*
X0126301Y0152420D01*
X0126780Y0152899D01*
X0127178Y0153446D01*
X0127485Y0154049D01*
X0127694Y0154693D01*
X0127800Y0155362D01*
X0127800Y0158200D01*
X0123800Y0158200D01*
X0123800Y0158800D01*
X0127800Y0158800D01*
X0127800Y0161638D01*
X0127694Y0162307D01*
X0127485Y0162951D01*
X0127178Y0163554D01*
X0126780Y0164101D01*
X0126301Y0164580D01*
X0125754Y0164978D01*
X0125151Y0165285D01*
X0124507Y0165494D01*
X0123838Y0165600D01*
X0123800Y0165600D01*
X0123800Y0158800D01*
X0123200Y0158800D01*
X0123200Y0165600D01*
X0123162Y0165600D01*
X0122493Y0165494D01*
X0121849Y0165285D01*
X0121246Y0164978D01*
X0120699Y0164580D01*
X0120220Y0164101D01*
X0119822Y0163554D01*
X0119515Y0162951D01*
X0119306Y0162307D01*
X0119200Y0161638D01*
X0119200Y0158800D01*
X0123200Y0158800D01*
X0123200Y0158200D01*
X0123800Y0158200D01*
X0123800Y0151400D01*
X0123838Y0151400D01*
X0124507Y0151506D01*
X0125151Y0151715D01*
X0123800Y0151775D02*
X0123200Y0151775D01*
X0123200Y0151400D02*
X0123200Y0158200D01*
X0119200Y0158200D01*
X0119200Y0155362D01*
X0119306Y0154693D01*
X0119515Y0154049D01*
X0119822Y0153446D01*
X0120220Y0152899D01*
X0120699Y0152420D01*
X0121246Y0152022D01*
X0121849Y0151715D01*
X0122493Y0151506D01*
X0123162Y0151400D01*
X0123200Y0151400D01*
X0123200Y0152774D02*
X0123800Y0152774D01*
X0123800Y0153772D02*
X0123200Y0153772D01*
X0123200Y0154771D02*
X0123800Y0154771D01*
X0123800Y0155769D02*
X0123200Y0155769D01*
X0123200Y0156768D02*
X0123800Y0156768D01*
X0123800Y0157766D02*
X0123200Y0157766D01*
X0123200Y0158765D02*
X0117800Y0158765D01*
X0117800Y0159763D02*
X0119200Y0159763D01*
X0119200Y0160762D02*
X0117800Y0160762D01*
X0117800Y0161760D02*
X0119219Y0161760D01*
X0119453Y0162759D02*
X0117550Y0162759D01*
X0117800Y0162155D02*
X0117145Y0163736D01*
X0115936Y0164945D01*
X0114355Y0165600D01*
X0112645Y0165600D01*
X0111064Y0164945D01*
X0109855Y0163736D01*
X0109200Y0162155D01*
X0109200Y0154845D01*
X0109855Y0153264D01*
X0111064Y0152055D01*
X0112645Y0151400D01*
X0114355Y0151400D01*
X0115936Y0152055D01*
X0117145Y0153264D01*
X0117800Y0154845D01*
X0117800Y0162155D01*
X0117124Y0163757D02*
X0119970Y0163757D01*
X0120941Y0164756D02*
X0116125Y0164756D01*
X0110875Y0164756D02*
X0106125Y0164756D01*
X0107124Y0163757D02*
X0109876Y0163757D01*
X0109450Y0162759D02*
X0107550Y0162759D01*
X0107800Y0161760D02*
X0109200Y0161760D01*
X0109200Y0160762D02*
X0107800Y0160762D01*
X0107800Y0159763D02*
X0109200Y0159763D01*
X0109200Y0158765D02*
X0107800Y0158765D01*
X0107800Y0157766D02*
X0109200Y0157766D01*
X0109200Y0156768D02*
X0107800Y0156768D01*
X0107800Y0155769D02*
X0109200Y0155769D01*
X0109231Y0154771D02*
X0107769Y0154771D01*
X0108056Y0153772D02*
X0109644Y0153772D01*
X0109055Y0152774D02*
X0110345Y0152774D01*
X0110053Y0151775D02*
X0111739Y0151775D01*
X0115261Y0151775D02*
X0121731Y0151775D01*
X0120345Y0152774D02*
X0116655Y0152774D01*
X0117356Y0153772D02*
X0119656Y0153772D01*
X0119294Y0154771D02*
X0117769Y0154771D01*
X0117800Y0155769D02*
X0119200Y0155769D01*
X0119200Y0156768D02*
X0117800Y0156768D01*
X0117800Y0157766D02*
X0119200Y0157766D01*
X0123200Y0159763D02*
X0123800Y0159763D01*
X0123800Y0158765D02*
X0129200Y0158765D01*
X0129200Y0159763D02*
X0127800Y0159763D01*
X0127800Y0160762D02*
X0129200Y0160762D01*
X0129200Y0161760D02*
X0127781Y0161760D01*
X0127547Y0162759D02*
X0129450Y0162759D01*
X0129876Y0163757D02*
X0127030Y0163757D01*
X0126059Y0164756D02*
X0130875Y0164756D01*
X0123800Y0164756D02*
X0123200Y0164756D01*
X0123200Y0163757D02*
X0123800Y0163757D01*
X0123800Y0162759D02*
X0123200Y0162759D01*
X0123200Y0161760D02*
X0123800Y0161760D01*
X0123800Y0160762D02*
X0123200Y0160762D01*
X0127800Y0157766D02*
X0129200Y0157766D01*
X0129200Y0156768D02*
X0127800Y0156768D01*
X0127800Y0155769D02*
X0129200Y0155769D01*
X0129231Y0154771D02*
X0127706Y0154771D01*
X0127344Y0153772D02*
X0129644Y0153772D01*
X0130345Y0152774D02*
X0126655Y0152774D01*
D18*
X0130000Y0138000D03*
X0160000Y0102000D03*
M02*
