G75*
%MOIN*%
%OFA0B0*%
%FSLAX25Y25*%
%IPPOS*%
%LPD*%
%AMOC8*
5,1,8,0,0,1.08239X$1,22.5*
%
%ADD10C,0.09800*%
%ADD11C,0.06400*%
%ADD12C,0.07200*%
%ADD13C,0.08200*%
%ADD14OC8,0.07200*%
%ADD15R,0.07300X0.07300*%
%ADD16C,0.07300*%
%ADD17R,0.08200X0.08200*%
D10*
X0016700Y0016700D03*
X0016700Y0174200D03*
X0213600Y0174200D03*
X0213600Y0016700D03*
D11*
X0153500Y0125700D02*
X0153500Y0131300D01*
X0143500Y0131300D02*
X0143500Y0125700D01*
X0133500Y0125700D02*
X0133500Y0131300D01*
X0123500Y0131300D02*
X0123500Y0125700D01*
X0113500Y0125700D02*
X0113500Y0131300D01*
X0103500Y0131300D02*
X0103500Y0125700D01*
X0093500Y0125700D02*
X0093500Y0131300D01*
X0081300Y0118500D02*
X0075700Y0118500D01*
X0071300Y0108500D02*
X0065700Y0108500D01*
X0061300Y0118500D02*
X0055700Y0118500D01*
X0065700Y0143500D02*
X0071300Y0143500D01*
X0075700Y0153500D02*
X0081300Y0153500D01*
X0093500Y0155700D02*
X0093500Y0161300D01*
X0103500Y0161300D02*
X0103500Y0155700D01*
X0113500Y0155700D02*
X0113500Y0161300D01*
X0123500Y0161300D02*
X0123500Y0155700D01*
X0133500Y0155700D02*
X0133500Y0161300D01*
X0143500Y0161300D02*
X0143500Y0155700D01*
X0153500Y0155700D02*
X0153500Y0161300D01*
X0061300Y0153500D02*
X0055700Y0153500D01*
X0055700Y0083500D02*
X0061300Y0083500D01*
X0065700Y0073500D02*
X0071300Y0073500D01*
X0075700Y0083500D02*
X0081300Y0083500D01*
X0081300Y0048500D02*
X0075700Y0048500D01*
X0071300Y0038500D02*
X0065700Y0038500D01*
X0061300Y0048500D02*
X0055700Y0048500D01*
D12*
X0036000Y0044200D02*
X0036000Y0037800D01*
X0026000Y0037800D02*
X0026000Y0044200D01*
X0016000Y0044200D02*
X0016000Y0037800D01*
X0016000Y0072800D02*
X0016000Y0079200D01*
X0026000Y0079200D02*
X0026000Y0072800D01*
X0036000Y0072800D02*
X0036000Y0079200D01*
X0036000Y0107800D02*
X0036000Y0114200D01*
X0026000Y0114200D02*
X0026000Y0107800D01*
X0016000Y0107800D02*
X0016000Y0114200D01*
X0016000Y0142800D02*
X0016000Y0149200D01*
X0026000Y0149200D02*
X0026000Y0142800D01*
X0036000Y0142800D02*
X0036000Y0149200D01*
X0165300Y0063500D02*
X0171700Y0063500D01*
X0171700Y0053500D02*
X0165300Y0053500D01*
X0165300Y0043500D02*
X0171700Y0043500D01*
X0171700Y0033500D02*
X0165300Y0033500D01*
D13*
X0131000Y0048500D03*
X0131000Y0058500D03*
X0096000Y0058500D03*
X0096000Y0048500D03*
X0078500Y0063500D03*
X0048500Y0063500D03*
X0048500Y0098500D03*
X0078500Y0098500D03*
X0078500Y0133500D03*
X0048500Y0133500D03*
X0173500Y0136000D03*
X0173500Y0146000D03*
X0173500Y0156000D03*
X0173500Y0126000D03*
X0173500Y0116000D03*
X0173500Y0106000D03*
X0173500Y0096000D03*
X0173500Y0086000D03*
X0078500Y0028500D03*
X0048500Y0028500D03*
D14*
X0113500Y0081000D03*
X0123500Y0081000D03*
X0133500Y0081000D03*
X0133500Y0091000D03*
X0123500Y0091000D03*
X0113500Y0091000D03*
X0113500Y0101000D03*
X0123500Y0101000D03*
X0133500Y0101000D03*
X0133500Y0111000D03*
X0123500Y0111000D03*
X0113500Y0111000D03*
D15*
X0196000Y0156000D03*
X0196000Y0063500D03*
D16*
X0196000Y0053500D03*
X0196000Y0043500D03*
X0196000Y0033500D03*
X0146000Y0033500D03*
X0146000Y0043500D03*
X0146000Y0053500D03*
X0146000Y0063500D03*
X0111000Y0063500D03*
X0111000Y0053500D03*
X0111000Y0043500D03*
X0111000Y0033500D03*
X0196000Y0086000D03*
X0196000Y0096000D03*
X0196000Y0106000D03*
X0196000Y0116000D03*
X0196000Y0126000D03*
X0196000Y0136000D03*
X0196000Y0146000D03*
D17*
X0131000Y0038500D03*
X0096000Y0038500D03*
M02*
