G75*
%MOIN*%
%OFA0B0*%
%FSLAX25Y25*%
%IPPOS*%
%LPD*%
%AMOC8*
5,1,8,0,0,1.08239X$1,22.5*
%
%ADD10C,0.00000*%
%ADD11C,0.05600*%
%ADD12C,0.06400*%
%ADD13C,0.07400*%
%ADD14OC8,0.06400*%
%ADD15R,0.06500X0.06500*%
%ADD16C,0.06500*%
%ADD17R,0.07400X0.07400*%
%ADD18C,0.01000*%
%ADD19C,0.04000*%
D10*
X0001000Y0001000D02*
X0001000Y0190000D01*
X0229350Y0190000D01*
X0229350Y0001000D01*
X0001000Y0001000D01*
X0012200Y0016700D02*
X0012202Y0016834D01*
X0012208Y0016968D01*
X0012218Y0017101D01*
X0012232Y0017235D01*
X0012250Y0017368D01*
X0012272Y0017500D01*
X0012297Y0017631D01*
X0012327Y0017762D01*
X0012361Y0017892D01*
X0012398Y0018020D01*
X0012439Y0018148D01*
X0012484Y0018274D01*
X0012533Y0018399D01*
X0012585Y0018522D01*
X0012641Y0018644D01*
X0012701Y0018764D01*
X0012764Y0018882D01*
X0012831Y0018998D01*
X0012901Y0019112D01*
X0012975Y0019224D01*
X0013052Y0019334D01*
X0013132Y0019442D01*
X0013215Y0019547D01*
X0013301Y0019649D01*
X0013390Y0019749D01*
X0013483Y0019846D01*
X0013578Y0019941D01*
X0013676Y0020032D01*
X0013776Y0020121D01*
X0013879Y0020206D01*
X0013985Y0020289D01*
X0014093Y0020368D01*
X0014203Y0020444D01*
X0014316Y0020517D01*
X0014431Y0020586D01*
X0014547Y0020652D01*
X0014666Y0020714D01*
X0014786Y0020773D01*
X0014909Y0020828D01*
X0015032Y0020880D01*
X0015157Y0020927D01*
X0015284Y0020971D01*
X0015412Y0021012D01*
X0015541Y0021048D01*
X0015671Y0021081D01*
X0015802Y0021109D01*
X0015933Y0021134D01*
X0016066Y0021155D01*
X0016199Y0021172D01*
X0016332Y0021185D01*
X0016466Y0021194D01*
X0016600Y0021199D01*
X0016734Y0021200D01*
X0016867Y0021197D01*
X0017001Y0021190D01*
X0017135Y0021179D01*
X0017268Y0021164D01*
X0017401Y0021145D01*
X0017533Y0021122D01*
X0017664Y0021096D01*
X0017794Y0021065D01*
X0017924Y0021030D01*
X0018052Y0020992D01*
X0018179Y0020950D01*
X0018305Y0020904D01*
X0018430Y0020854D01*
X0018553Y0020801D01*
X0018674Y0020744D01*
X0018794Y0020683D01*
X0018911Y0020619D01*
X0019027Y0020552D01*
X0019141Y0020481D01*
X0019252Y0020406D01*
X0019361Y0020329D01*
X0019468Y0020248D01*
X0019573Y0020164D01*
X0019674Y0020077D01*
X0019774Y0019987D01*
X0019870Y0019894D01*
X0019964Y0019798D01*
X0020055Y0019699D01*
X0020142Y0019598D01*
X0020227Y0019494D01*
X0020309Y0019388D01*
X0020387Y0019280D01*
X0020462Y0019169D01*
X0020534Y0019056D01*
X0020603Y0018940D01*
X0020668Y0018823D01*
X0020729Y0018704D01*
X0020787Y0018583D01*
X0020841Y0018461D01*
X0020892Y0018337D01*
X0020939Y0018211D01*
X0020982Y0018084D01*
X0021021Y0017956D01*
X0021057Y0017827D01*
X0021088Y0017697D01*
X0021116Y0017566D01*
X0021140Y0017434D01*
X0021160Y0017301D01*
X0021176Y0017168D01*
X0021188Y0017035D01*
X0021196Y0016901D01*
X0021200Y0016767D01*
X0021200Y0016633D01*
X0021196Y0016499D01*
X0021188Y0016365D01*
X0021176Y0016232D01*
X0021160Y0016099D01*
X0021140Y0015966D01*
X0021116Y0015834D01*
X0021088Y0015703D01*
X0021057Y0015573D01*
X0021021Y0015444D01*
X0020982Y0015316D01*
X0020939Y0015189D01*
X0020892Y0015063D01*
X0020841Y0014939D01*
X0020787Y0014817D01*
X0020729Y0014696D01*
X0020668Y0014577D01*
X0020603Y0014460D01*
X0020534Y0014344D01*
X0020462Y0014231D01*
X0020387Y0014120D01*
X0020309Y0014012D01*
X0020227Y0013906D01*
X0020142Y0013802D01*
X0020055Y0013701D01*
X0019964Y0013602D01*
X0019870Y0013506D01*
X0019774Y0013413D01*
X0019674Y0013323D01*
X0019573Y0013236D01*
X0019468Y0013152D01*
X0019361Y0013071D01*
X0019252Y0012994D01*
X0019141Y0012919D01*
X0019027Y0012848D01*
X0018911Y0012781D01*
X0018794Y0012717D01*
X0018674Y0012656D01*
X0018553Y0012599D01*
X0018430Y0012546D01*
X0018305Y0012496D01*
X0018179Y0012450D01*
X0018052Y0012408D01*
X0017924Y0012370D01*
X0017794Y0012335D01*
X0017664Y0012304D01*
X0017533Y0012278D01*
X0017401Y0012255D01*
X0017268Y0012236D01*
X0017135Y0012221D01*
X0017001Y0012210D01*
X0016867Y0012203D01*
X0016734Y0012200D01*
X0016600Y0012201D01*
X0016466Y0012206D01*
X0016332Y0012215D01*
X0016199Y0012228D01*
X0016066Y0012245D01*
X0015933Y0012266D01*
X0015802Y0012291D01*
X0015671Y0012319D01*
X0015541Y0012352D01*
X0015412Y0012388D01*
X0015284Y0012429D01*
X0015157Y0012473D01*
X0015032Y0012520D01*
X0014909Y0012572D01*
X0014786Y0012627D01*
X0014666Y0012686D01*
X0014547Y0012748D01*
X0014431Y0012814D01*
X0014316Y0012883D01*
X0014203Y0012956D01*
X0014093Y0013032D01*
X0013985Y0013111D01*
X0013879Y0013194D01*
X0013776Y0013279D01*
X0013676Y0013368D01*
X0013578Y0013459D01*
X0013483Y0013554D01*
X0013390Y0013651D01*
X0013301Y0013751D01*
X0013215Y0013853D01*
X0013132Y0013958D01*
X0013052Y0014066D01*
X0012975Y0014176D01*
X0012901Y0014288D01*
X0012831Y0014402D01*
X0012764Y0014518D01*
X0012701Y0014636D01*
X0012641Y0014756D01*
X0012585Y0014878D01*
X0012533Y0015001D01*
X0012484Y0015126D01*
X0012439Y0015252D01*
X0012398Y0015380D01*
X0012361Y0015508D01*
X0012327Y0015638D01*
X0012297Y0015769D01*
X0012272Y0015900D01*
X0012250Y0016032D01*
X0012232Y0016165D01*
X0012218Y0016299D01*
X0012208Y0016432D01*
X0012202Y0016566D01*
X0012200Y0016700D01*
X0012200Y0174200D02*
X0012202Y0174334D01*
X0012208Y0174468D01*
X0012218Y0174601D01*
X0012232Y0174735D01*
X0012250Y0174868D01*
X0012272Y0175000D01*
X0012297Y0175131D01*
X0012327Y0175262D01*
X0012361Y0175392D01*
X0012398Y0175520D01*
X0012439Y0175648D01*
X0012484Y0175774D01*
X0012533Y0175899D01*
X0012585Y0176022D01*
X0012641Y0176144D01*
X0012701Y0176264D01*
X0012764Y0176382D01*
X0012831Y0176498D01*
X0012901Y0176612D01*
X0012975Y0176724D01*
X0013052Y0176834D01*
X0013132Y0176942D01*
X0013215Y0177047D01*
X0013301Y0177149D01*
X0013390Y0177249D01*
X0013483Y0177346D01*
X0013578Y0177441D01*
X0013676Y0177532D01*
X0013776Y0177621D01*
X0013879Y0177706D01*
X0013985Y0177789D01*
X0014093Y0177868D01*
X0014203Y0177944D01*
X0014316Y0178017D01*
X0014431Y0178086D01*
X0014547Y0178152D01*
X0014666Y0178214D01*
X0014786Y0178273D01*
X0014909Y0178328D01*
X0015032Y0178380D01*
X0015157Y0178427D01*
X0015284Y0178471D01*
X0015412Y0178512D01*
X0015541Y0178548D01*
X0015671Y0178581D01*
X0015802Y0178609D01*
X0015933Y0178634D01*
X0016066Y0178655D01*
X0016199Y0178672D01*
X0016332Y0178685D01*
X0016466Y0178694D01*
X0016600Y0178699D01*
X0016734Y0178700D01*
X0016867Y0178697D01*
X0017001Y0178690D01*
X0017135Y0178679D01*
X0017268Y0178664D01*
X0017401Y0178645D01*
X0017533Y0178622D01*
X0017664Y0178596D01*
X0017794Y0178565D01*
X0017924Y0178530D01*
X0018052Y0178492D01*
X0018179Y0178450D01*
X0018305Y0178404D01*
X0018430Y0178354D01*
X0018553Y0178301D01*
X0018674Y0178244D01*
X0018794Y0178183D01*
X0018911Y0178119D01*
X0019027Y0178052D01*
X0019141Y0177981D01*
X0019252Y0177906D01*
X0019361Y0177829D01*
X0019468Y0177748D01*
X0019573Y0177664D01*
X0019674Y0177577D01*
X0019774Y0177487D01*
X0019870Y0177394D01*
X0019964Y0177298D01*
X0020055Y0177199D01*
X0020142Y0177098D01*
X0020227Y0176994D01*
X0020309Y0176888D01*
X0020387Y0176780D01*
X0020462Y0176669D01*
X0020534Y0176556D01*
X0020603Y0176440D01*
X0020668Y0176323D01*
X0020729Y0176204D01*
X0020787Y0176083D01*
X0020841Y0175961D01*
X0020892Y0175837D01*
X0020939Y0175711D01*
X0020982Y0175584D01*
X0021021Y0175456D01*
X0021057Y0175327D01*
X0021088Y0175197D01*
X0021116Y0175066D01*
X0021140Y0174934D01*
X0021160Y0174801D01*
X0021176Y0174668D01*
X0021188Y0174535D01*
X0021196Y0174401D01*
X0021200Y0174267D01*
X0021200Y0174133D01*
X0021196Y0173999D01*
X0021188Y0173865D01*
X0021176Y0173732D01*
X0021160Y0173599D01*
X0021140Y0173466D01*
X0021116Y0173334D01*
X0021088Y0173203D01*
X0021057Y0173073D01*
X0021021Y0172944D01*
X0020982Y0172816D01*
X0020939Y0172689D01*
X0020892Y0172563D01*
X0020841Y0172439D01*
X0020787Y0172317D01*
X0020729Y0172196D01*
X0020668Y0172077D01*
X0020603Y0171960D01*
X0020534Y0171844D01*
X0020462Y0171731D01*
X0020387Y0171620D01*
X0020309Y0171512D01*
X0020227Y0171406D01*
X0020142Y0171302D01*
X0020055Y0171201D01*
X0019964Y0171102D01*
X0019870Y0171006D01*
X0019774Y0170913D01*
X0019674Y0170823D01*
X0019573Y0170736D01*
X0019468Y0170652D01*
X0019361Y0170571D01*
X0019252Y0170494D01*
X0019141Y0170419D01*
X0019027Y0170348D01*
X0018911Y0170281D01*
X0018794Y0170217D01*
X0018674Y0170156D01*
X0018553Y0170099D01*
X0018430Y0170046D01*
X0018305Y0169996D01*
X0018179Y0169950D01*
X0018052Y0169908D01*
X0017924Y0169870D01*
X0017794Y0169835D01*
X0017664Y0169804D01*
X0017533Y0169778D01*
X0017401Y0169755D01*
X0017268Y0169736D01*
X0017135Y0169721D01*
X0017001Y0169710D01*
X0016867Y0169703D01*
X0016734Y0169700D01*
X0016600Y0169701D01*
X0016466Y0169706D01*
X0016332Y0169715D01*
X0016199Y0169728D01*
X0016066Y0169745D01*
X0015933Y0169766D01*
X0015802Y0169791D01*
X0015671Y0169819D01*
X0015541Y0169852D01*
X0015412Y0169888D01*
X0015284Y0169929D01*
X0015157Y0169973D01*
X0015032Y0170020D01*
X0014909Y0170072D01*
X0014786Y0170127D01*
X0014666Y0170186D01*
X0014547Y0170248D01*
X0014431Y0170314D01*
X0014316Y0170383D01*
X0014203Y0170456D01*
X0014093Y0170532D01*
X0013985Y0170611D01*
X0013879Y0170694D01*
X0013776Y0170779D01*
X0013676Y0170868D01*
X0013578Y0170959D01*
X0013483Y0171054D01*
X0013390Y0171151D01*
X0013301Y0171251D01*
X0013215Y0171353D01*
X0013132Y0171458D01*
X0013052Y0171566D01*
X0012975Y0171676D01*
X0012901Y0171788D01*
X0012831Y0171902D01*
X0012764Y0172018D01*
X0012701Y0172136D01*
X0012641Y0172256D01*
X0012585Y0172378D01*
X0012533Y0172501D01*
X0012484Y0172626D01*
X0012439Y0172752D01*
X0012398Y0172880D01*
X0012361Y0173008D01*
X0012327Y0173138D01*
X0012297Y0173269D01*
X0012272Y0173400D01*
X0012250Y0173532D01*
X0012232Y0173665D01*
X0012218Y0173799D01*
X0012208Y0173932D01*
X0012202Y0174066D01*
X0012200Y0174200D01*
X0209100Y0174200D02*
X0209102Y0174334D01*
X0209108Y0174468D01*
X0209118Y0174601D01*
X0209132Y0174735D01*
X0209150Y0174868D01*
X0209172Y0175000D01*
X0209197Y0175131D01*
X0209227Y0175262D01*
X0209261Y0175392D01*
X0209298Y0175520D01*
X0209339Y0175648D01*
X0209384Y0175774D01*
X0209433Y0175899D01*
X0209485Y0176022D01*
X0209541Y0176144D01*
X0209601Y0176264D01*
X0209664Y0176382D01*
X0209731Y0176498D01*
X0209801Y0176612D01*
X0209875Y0176724D01*
X0209952Y0176834D01*
X0210032Y0176942D01*
X0210115Y0177047D01*
X0210201Y0177149D01*
X0210290Y0177249D01*
X0210383Y0177346D01*
X0210478Y0177441D01*
X0210576Y0177532D01*
X0210676Y0177621D01*
X0210779Y0177706D01*
X0210885Y0177789D01*
X0210993Y0177868D01*
X0211103Y0177944D01*
X0211216Y0178017D01*
X0211331Y0178086D01*
X0211447Y0178152D01*
X0211566Y0178214D01*
X0211686Y0178273D01*
X0211809Y0178328D01*
X0211932Y0178380D01*
X0212057Y0178427D01*
X0212184Y0178471D01*
X0212312Y0178512D01*
X0212441Y0178548D01*
X0212571Y0178581D01*
X0212702Y0178609D01*
X0212833Y0178634D01*
X0212966Y0178655D01*
X0213099Y0178672D01*
X0213232Y0178685D01*
X0213366Y0178694D01*
X0213500Y0178699D01*
X0213634Y0178700D01*
X0213767Y0178697D01*
X0213901Y0178690D01*
X0214035Y0178679D01*
X0214168Y0178664D01*
X0214301Y0178645D01*
X0214433Y0178622D01*
X0214564Y0178596D01*
X0214694Y0178565D01*
X0214824Y0178530D01*
X0214952Y0178492D01*
X0215079Y0178450D01*
X0215205Y0178404D01*
X0215330Y0178354D01*
X0215453Y0178301D01*
X0215574Y0178244D01*
X0215694Y0178183D01*
X0215811Y0178119D01*
X0215927Y0178052D01*
X0216041Y0177981D01*
X0216152Y0177906D01*
X0216261Y0177829D01*
X0216368Y0177748D01*
X0216473Y0177664D01*
X0216574Y0177577D01*
X0216674Y0177487D01*
X0216770Y0177394D01*
X0216864Y0177298D01*
X0216955Y0177199D01*
X0217042Y0177098D01*
X0217127Y0176994D01*
X0217209Y0176888D01*
X0217287Y0176780D01*
X0217362Y0176669D01*
X0217434Y0176556D01*
X0217503Y0176440D01*
X0217568Y0176323D01*
X0217629Y0176204D01*
X0217687Y0176083D01*
X0217741Y0175961D01*
X0217792Y0175837D01*
X0217839Y0175711D01*
X0217882Y0175584D01*
X0217921Y0175456D01*
X0217957Y0175327D01*
X0217988Y0175197D01*
X0218016Y0175066D01*
X0218040Y0174934D01*
X0218060Y0174801D01*
X0218076Y0174668D01*
X0218088Y0174535D01*
X0218096Y0174401D01*
X0218100Y0174267D01*
X0218100Y0174133D01*
X0218096Y0173999D01*
X0218088Y0173865D01*
X0218076Y0173732D01*
X0218060Y0173599D01*
X0218040Y0173466D01*
X0218016Y0173334D01*
X0217988Y0173203D01*
X0217957Y0173073D01*
X0217921Y0172944D01*
X0217882Y0172816D01*
X0217839Y0172689D01*
X0217792Y0172563D01*
X0217741Y0172439D01*
X0217687Y0172317D01*
X0217629Y0172196D01*
X0217568Y0172077D01*
X0217503Y0171960D01*
X0217434Y0171844D01*
X0217362Y0171731D01*
X0217287Y0171620D01*
X0217209Y0171512D01*
X0217127Y0171406D01*
X0217042Y0171302D01*
X0216955Y0171201D01*
X0216864Y0171102D01*
X0216770Y0171006D01*
X0216674Y0170913D01*
X0216574Y0170823D01*
X0216473Y0170736D01*
X0216368Y0170652D01*
X0216261Y0170571D01*
X0216152Y0170494D01*
X0216041Y0170419D01*
X0215927Y0170348D01*
X0215811Y0170281D01*
X0215694Y0170217D01*
X0215574Y0170156D01*
X0215453Y0170099D01*
X0215330Y0170046D01*
X0215205Y0169996D01*
X0215079Y0169950D01*
X0214952Y0169908D01*
X0214824Y0169870D01*
X0214694Y0169835D01*
X0214564Y0169804D01*
X0214433Y0169778D01*
X0214301Y0169755D01*
X0214168Y0169736D01*
X0214035Y0169721D01*
X0213901Y0169710D01*
X0213767Y0169703D01*
X0213634Y0169700D01*
X0213500Y0169701D01*
X0213366Y0169706D01*
X0213232Y0169715D01*
X0213099Y0169728D01*
X0212966Y0169745D01*
X0212833Y0169766D01*
X0212702Y0169791D01*
X0212571Y0169819D01*
X0212441Y0169852D01*
X0212312Y0169888D01*
X0212184Y0169929D01*
X0212057Y0169973D01*
X0211932Y0170020D01*
X0211809Y0170072D01*
X0211686Y0170127D01*
X0211566Y0170186D01*
X0211447Y0170248D01*
X0211331Y0170314D01*
X0211216Y0170383D01*
X0211103Y0170456D01*
X0210993Y0170532D01*
X0210885Y0170611D01*
X0210779Y0170694D01*
X0210676Y0170779D01*
X0210576Y0170868D01*
X0210478Y0170959D01*
X0210383Y0171054D01*
X0210290Y0171151D01*
X0210201Y0171251D01*
X0210115Y0171353D01*
X0210032Y0171458D01*
X0209952Y0171566D01*
X0209875Y0171676D01*
X0209801Y0171788D01*
X0209731Y0171902D01*
X0209664Y0172018D01*
X0209601Y0172136D01*
X0209541Y0172256D01*
X0209485Y0172378D01*
X0209433Y0172501D01*
X0209384Y0172626D01*
X0209339Y0172752D01*
X0209298Y0172880D01*
X0209261Y0173008D01*
X0209227Y0173138D01*
X0209197Y0173269D01*
X0209172Y0173400D01*
X0209150Y0173532D01*
X0209132Y0173665D01*
X0209118Y0173799D01*
X0209108Y0173932D01*
X0209102Y0174066D01*
X0209100Y0174200D01*
X0209100Y0016700D02*
X0209102Y0016834D01*
X0209108Y0016968D01*
X0209118Y0017101D01*
X0209132Y0017235D01*
X0209150Y0017368D01*
X0209172Y0017500D01*
X0209197Y0017631D01*
X0209227Y0017762D01*
X0209261Y0017892D01*
X0209298Y0018020D01*
X0209339Y0018148D01*
X0209384Y0018274D01*
X0209433Y0018399D01*
X0209485Y0018522D01*
X0209541Y0018644D01*
X0209601Y0018764D01*
X0209664Y0018882D01*
X0209731Y0018998D01*
X0209801Y0019112D01*
X0209875Y0019224D01*
X0209952Y0019334D01*
X0210032Y0019442D01*
X0210115Y0019547D01*
X0210201Y0019649D01*
X0210290Y0019749D01*
X0210383Y0019846D01*
X0210478Y0019941D01*
X0210576Y0020032D01*
X0210676Y0020121D01*
X0210779Y0020206D01*
X0210885Y0020289D01*
X0210993Y0020368D01*
X0211103Y0020444D01*
X0211216Y0020517D01*
X0211331Y0020586D01*
X0211447Y0020652D01*
X0211566Y0020714D01*
X0211686Y0020773D01*
X0211809Y0020828D01*
X0211932Y0020880D01*
X0212057Y0020927D01*
X0212184Y0020971D01*
X0212312Y0021012D01*
X0212441Y0021048D01*
X0212571Y0021081D01*
X0212702Y0021109D01*
X0212833Y0021134D01*
X0212966Y0021155D01*
X0213099Y0021172D01*
X0213232Y0021185D01*
X0213366Y0021194D01*
X0213500Y0021199D01*
X0213634Y0021200D01*
X0213767Y0021197D01*
X0213901Y0021190D01*
X0214035Y0021179D01*
X0214168Y0021164D01*
X0214301Y0021145D01*
X0214433Y0021122D01*
X0214564Y0021096D01*
X0214694Y0021065D01*
X0214824Y0021030D01*
X0214952Y0020992D01*
X0215079Y0020950D01*
X0215205Y0020904D01*
X0215330Y0020854D01*
X0215453Y0020801D01*
X0215574Y0020744D01*
X0215694Y0020683D01*
X0215811Y0020619D01*
X0215927Y0020552D01*
X0216041Y0020481D01*
X0216152Y0020406D01*
X0216261Y0020329D01*
X0216368Y0020248D01*
X0216473Y0020164D01*
X0216574Y0020077D01*
X0216674Y0019987D01*
X0216770Y0019894D01*
X0216864Y0019798D01*
X0216955Y0019699D01*
X0217042Y0019598D01*
X0217127Y0019494D01*
X0217209Y0019388D01*
X0217287Y0019280D01*
X0217362Y0019169D01*
X0217434Y0019056D01*
X0217503Y0018940D01*
X0217568Y0018823D01*
X0217629Y0018704D01*
X0217687Y0018583D01*
X0217741Y0018461D01*
X0217792Y0018337D01*
X0217839Y0018211D01*
X0217882Y0018084D01*
X0217921Y0017956D01*
X0217957Y0017827D01*
X0217988Y0017697D01*
X0218016Y0017566D01*
X0218040Y0017434D01*
X0218060Y0017301D01*
X0218076Y0017168D01*
X0218088Y0017035D01*
X0218096Y0016901D01*
X0218100Y0016767D01*
X0218100Y0016633D01*
X0218096Y0016499D01*
X0218088Y0016365D01*
X0218076Y0016232D01*
X0218060Y0016099D01*
X0218040Y0015966D01*
X0218016Y0015834D01*
X0217988Y0015703D01*
X0217957Y0015573D01*
X0217921Y0015444D01*
X0217882Y0015316D01*
X0217839Y0015189D01*
X0217792Y0015063D01*
X0217741Y0014939D01*
X0217687Y0014817D01*
X0217629Y0014696D01*
X0217568Y0014577D01*
X0217503Y0014460D01*
X0217434Y0014344D01*
X0217362Y0014231D01*
X0217287Y0014120D01*
X0217209Y0014012D01*
X0217127Y0013906D01*
X0217042Y0013802D01*
X0216955Y0013701D01*
X0216864Y0013602D01*
X0216770Y0013506D01*
X0216674Y0013413D01*
X0216574Y0013323D01*
X0216473Y0013236D01*
X0216368Y0013152D01*
X0216261Y0013071D01*
X0216152Y0012994D01*
X0216041Y0012919D01*
X0215927Y0012848D01*
X0215811Y0012781D01*
X0215694Y0012717D01*
X0215574Y0012656D01*
X0215453Y0012599D01*
X0215330Y0012546D01*
X0215205Y0012496D01*
X0215079Y0012450D01*
X0214952Y0012408D01*
X0214824Y0012370D01*
X0214694Y0012335D01*
X0214564Y0012304D01*
X0214433Y0012278D01*
X0214301Y0012255D01*
X0214168Y0012236D01*
X0214035Y0012221D01*
X0213901Y0012210D01*
X0213767Y0012203D01*
X0213634Y0012200D01*
X0213500Y0012201D01*
X0213366Y0012206D01*
X0213232Y0012215D01*
X0213099Y0012228D01*
X0212966Y0012245D01*
X0212833Y0012266D01*
X0212702Y0012291D01*
X0212571Y0012319D01*
X0212441Y0012352D01*
X0212312Y0012388D01*
X0212184Y0012429D01*
X0212057Y0012473D01*
X0211932Y0012520D01*
X0211809Y0012572D01*
X0211686Y0012627D01*
X0211566Y0012686D01*
X0211447Y0012748D01*
X0211331Y0012814D01*
X0211216Y0012883D01*
X0211103Y0012956D01*
X0210993Y0013032D01*
X0210885Y0013111D01*
X0210779Y0013194D01*
X0210676Y0013279D01*
X0210576Y0013368D01*
X0210478Y0013459D01*
X0210383Y0013554D01*
X0210290Y0013651D01*
X0210201Y0013751D01*
X0210115Y0013853D01*
X0210032Y0013958D01*
X0209952Y0014066D01*
X0209875Y0014176D01*
X0209801Y0014288D01*
X0209731Y0014402D01*
X0209664Y0014518D01*
X0209601Y0014636D01*
X0209541Y0014756D01*
X0209485Y0014878D01*
X0209433Y0015001D01*
X0209384Y0015126D01*
X0209339Y0015252D01*
X0209298Y0015380D01*
X0209261Y0015508D01*
X0209227Y0015638D01*
X0209197Y0015769D01*
X0209172Y0015900D01*
X0209150Y0016032D01*
X0209132Y0016165D01*
X0209118Y0016299D01*
X0209108Y0016432D01*
X0209102Y0016566D01*
X0209100Y0016700D01*
D11*
X0081300Y0048500D02*
X0075700Y0048500D01*
X0071300Y0038500D02*
X0065700Y0038500D01*
X0061300Y0048500D02*
X0055700Y0048500D01*
X0065700Y0073500D02*
X0071300Y0073500D01*
X0075700Y0083500D02*
X0081300Y0083500D01*
X0061300Y0083500D02*
X0055700Y0083500D01*
X0065700Y0108500D02*
X0071300Y0108500D01*
X0075700Y0118500D02*
X0081300Y0118500D01*
X0093500Y0125700D02*
X0093500Y0131300D01*
X0103500Y0131300D02*
X0103500Y0125700D01*
X0113500Y0125700D02*
X0113500Y0131300D01*
X0123500Y0131300D02*
X0123500Y0125700D01*
X0133500Y0125700D02*
X0133500Y0131300D01*
X0143500Y0131300D02*
X0143500Y0125700D01*
X0153500Y0125700D02*
X0153500Y0131300D01*
X0153500Y0155700D02*
X0153500Y0161300D01*
X0143500Y0161300D02*
X0143500Y0155700D01*
X0133500Y0155700D02*
X0133500Y0161300D01*
X0123500Y0161300D02*
X0123500Y0155700D01*
X0113500Y0155700D02*
X0113500Y0161300D01*
X0103500Y0161300D02*
X0103500Y0155700D01*
X0093500Y0155700D02*
X0093500Y0161300D01*
X0081300Y0153500D02*
X0075700Y0153500D01*
X0071300Y0143500D02*
X0065700Y0143500D01*
X0061300Y0153500D02*
X0055700Y0153500D01*
X0055700Y0118500D02*
X0061300Y0118500D01*
D12*
X0036000Y0114200D02*
X0036000Y0107800D01*
X0026000Y0107800D02*
X0026000Y0114200D01*
X0016000Y0114200D02*
X0016000Y0107800D01*
X0016000Y0079200D02*
X0016000Y0072800D01*
X0026000Y0072800D02*
X0026000Y0079200D01*
X0036000Y0079200D02*
X0036000Y0072800D01*
X0036000Y0044200D02*
X0036000Y0037800D01*
X0026000Y0037800D02*
X0026000Y0044200D01*
X0016000Y0044200D02*
X0016000Y0037800D01*
X0016000Y0142800D02*
X0016000Y0149200D01*
X0026000Y0149200D02*
X0026000Y0142800D01*
X0036000Y0142800D02*
X0036000Y0149200D01*
X0165300Y0063500D02*
X0171700Y0063500D01*
X0171700Y0053500D02*
X0165300Y0053500D01*
X0165300Y0043500D02*
X0171700Y0043500D01*
X0171700Y0033500D02*
X0165300Y0033500D01*
D13*
X0131000Y0048500D03*
X0131000Y0058500D03*
X0096000Y0058500D03*
X0096000Y0048500D03*
X0078500Y0063500D03*
X0048500Y0063500D03*
X0048500Y0098500D03*
X0078500Y0098500D03*
X0078500Y0133500D03*
X0048500Y0133500D03*
X0173500Y0136000D03*
X0173500Y0146000D03*
X0173500Y0156000D03*
X0173500Y0126000D03*
X0173500Y0116000D03*
X0173500Y0106000D03*
X0173500Y0096000D03*
X0173500Y0086000D03*
X0078500Y0028500D03*
X0048500Y0028500D03*
D14*
X0113500Y0081000D03*
X0123500Y0081000D03*
X0133500Y0081000D03*
X0133500Y0091000D03*
X0123500Y0091000D03*
X0113500Y0091000D03*
X0113500Y0101000D03*
X0123500Y0101000D03*
X0133500Y0101000D03*
X0133500Y0111000D03*
X0123500Y0111000D03*
X0113500Y0111000D03*
D15*
X0196000Y0156000D03*
X0196000Y0063500D03*
D16*
X0196000Y0053500D03*
X0196000Y0043500D03*
X0196000Y0033500D03*
X0146000Y0033500D03*
X0146000Y0043500D03*
X0146000Y0053500D03*
X0146000Y0063500D03*
X0111000Y0063500D03*
X0111000Y0053500D03*
X0111000Y0043500D03*
X0111000Y0033500D03*
X0196000Y0086000D03*
X0196000Y0096000D03*
X0196000Y0106000D03*
X0196000Y0116000D03*
X0196000Y0126000D03*
X0196000Y0136000D03*
X0196000Y0146000D03*
D17*
X0131000Y0038500D03*
X0096000Y0038500D03*
D18*
X0096000Y0038000D01*
X0100000Y0034000D01*
X0111000Y0034000D01*
X0111000Y0033500D01*
X0111000Y0033000D01*
X0133000Y0033000D01*
X0138000Y0028000D01*
X0153000Y0028000D01*
X0168500Y0043500D01*
X0169000Y0044000D01*
X0196000Y0044000D01*
X0196000Y0043500D01*
X0196000Y0063500D02*
X0196000Y0064000D01*
X0169000Y0064000D01*
X0168500Y0063500D01*
X0160000Y0055000D01*
X0160000Y0050000D01*
X0146000Y0036000D01*
X0146000Y0034000D01*
X0146000Y0033500D01*
X0146000Y0034000D02*
X0135000Y0034000D01*
X0131000Y0038000D01*
X0131000Y0038500D01*
X0135000Y0054000D02*
X0131000Y0058000D01*
X0131000Y0058500D01*
X0131000Y0059000D01*
X0128000Y0059000D01*
X0089000Y0098000D01*
X0089000Y0133000D01*
X0092000Y0136000D01*
X0116000Y0136000D01*
X0123500Y0128500D01*
X0121000Y0121000D02*
X0111000Y0121000D01*
X0103500Y0128500D01*
X0103000Y0129000D01*
X0094000Y0129000D01*
X0093500Y0128500D01*
X0091000Y0138000D02*
X0076000Y0123000D01*
X0074000Y0123000D01*
X0069000Y0118000D01*
X0069000Y0109000D01*
X0068500Y0108500D01*
X0068000Y0109000D01*
X0048000Y0109000D01*
X0038000Y0119000D01*
X0034000Y0119000D01*
X0026000Y0111000D01*
X0021000Y0116000D02*
X0021000Y0097000D01*
X0034000Y0084000D01*
X0026000Y0076000D01*
X0036000Y0076000D02*
X0048500Y0063500D01*
X0048000Y0074000D02*
X0038000Y0084000D01*
X0034000Y0084000D01*
X0048000Y0074000D02*
X0068000Y0074000D01*
X0068500Y0073500D01*
X0096000Y0058500D02*
X0096000Y0058000D01*
X0016000Y0058000D01*
X0016000Y0041000D01*
X0011000Y0036000D02*
X0014000Y0033000D01*
X0018000Y0033000D01*
X0026000Y0041000D01*
X0034000Y0049000D01*
X0038000Y0049000D01*
X0048000Y0039000D01*
X0068000Y0039000D01*
X0068500Y0038500D01*
X0048500Y0028500D02*
X0036000Y0041000D01*
X0016000Y0058000D02*
X0016000Y0076000D01*
X0016000Y0111000D01*
X0016000Y0146000D01*
X0011000Y0151000D02*
X0011000Y0036000D01*
X0048500Y0098500D02*
X0036000Y0111000D01*
X0028000Y0123000D02*
X0021000Y0116000D01*
X0028000Y0123000D02*
X0057000Y0123000D01*
X0074000Y0140000D01*
X0115000Y0140000D01*
X0133500Y0158500D01*
X0143500Y0158500D02*
X0144000Y0159000D01*
X0153000Y0159000D01*
X0153500Y0158500D01*
X0173000Y0146000D02*
X0173500Y0146000D01*
X0196000Y0146000D01*
X0173000Y0146000D02*
X0165000Y0138000D01*
X0130000Y0138000D01*
X0124000Y0138000D02*
X0091000Y0138000D01*
X0093500Y0158500D02*
X0094000Y0159000D01*
X0103000Y0159000D01*
X0103500Y0158500D01*
X0106000Y0166000D02*
X0026000Y0166000D01*
X0011000Y0151000D01*
X0026000Y0146000D02*
X0034000Y0154000D01*
X0038000Y0154000D01*
X0048000Y0144000D01*
X0068000Y0144000D01*
X0068500Y0143500D01*
X0048500Y0133500D02*
X0036000Y0146000D01*
X0106000Y0166000D02*
X0113500Y0158500D01*
X0124000Y0138000D02*
X0133500Y0128500D01*
X0139000Y0133000D02*
X0142000Y0136000D01*
X0163000Y0136000D01*
X0173000Y0126000D01*
X0173500Y0126000D01*
X0196000Y0126000D01*
X0196000Y0106000D02*
X0173500Y0106000D01*
X0159000Y0106000D01*
X0149000Y0096000D01*
X0131000Y0096000D01*
X0126000Y0091000D01*
X0123500Y0091000D01*
X0131000Y0086000D02*
X0173500Y0086000D01*
X0196000Y0086000D01*
X0160000Y0102000D02*
X0149000Y0091000D01*
X0133500Y0091000D01*
X0131000Y0086000D02*
X0126000Y0081000D01*
X0123500Y0081000D01*
X0123500Y0101000D02*
X0126000Y0101000D01*
X0131000Y0106000D01*
X0136000Y0106000D01*
X0139000Y0109000D01*
X0139000Y0133000D01*
X0143500Y0128500D02*
X0143000Y0128000D01*
X0143000Y0110000D01*
X0134000Y0101000D01*
X0133500Y0101000D01*
X0133500Y0111000D02*
X0131000Y0111000D01*
X0121000Y0121000D01*
X0143500Y0128500D02*
X0144000Y0129000D01*
X0153000Y0129000D01*
X0153500Y0128500D01*
X0096000Y0058000D02*
X0100000Y0054000D01*
X0111000Y0054000D01*
X0111000Y0053500D01*
X0135000Y0054000D02*
X0146000Y0054000D01*
X0146000Y0053500D01*
D19*
X0160000Y0102000D03*
X0130000Y0138000D03*
M02*
