%
M48
M72
T01C0.02000
T02C0.02756
T03C0.03200
T04C0.03500
T05C0.03543
T06C0.03937
T07C0.04000
T08C0.09000
%
T01
X160000Y102000
X130000Y138000
T02
X146000Y63500
X146000Y53500
X146000Y43500
X146000Y33500
X111000Y33500
X111000Y43500
X111000Y53500
X111000Y63500
T03
X78500Y48500
X68500Y38500
X58500Y48500
X68500Y73500
X58500Y83500
X78500Y83500
X68500Y108500
X58500Y118500
X78500Y118500
X93500Y128500
X103500Y128500
X113500Y128500
X123500Y128500
X133500Y128500
X143500Y128500
X153500Y128500
X153500Y158500
X143500Y158500
X133500Y158500
X123500Y158500
X113500Y158500
X103500Y158500
X93500Y158500
X78500Y153500
X68500Y143500
X58500Y153500
T04
X196000Y156000
X196000Y146000
X196000Y136000
X196000Y126000
X196000Y116000
X196000Y106000
X196000Y96000
X196000Y86000
X196000Y63500
X196000Y53500
X196000Y43500
X196000Y33500
T05
X78500Y28500
X48500Y28500
X48500Y63500
X78500Y63500
X78500Y98500
X48500Y98500
X48500Y133500
X78500Y133500
T06
X96000Y58500
X96000Y48500
X96000Y38500
X131000Y38500
X131000Y48500
X131000Y58500
T07
X133500Y81000
X123500Y81000
X113500Y81000
X113500Y91000
X123500Y91000
X133500Y91000
X133500Y101000
X123500Y101000
X113500Y101000
X113500Y111000
X123500Y111000
X133500Y111000
X173500Y106000
X173500Y96000
X173500Y86000
X168500Y63500
X168500Y53500
X168500Y43500
X168500Y33500
X173500Y116000
X173500Y126000
X173500Y136000
X173500Y146000
X173500Y156000
X36000Y146000
X26000Y146000
X16000Y146000
X16000Y111000
X26000Y111000
X36000Y111000
X36000Y76000
X26000Y76000
X16000Y76000
X16000Y41000
X26000Y41000
X36000Y41000
T08
X16700Y16700
X16700Y174200
X213600Y174200
X213600Y16700
M30
